<svg xmlns="http://www.w3.org/2000/svg" viewBox="0 0 128 128" role="img" aria-label="PhotoPrism">
  <defs>
    <linearGradient id="bg" x1="18" y1="16" x2="112" y2="116" gradientUnits="userSpaceOnUse">
      <stop offset="0" stop-color="#7dd3fc"/>
      <stop offset="0.34" stop-color="#6366f1"/>
      <stop offset="0.67" stop-color="#ec4899"/>
      <stop offset="1" stop-color="#f59e0b"/>
    </linearGradient>
    <linearGradient id="shine" x1="22" y1="20" x2="88" y2="90" gradientUnits="userSpaceOnUse">
      <stop offset="0" stop-color="#ffffff" stop-opacity="0.95"/>
      <stop offset="0.58" stop-color="#ffffff" stop-opacity="0.2"/>
      <stop offset="1" stop-color="#ffffff" stop-opacity="0"/>
    </linearGradient>
    <filter id="softShadow" x="-20%" y="-20%" width="140%" height="140%">
      <feDropShadow dx="0" dy="10" stdDeviation="10" flood-color="#0f172a" flood-opacity="0.24"/>
    </filter>
  </defs>
  <rect width="128" height="128" rx="31" fill="#f8fafc"/>
  <g filter="url(#softShadow)">
    <path d="M64 15.5 110.5 42.2v43.6L64 112.5 17.5 85.8V42.2L64 15.5Z" fill="url(#bg)"/>
    <path d="M64 15.5v97M17.5 42.2l93 43.6M110.5 42.2l-93 43.6" fill="none" stroke="#ffffff" stroke-opacity="0.54" stroke-width="4" stroke-linecap="round"/>
    <circle cx="64" cy="64" r="25" fill="#0f172a" fill-opacity="0.14"/>
    <circle cx="64" cy="64" r="18" fill="#ffffff" fill-opacity="0.92"/>
    <circle cx="64" cy="64" r="9" fill="#1d4ed8"/>
    <path d="M33 43c11-15 32-20 49-12 8 4 14 10 18 17-13-7-30-5-44 2-11 5-19 11-26 19-2-10-1-18 3-26Z" fill="url(#shine)" opacity="0.72"/>
  </g>
</svg>
