<?xml version="1.0" encoding="UTF-8" standalone="no"?>
<!-- Generated by graphviz version 14.1.2 (0)
 -->
<svg id="pocketlab-component-agent-supervisor-light" role="img" aria-labelledby="pocketlab-component-agent-supervisor-light-title pocketlab-component-agent-supervisor-light-desc" width="1596pt" height="168pt"
 viewBox="0.00 0.00 1596.00 168.00" xmlns="http://www.w3.org/2000/svg" xmlns:xlink="http://www.w3.org/1999/xlink">
<title id="pocketlab-component-agent-supervisor-light-title">Lite agent supervisor connections</title>
<desc id="pocketlab-component-agent-supervisor-light-desc">Inputs, outputs, durable state, evidence, failure, and recovery relationships for Lite agent supervisor.</desc>
<metadata id="pocketlab-source-fingerprint">74c556f53273234a73d27373c3ffd52017913f6abe4d20307cb2e92ef8e5ec54</metadata>
<g id="graph0" class="graph" transform="scale(1 1) rotate(0) translate(18 150.25)">
<polygon fill="#ffffff" stroke="none" points="-18,18 -18,-150.25 1578.09,-150.25 1578.09,18 -18,18"/>
<text xml:space="preserve" text-anchor="middle" x="780.04" y="-109.25" font-family="Arial" font-size="20.00" fill="#172033">Lite agent supervisor connections</text>
<g id="clust1" class="cluster">
<title>cluster_managed&#45;device</title>
<path fill="#f8fafc" stroke="#94a3b8" stroke-dasharray="5,2" d="M566.53,-8C566.53,-8 1540.09,-8 1540.09,-8 1546.09,-8 1552.09,-14 1552.09,-20 1552.09,-20 1552.09,-81 1552.09,-81 1552.09,-87 1546.09,-93 1540.09,-93 1540.09,-93 566.53,-93 566.53,-93 560.53,-93 554.53,-87 554.53,-81 554.53,-81 554.53,-20 554.53,-20 554.53,-14 560.53,-8 566.53,-8"/>
<text xml:space="preserve" text-anchor="middle" x="1053.31" y="-70" font-family="Arial" font-size="20.00" fill="#172033">Managed&#45;device boundary</text>
</g>
<g id="clust2" class="cluster">
<title>cluster_server&#45;host</title>
<path fill="#f8fafc" stroke="#94a3b8" stroke-dasharray="5,2" d="M20,-8C20,-8 431.28,-8 431.28,-8 437.28,-8 443.28,-14 443.28,-20 443.28,-20 443.28,-81 443.28,-81 443.28,-87 437.28,-93 431.28,-93 431.28,-93 20,-93 20,-93 14,-93 8,-87 8,-81 8,-81 8,-20 8,-20 8,-14 14,-8 20,-8"/>
<text xml:space="preserve" text-anchor="middle" x="225.64" y="-70" font-family="Arial" font-size="20.00" fill="#172033">Server&#45;host boundary</text>
</g>
<!-- agent&#45;supervisor&#45;&gt;agent&#45;recovery -->
<g id="edge2" class="edge">
<title>agent&#45;supervisor&#45;&gt;agent&#45;recovery</title>
<g id="a_edge2"><a xlink:title="stopped&#45;agent recovery (Local process)">
<path fill="none" stroke="#b45309" stroke-width="1.15" stroke-dasharray="5,2" d="M975.08,-35C975.08,-35 1101.7,-35 1101.7,-35"/>
<polygon fill="#b45309" stroke="#b45309" stroke-width="1.15" points="1108.9,-35 1101.7,-38.24 1106.7,-35.08 1101.7,-35.08 1101.7,-35 1101.7,-34.93 1106.7,-34.93 1101.7,-31.76 1108.9,-35"/>
</a>
</g>
<text xml:space="preserve" text-anchor="middle" x="1042.43" y="-37.15" font-family="Arial" font-size="8.00" fill="#b45309">stopped&#45;agent recovery</text>
</g>
<!-- pm2&#45;&gt;agent&#45;supervisor -->
<g id="edge1" class="edge">
<title>pm2&#45;&gt;agent&#45;supervisor</title>
<g id="a_edge1"><a xlink:title="starts/supervises (Local process)">
<path fill="none" stroke="#b45309" stroke-width="1.15" stroke-dasharray="5,2" d="M443.57,-35C443.57,-35 545.07,-35 545.07,-35"/>
<polygon fill="#b45309" stroke="#b45309" stroke-width="1.15" points="552.27,-35 545.07,-38.24 550.07,-35.08 545.07,-35.08 545.07,-35 545.07,-34.93 550.07,-34.93 545.07,-31.76 552.27,-35"/>
</a>
</g>
<text xml:space="preserve" text-anchor="middle" x="498.9" y="-37.15" font-family="Arial" font-size="8.00" fill="#b45309">starts/supervises</text>
</g>
<!-- agent&#45;recovery -->
<g id="node1" class="node">
<title>agent&#45;recovery</title>
<g id="a_node1"><a xlink:href="../../../../generated/production/architecture/components/agent-recovery/" xlink:title="Reconnect watchdog and supervisor recovery. Separates running&#45;but&#45;disconnected recovery from stopped&#45;agent recovery and exposes truthful guidance when no supervisor is available." target="_top">
<polygon fill="#dcfce7" stroke="#64748b" stroke-width="1.15" points="1552.09,-61.76 1110.81,-61.76 1110.81,-57.76 1106.81,-57.76 1106.81,-53.76 1110.81,-53.76 1110.81,-16.24 1106.81,-16.24 1106.81,-12.24 1110.81,-12.24 1110.81,-8.24 1552.09,-8.24 1552.09,-61.76"/>
<polyline fill="none" stroke="#64748b" stroke-width="1.15" points="1110.81,-57.76 1114.81,-57.76 1114.81,-53.76 1110.81,-53.76"/>
<polyline fill="none" stroke="#64748b" stroke-width="1.15" points="1110.81,-16.24 1114.81,-16.24 1114.81,-12.24 1110.81,-12.24"/>
<image href="../icons/generic-decision.svg" x="1107.95" y="-47.00" width="24" height="24" preserveAspectRatio="xMidYMid meet" aria-hidden="true"/>
<text xml:space="preserve" text-anchor="start" x="1138.95" y="-31.5" font-family="Arial" font-size="10.00" fill="#172033"> </text>
<text xml:space="preserve" text-anchor="start" x="1219.45" y="-39.1" font-family="Arial" font-weight="bold" font-size="12.00" fill="#172033">Reconnect watchdog and supervisor recovery</text>
<text xml:space="preserve" text-anchor="start" x="1165.45" y="-29.95" font-family="Arial" font-size="9.00" fill="#172033">Separates running&#45;but&#45;disconnected recovery from stopped&#45;agent recovery and exposes t...</text>
<text xml:space="preserve" text-anchor="start" x="1327.45" y="-21.9" font-family="Arial" font-size="8.00" fill="#172033">Joined device</text>
</a>
</g>
</g>
<!-- agent&#45;supervisor -->
<g id="node2" class="node">
<title>agent&#45;supervisor</title>
<g id="a_node2"><a xlink:href="../../../../generated/production/architecture/components/agent-supervisor/" xlink:title="Lite agent supervisor. Runs separately from the agent, reads the protected agent environment, and starts or restarts failed agents without overwriting identity." target="_top">
<polygon fill="#dcfce7" stroke="#172033" stroke-width="2.2" points="974.06,-61.76 554.53,-61.76 554.53,-57.76 550.53,-57.76 550.53,-53.76 554.53,-53.76 554.53,-16.24 550.53,-16.24 550.53,-12.24 554.53,-12.24 554.53,-8.24 974.06,-8.24 974.06,-61.76"/>
<polyline fill="none" stroke="#172033" stroke-width="2.2" points="554.53,-57.76 558.53,-57.76 558.53,-53.76 554.53,-53.76"/>
<polyline fill="none" stroke="#172033" stroke-width="2.2" points="554.53,-16.24 558.53,-16.24 558.53,-12.24 554.53,-12.24"/>
<image href="../icons/generic-process.svg" x="551.67" y="-47.00" width="24" height="24" preserveAspectRatio="xMidYMid meet" aria-hidden="true"/>
<text xml:space="preserve" text-anchor="start" x="582.67" y="-31.5" font-family="Arial" font-size="10.00" fill="#172033"> </text>
<text xml:space="preserve" text-anchor="start" x="723.92" y="-39.1" font-family="Arial" font-weight="bold" font-size="12.00" fill="#172033">Lite agent supervisor</text>
<text xml:space="preserve" text-anchor="start" x="609.17" y="-29.95" font-family="Arial" font-size="9.00" fill="#172033">Runs separately from the agent, reads the protected agent environment, and starts or...</text>
<text xml:space="preserve" text-anchor="start" x="760.29" y="-21.9" font-family="Arial" font-size="8.00" fill="#172033">Joined device</text>
</a>
</g>
</g>
<!-- pm2 -->
<g id="node3" class="node">
<title>pm2</title>
<g id="a_node3"><a xlink:href="../../../../generated/production/architecture/components/pm2/" xlink:title="PM2 process manager. Starts and supervises approved server&#45;host and joined&#45;device processes with bounded restart policies." target="_top">
<polygon fill="#dcfce7" stroke="#64748b" stroke-width="1.15" points="443.28,-61.76 8,-61.76 8,-57.76 4,-57.76 4,-53.76 8,-53.76 8,-16.24 4,-16.24 4,-12.24 8,-12.24 8,-8.24 443.28,-8.24 443.28,-61.76"/>
<polyline fill="none" stroke="#64748b" stroke-width="1.15" points="8,-57.76 12,-57.76 12,-53.76 8,-53.76"/>
<polyline fill="none" stroke="#64748b" stroke-width="1.15" points="8,-16.24 12,-16.24 12,-12.24 8,-12.24"/>
<image href="../icons/generic-process.svg" x="5.14" y="-47.00" width="24" height="24" preserveAspectRatio="xMidYMid meet" aria-hidden="true"/>
<text xml:space="preserve" text-anchor="start" x="36.14" y="-31.5" font-family="Arial" font-size="10.00" fill="#172033"> </text>
<text xml:space="preserve" text-anchor="start" x="181.89" y="-39.1" font-family="Arial" font-weight="bold" font-size="12.00" fill="#172033">PM2 process manager</text>
<text xml:space="preserve" text-anchor="start" x="62.64" y="-29.95" font-family="Arial" font-size="9.00" fill="#172033">Starts and supervises approved server&#45;host and joined&#45;device processes with bounded r...</text>
<text xml:space="preserve" text-anchor="start" x="191.26" y="-21.9" font-family="Arial" font-size="8.00" fill="#172033">Server host and joined devices</text>
</a>
</g>
</g>
</g>
</svg>
