<?xml version="1.0" encoding="UTF-8" standalone="no"?>
<!-- Generated by graphviz version 14.1.2 (0)
 -->
<svg id="pocketlab-component-agent-command-executor-light" role="img" aria-labelledby="pocketlab-component-agent-command-executor-light-title pocketlab-component-agent-command-executor-light-desc" width="880.00" height="647.00" preserveAspectRatio="xMidYMid meet" focusable="false" viewBox="0.00 0.00 880.00 647.00" xmlns="http://www.w3.org/2000/svg" xmlns:xlink="http://www.w3.org/1999/xlink">
<title id="pocketlab-component-agent-command-executor-light-title">Device command executor connections</title>
<desc id="pocketlab-component-agent-command-executor-light-desc">Inputs, outputs, durable state, evidence, failure, and recovery relationships for Device command executor.</desc>
<metadata id="pocketlab-source-fingerprint">dff120d79d3affb19fbe858efc0b959c6c836c9f26a2a3a544f1e4bea56c0307</metadata>
<g id="graph0" class="graph" transform="scale(1 1) rotate(0) translate(14.4 632.25)">
<polygon fill="#ffffff" stroke="none" points="-14.4,14.4 -14.4,-632.25 866.04,-632.25 866.04,14.4 -14.4,14.4"/>
<text xml:space="preserve" text-anchor="middle" x="425.82" y="-594.85" font-family="Arial" font-size="20.00" fill="#172033">Device command executor connections</text>
<g id="clust1" class="cluster">
<title>cluster_managed&#45;device</title>
<path fill="#f8fafc" stroke="#94a3b8" stroke-dasharray="5,2" d="M503,-54.76C503,-54.76 733,-54.76 733,-54.76 739,-54.76 745,-60.76 745,-66.76 745,-66.76 745,-343.56 745,-343.56 745,-349.56 739,-355.56 733,-355.56 733,-355.56 503,-355.56 503,-355.56 497,-355.56 491,-349.56 491,-343.56 491,-343.56 491,-66.76 491,-66.76 491,-60.76 497,-54.76 503,-54.76"/>
<text xml:space="preserve" text-anchor="middle" x="618" y="-332.56" font-family="Arial" font-size="20.00" fill="#172033">Managed&#45;device boundary</text>
</g>
<g id="clust2" class="cluster">
<title>cluster_messaging&#45;execution</title>
<path fill="#f8fafc" stroke="#94a3b8" stroke-dasharray="5,2" d="M20,-8C20,-8 474,-8 474,-8 480,-8 486,-14 486,-20 486,-20 486,-566.6 486,-566.6 486,-572.6 480,-578.6 474,-578.6 474,-578.6 20,-578.6 20,-578.6 14,-578.6 8,-572.6 8,-566.6 8,-566.6 8,-20 8,-20 8,-14 14,-8 20,-8"/>
<text xml:space="preserve" text-anchor="middle" x="247" y="-555.6" font-family="Arial" font-size="20.00" fill="#172033">Messaging and execution boundary</text>
</g>
<!-- agent&#45;command&#45;executor&#45;&gt;node&#45;agent -->
<g id="edge3" class="edge">
<title>agent&#45;command&#45;executor&#45;&gt;node&#45;agent</title>
<g id="a_edge3"><a xlink:title="executes within (Python)">
<path fill="none" stroke="#475569" stroke-width="1.15" d="M613.48,-234.05C614.34,-208.42 615.41,-176.1 616.3,-149.46"/>
<polygon fill="#475569" stroke="#475569" stroke-width="1.15" points="618.82,-149.67 616.54,-142.39 613.78,-149.51 618.82,-149.67"/>
</a>
</g>
<text xml:space="preserve" text-anchor="middle" x="641.29" y="-208.19" font-family="Arial" font-size="8.00" fill="#475569">executes within</text>
</g>
<!-- agent&#45;command&#45;executor&#45;&gt;completion&#45;evidence -->
<g id="edge2" class="edge">
<title>agent&#45;command&#45;executor&#45;&gt;completion&#45;evidence</title>
<g id="a_edge2"><a xlink:title="records sanitized lifecycle (SQLite/NATS)">
<path fill="none" stroke="#7c3aed" stroke-width="1.15" stroke-dasharray="1,5" d="M521.31,-233.82C495.14,-220.91 465.57,-206.33 435.78,-191.63"/>
<polygon fill="#7c3aed" stroke="#7c3aed" stroke-width="1.15" points="436.92,-189.39 429.35,-188.46 434.69,-193.91 436.92,-189.39"/>
</a>
</g>
<text xml:space="preserve" text-anchor="middle" x="528.14" y="-208.19" font-family="Arial" font-size="8.00" fill="#7c3aed">records sanitized lifecycle</text>
</g>
<!-- agent&#45;command&#45;executor&#45;&gt;state_dependency_0 -->
<g id="edge4" class="edge">
<title>agent&#45;command&#45;executor&#45;&gt;state_dependency_0</title>
<path fill="none" stroke="#2563eb" stroke-width="1.15" stroke-dasharray="1,5" d="M732.28,-248.34C748.38,-239.99 763.33,-229.35 775,-215.79 796.81,-190.45 801.5,-150.86 801.96,-124.8"/>
<polygon fill="#2563eb" stroke="#2563eb" stroke-width="1.15" points="804.48,-124.81 801.96,-117.61 799.44,-124.81 804.48,-124.81"/>
<text xml:space="preserve" text-anchor="middle" x="789.43" y="-208.19" font-family="Arial" font-size="8.00" fill="#2563eb">state</text>
</g>
<!-- nats&#45;jetstream&#45;&gt;agent&#45;command&#45;executor -->
<g id="edge1" class="edge">
<title>nats&#45;jetstream&#45;&gt;agent&#45;command&#45;executor</title>
<g id="a_edge1"><a xlink:title="delivers device command (NATS)">
<path fill="none" stroke="#475569" stroke-width="1.15" d="M398.11,-402.27C428.4,-387.43 459.97,-371.39 489,-355.56 503.59,-347.61 518.88,-338.73 533.54,-329.95"/>
<polygon fill="#475569" stroke="#475569" stroke-width="1.15" points="534.78,-332.14 539.65,-326.27 532.18,-327.82 534.78,-332.14"/>
</a>
</g>
<text xml:space="preserve" text-anchor="middle" x="515.06" y="-365.71" font-family="Arial" font-size="8.00" fill="#475569">delivers device command</text>
</g>
<!-- agent&#45;command&#45;executor -->
<g id="node1" class="node">
<title>agent&#45;command&#45;executor</title>
<g id="a_node1"><a xlink:href="../../../../generated/production/architecture/components/agent-command-executor/" xlink:title="Device command executor. Executes approved device commands in the node agent and publishes truthful results." target="_top">
<polygon fill="#dcfce7" stroke="#172033" stroke-width="2.3" points="731.26,-324.31 492.74,-324.31 492.74,-320.31 488.74,-320.31 488.74,-316.31 492.74,-316.31 492.74,-242.79 488.74,-242.79 488.74,-238.79 492.74,-238.79 492.74,-234.79 731.26,-234.79 731.26,-324.31"/>
<polyline fill="none" stroke="#172033" stroke-width="2.3" points="492.74,-320.31 496.74,-320.31 496.74,-316.31 492.74,-316.31"/>
<polyline fill="none" stroke="#172033" stroke-width="2.3" points="492.74,-242.79 496.74,-242.79 496.74,-238.79 492.74,-238.79"/>
<polygon fill="#ffffff" stroke="none" points="503.38,-242.55 503.38,-316.55 555.38,-316.55 555.38,-242.55 503.38,-242.55"/>
<rect x="485.88" y="-296.05" width="36" height="36" rx="6" fill="#ffffff" stroke="#cbd5e1" stroke-width="1" aria-hidden="true"/>
<image href="../icons/agent.svg" x="488.88" y="-293.05" width="30" height="30" preserveAspectRatio="xMidYMid meet" aria-hidden="true"/>
<rect x="487.88" y="-260.05" width="12" height="12" rx="2" fill="#ffffff" stroke="#cbd5e1" stroke-width="0.7" aria-hidden="true"/>
<image href="../icons/android.svg" x="488.88" y="-259.05" width="10" height="10" preserveAspectRatio="xMidYMid meet" aria-hidden="true"/>
<rect x="500.88" y="-260.05" width="12" height="12" rx="2" fill="#ffffff" stroke="#cbd5e1" stroke-width="0.7" aria-hidden="true"/>
<image href="../icons/pm2.svg" x="501.88" y="-259.05" width="10" height="10" preserveAspectRatio="xMidYMid meet" aria-hidden="true"/>
<rect x="513.88" y="-260.05" width="12" height="12" rx="2" fill="#ffffff" stroke="#cbd5e1" stroke-width="0.7" aria-hidden="true"/>
<image href="../icons/python.svg" x="514.88" y="-259.05" width="10" height="10" preserveAspectRatio="xMidYMid meet" aria-hidden="true"/>
<text xml:space="preserve" text-anchor="start" x="527.88" y="-276.05" font-family="Arial" font-size="10.00" fill="#172033"> </text>
<text xml:space="preserve" text-anchor="start" x="589.5" y="-302.15" font-family="Arial" font-weight="bold" font-size="12.00" fill="#172033">Device command</text>
<text xml:space="preserve" text-anchor="start" x="613.88" y="-290.15" font-family="Arial" font-weight="bold" font-size="12.00" fill="#172033">executor</text>
<text xml:space="preserve" text-anchor="start" x="561.38" y="-281" font-family="Arial" font-size="9.00" fill="#172033">Executes approved device commands</text>
<text xml:space="preserve" text-anchor="start" x="573.38" y="-272" font-family="Arial" font-size="9.00" fill="#172033">in the node agent and publishes</text>
<text xml:space="preserve" text-anchor="start" x="609.38" y="-263" font-family="Arial" font-size="9.00" fill="#172033">truthful results.</text>
<text xml:space="preserve" text-anchor="start" x="618" y="-254.95" font-family="Arial" font-style="italic" font-size="8.00" fill="#172033">Node agent</text>
<text xml:space="preserve" text-anchor="start" x="626.25" y="-247.9" font-family="Arial" font-size="7.00" fill="#172033">Process</text>
</a>
</g>
</g>
<!-- node&#45;agent -->
<g id="node2" class="node">
<title>node&#45;agent</title>
<g id="a_node2"><a xlink:href="../../../../generated/production/architecture/components/node-agent/" xlink:title="Lite node agent. Connects to NATS, publishes heartbeat/telemetry/health, handles device commands, and reconnects after outages." target="_top">
<polygon fill="#dcfce7" stroke="#64748b" stroke-width="1.35" points="727.89,-140.28 508.11,-140.28 508.11,-136.28 504.11,-136.28 504.11,-132.28 508.11,-132.28 508.11,-62.76 504.11,-62.76 504.11,-58.76 508.11,-58.76 508.11,-54.76 727.89,-54.76 727.89,-140.28"/>
<polyline fill="none" stroke="#64748b" stroke-width="1.35" points="508.11,-136.28 512.11,-136.28 512.11,-132.28 508.11,-132.28"/>
<polyline fill="none" stroke="#64748b" stroke-width="1.35" points="508.11,-62.76 512.11,-62.76 512.11,-58.76 508.11,-58.76"/>
<polygon fill="#ffffff" stroke="none" points="518.75,-62.52 518.75,-132.52 570.75,-132.52 570.75,-62.52 518.75,-62.52"/>
<rect x="501.25" y="-114.02" width="36" height="36" rx="6" fill="#ffffff" stroke="#cbd5e1" stroke-width="1" aria-hidden="true"/>
<image href="../icons/agent.svg" x="504.25" y="-111.02" width="30" height="30" preserveAspectRatio="xMidYMid meet" aria-hidden="true"/>
<rect x="503.25" y="-78.02" width="12" height="12" rx="2" fill="#ffffff" stroke="#cbd5e1" stroke-width="0.7" aria-hidden="true"/>
<image href="../icons/python.svg" x="504.25" y="-77.02" width="10" height="10" preserveAspectRatio="xMidYMid meet" aria-hidden="true"/>
<text xml:space="preserve" text-anchor="start" x="543.25" y="-94.02" font-family="Arial" font-size="10.00" fill="#172033"> </text>
<text xml:space="preserve" text-anchor="start" x="600.75" y="-118.12" font-family="Arial" font-weight="bold" font-size="12.00" fill="#172033">Lite node agent</text>
<text xml:space="preserve" text-anchor="start" x="585.75" y="-108.97" font-family="Arial" font-size="9.00" fill="#172033">Connects to NATS, publishes</text>
<text xml:space="preserve" text-anchor="start" x="590.62" y="-99.97" font-family="Arial" font-size="9.00" fill="#172033">heartbeat/telemetry/health,</text>
<text xml:space="preserve" text-anchor="start" x="576.75" y="-90.97" font-family="Arial" font-size="9.00" fill="#172033">handles device commands, and...</text>
<text xml:space="preserve" text-anchor="start" x="607.88" y="-82.92" font-family="Arial" font-style="italic" font-size="8.00" fill="#172033">Server host or joined</text>
<text xml:space="preserve" text-anchor="start" x="633.75" y="-74.92" font-family="Arial" font-style="italic" font-size="8.00" fill="#172033">device</text>
<text xml:space="preserve" text-anchor="start" x="632.25" y="-67.87" font-family="Arial" font-size="7.00" fill="#172033">Process</text>
</a>
</g>
</g>
<!-- completion&#45;evidence -->
<g id="node3" class="node">
<title>completion&#45;evidence</title>
<g id="a_node3"><a xlink:href="../../../../generated/production/architecture/components/completion-evidence/" xlink:title="Completion and audit evidence. Records sanitized lifecycle and completion evidence for commands, devices, apps, security, recovery, and releases." target="_top">
<path fill="#fce7f3" stroke="#64748b" stroke-width="1.35" d="M473.74,-187.04C473.74,-187.04 117.96,-187.04 117.96,-187.04 111.96,-187.04 103.08,-181.77 100.21,-176.51 100.21,-176.51 14,-18.53 14,-18.53 11.13,-13.27 14.26,-8 20.26,-8 20.26,-8 376.04,-8 376.04,-8 382.04,-8 390.92,-13.27 393.79,-18.53 393.79,-18.53 480,-176.51 480,-176.51 482.87,-181.77 479.74,-187.04 473.74,-187.04"/>
<polygon fill="#ffffff" stroke="none" points="142.5,-60.52 142.5,-134.52 194.5,-134.52 194.5,-60.52 142.5,-60.52"/>
<rect x="125.00" y="-114.02" width="36" height="36" rx="6" fill="#ffffff" stroke="#cbd5e1" stroke-width="1" aria-hidden="true"/>
<image href="../icons/evidence.svg" x="128.00" y="-111.02" width="30" height="30" preserveAspectRatio="xMidYMid meet" aria-hidden="true"/>
<text xml:space="preserve" text-anchor="start" x="167" y="-94.02" font-family="Arial" font-size="10.00" fill="#172033"> </text>
<text xml:space="preserve" text-anchor="start" x="212.88" y="-120.12" font-family="Arial" font-weight="bold" font-size="12.00" fill="#172033">Completion and audit</text>
<text xml:space="preserve" text-anchor="start" x="248.12" y="-108.12" font-family="Arial" font-weight="bold" font-size="12.00" fill="#172033">evidence</text>
<text xml:space="preserve" text-anchor="start" x="210.62" y="-98.97" font-family="Arial" font-size="9.00" fill="#172033">Records sanitized lifecycle and</text>
<text xml:space="preserve" text-anchor="start" x="200.5" y="-89.97" font-family="Arial" font-size="9.00" fill="#172033">completion evidence for commands,</text>
<text xml:space="preserve" text-anchor="start" x="204.25" y="-80.97" font-family="Arial" font-size="9.00" fill="#172033">devices, apps, security, recovery,...</text>
<text xml:space="preserve" text-anchor="start" x="237.62" y="-72.92" font-family="Arial" font-style="italic" font-size="8.00" fill="#172033">Worker and FastAPI</text>
<text xml:space="preserve" text-anchor="start" x="265" y="-65.87" font-family="Arial" font-size="7.00" fill="#172033">Event</text>
</a>
</g>
</g>
<!-- nats&#45;jetstream -->
<g id="node4" class="node">
<title>nats&#45;jetstream</title>
<g id="a_node4"><a xlink:href="../../../../generated/production/architecture/components/nats-jetstream/" xlink:title="NATS / JetStream. Provides the command and event backbone with durable delivery; it is never contacted directly by the frontend." target="_top">
<path fill="#fce7f3" stroke="#64748b" stroke-width="1.35" d="M473.97,-547.35C473.97,-547.35 130.55,-547.35 130.55,-547.35 124.55,-547.35 115.43,-542.23 112.3,-537.1 112.3,-537.1 30.28,-402.56 30.28,-402.56 27.16,-397.43 30.03,-392.31 36.03,-392.31 36.03,-392.31 379.45,-392.31 379.45,-392.31 385.45,-392.31 394.57,-397.43 397.7,-402.56 397.7,-402.56 479.72,-537.1 479.72,-537.1 482.84,-542.23 479.97,-547.35 473.97,-547.35"/>
<polygon fill="#ffffff" stroke="none" points="154.25,-438.83 154.25,-500.83 206.25,-500.83 206.25,-438.83 154.25,-438.83"/>
<rect x="136.75" y="-486.33" width="36" height="36" rx="6" fill="#ffffff" stroke="#cbd5e1" stroke-width="1" aria-hidden="true"/>
<image href="../icons/nats.svg" x="139.75" y="-483.33" width="30" height="30" preserveAspectRatio="xMidYMid meet" aria-hidden="true"/>
<text xml:space="preserve" text-anchor="start" x="178.75" y="-466.33" font-family="Arial" font-size="10.00" fill="#172033"> </text>
<text xml:space="preserve" text-anchor="start" x="232.5" y="-486.43" font-family="Arial" font-weight="bold" font-size="12.00" fill="#172033">NATS / JetStream</text>
<text xml:space="preserve" text-anchor="start" x="213.75" y="-477.28" font-family="Arial" font-size="9.00" fill="#172033">Provides the command and event</text>
<text xml:space="preserve" text-anchor="start" x="213.75" y="-468.28" font-family="Arial" font-size="9.00" fill="#172033">backbone with durable delivery; it</text>
<text xml:space="preserve" text-anchor="start" x="212.25" y="-459.28" font-family="Arial" font-size="9.00" fill="#172033">is never contacted directly by the...</text>
<text xml:space="preserve" text-anchor="start" x="261.38" y="-451.23" font-family="Arial" font-style="italic" font-size="8.00" fill="#172033">Server host</text>
<text xml:space="preserve" text-anchor="start" x="273" y="-444.18" font-family="Arial" font-size="7.00" fill="#172033">Event</text>
</a>
</g>
</g>
<!-- state_dependency_0 -->
<g id="node5" class="node">
<title>state_dependency_0</title>
<g id="a_node5"><a xlink:title="Durable&#45;state dependency">
<polygon fill="#fef3c7" stroke="#64748b" points="845.64,-115.52 750.36,-115.52 750.36,-79.52 851.64,-79.52 851.64,-109.52 845.64,-115.52"/>
<polyline fill="none" stroke="#64748b" points="845.64,-115.52 845.64,-109.52"/>
<polyline fill="none" stroke="#64748b" points="851.64,-109.52 845.64,-109.52"/>
<text xml:space="preserve" text-anchor="middle" x="801" y="-94.02" font-family="Arial" font-size="10.00" fill="#172033">command_lifecycle</text>
</a>
</g>
</g>
</g>
</svg>
