<?xml version="1.0" encoding="UTF-8" standalone="no"?>
<!-- Generated by graphviz version 14.1.2 (0)
 -->
<svg id="pocketlab-component-api-read-surfaces-light" role="img" aria-labelledby="pocketlab-component-api-read-surfaces-light-title pocketlab-component-api-read-surfaces-light-desc" width="100%" height="auto" preserveAspectRatio="xMidYMid meet" focusable="false" viewBox="0.00 0.00 952.00 581.00" xmlns="http://www.w3.org/2000/svg" xmlns:xlink="http://www.w3.org/1999/xlink">
<title id="pocketlab-component-api-read-surfaces-light-title">Prepared read, health, readiness, diagnostics, and evidence APIs connections</title>
<desc id="pocketlab-component-api-read-surfaces-light-desc">Inputs, outputs, durable state, evidence, failure, and recovery relationships for Prepared read, health, readiness, diagnostics, and evidence APIs.</desc>
<metadata id="pocketlab-source-fingerprint">6bca359c2364b960f93d85260dd4151d574728ee08704f6c2a7055e15e766996</metadata>
<g id="graph0" class="graph" transform="scale(1 1) rotate(0) translate(14.4 566.73)">
<polygon fill="#ffffff" stroke="none" points="-14.4,14.4 -14.4,-566.73 937.4,-566.73 937.4,14.4 -14.4,14.4"/>
<text xml:space="preserve" text-anchor="middle" x="461.5" y="-529.33" font-family="Arial" font-size="20.00" fill="#172033">Prepared read, health, readiness, diagnostics, and evidence APIs connections</text>
<g id="clust1" class="cluster">
<title>cluster_browser</title>
<path fill="#f8fafc" stroke="#94a3b8" stroke-dasharray="5,2" d="M113,-8C113,-8 311,-8 311,-8 317,-8 323,-14 323,-20 323,-20 323,-116.77 323,-116.77 323,-122.77 317,-128.77 311,-128.77 311,-128.77 113,-128.77 113,-128.77 107,-128.77 101,-122.77 101,-116.77 101,-116.77 101,-20 101,-20 101,-14 107,-8 113,-8"/>
<text xml:space="preserve" text-anchor="middle" x="212" y="-105.77" font-family="Arial" font-size="20.00" fill="#172033">Browser trust boundary</text>
</g>
<g id="clust2" class="cluster">
<title>cluster_control&#45;api</title>
<path fill="#f8fafc" stroke="#94a3b8" stroke-dasharray="5,2" d="M20,-165.52C20,-165.52 663,-165.52 663,-165.52 669,-165.52 675,-171.52 675,-177.52 675,-177.52 675,-501.08 675,-501.08 675,-507.08 669,-513.08 663,-513.08 663,-513.08 20,-513.08 20,-513.08 14,-513.08 8,-507.08 8,-501.08 8,-501.08 8,-177.52 8,-177.52 8,-171.52 14,-165.52 20,-165.52"/>
<text xml:space="preserve" text-anchor="middle" x="341.5" y="-490.08" font-family="Arial" font-size="20.00" fill="#172033">Control API boundary</text>
</g>
<g id="clust3" class="cluster">
<title>cluster_durable&#45;state</title>
<path fill="#f8fafc" stroke="#94a3b8" stroke-dasharray="5,2" d="M702,-330.76C702,-330.76 903,-330.76 903,-330.76 909,-330.76 915,-336.76 915,-342.76 915,-342.76 915,-473.1 915,-473.1 915,-479.1 909,-485.1 903,-485.1 903,-485.1 702,-485.1 702,-485.1 696,-485.1 690,-479.1 690,-473.1 690,-473.1 690,-342.76 690,-342.76 690,-336.76 696,-330.76 702,-330.76"/>
<text xml:space="preserve" text-anchor="middle" x="802.5" y="-462.1" font-family="Arial" font-size="20.00" fill="#172033">Durable&#45;state boundary</text>
</g>
<!-- api&#45;read&#45;surfaces&#45;&gt;frontend&#45;state -->
<g id="edge2" class="edge">
<title>api&#45;read&#45;surfaces&#45;&gt;frontend&#45;state</title>
<g id="a_edge2"><a xlink:title="safe summary (HTTPS)">
<path fill="none" stroke="#2563eb" stroke-width="1.15" d="M389.35,-164.57C370.68,-152.92 350.58,-140.38 332,-128.77 318.51,-120.35 304.18,-111.39 290.28,-102.7"/>
<polygon fill="#2563eb" stroke="#2563eb" stroke-width="1.15" points="291.98,-100.79 284.54,-99.11 289.31,-105.07 291.98,-100.79"/>
</a>
</g>
<text xml:space="preserve" text-anchor="middle" x="385.39" y="-138.92" font-family="Arial" font-size="8.00" fill="#2563eb">safe summary</text>
</g>
<!-- api&#45;read&#45;surfaces&#45;&gt;state_dependency_0 -->
<g id="edge5" class="edge">
<title>api&#45;read&#45;surfaces&#45;&gt;state_dependency_0</title>
<path fill="none" stroke="#2563eb" stroke-width="1.15" stroke-dasharray="1,5" d="M442.37,-164.71C430.75,-136.89 416.2,-102.1 406.53,-78.96"/>
<polygon fill="#2563eb" stroke="#2563eb" stroke-width="1.15" points="408.98,-78.28 403.88,-72.61 404.33,-80.23 408.98,-78.28"/>
<text xml:space="preserve" text-anchor="middle" x="442.95" y="-138.92" font-family="Arial" font-size="8.00" fill="#2563eb">state</text>
</g>
<!-- api&#45;read&#45;surfaces&#45;&gt;state_dependency_1 -->
<g id="edge6" class="edge">
<title>api&#45;read&#45;surfaces&#45;&gt;state_dependency_1</title>
<path fill="none" stroke="#2563eb" stroke-width="1.15" stroke-dasharray="1,5" d="M479.63,-164.71C491.25,-136.89 505.8,-102.1 515.47,-78.96"/>
<polygon fill="#2563eb" stroke="#2563eb" stroke-width="1.15" points="517.67,-80.23 518.12,-72.61 513.02,-78.28 517.67,-80.23"/>
<text xml:space="preserve" text-anchor="middle" x="498.23" y="-138.92" font-family="Arial" font-size="8.00" fill="#2563eb">state</text>
</g>
<!-- api&#45;read&#45;surfaces&#45;&gt;additional_dependencies -->
<g id="edge7" class="edge">
<title>api&#45;read&#45;surfaces&#45;&gt;additional_dependencies</title>
<path fill="none" stroke="#475569" stroke-width="1.15" stroke-dasharray="1,5" d="M540.64,-164.46C558.35,-153.47 576.7,-141.26 593,-128.77 616.27,-110.95 640.32,-87.21 655.68,-71.25"/>
</g>
<!-- lite&#45;api&#45;&gt;api&#45;read&#45;surfaces -->
<g id="edge1" class="edge">
<title>lite&#45;api&#45;&gt;api&#45;read&#45;surfaces</title>
<g id="a_edge1"><a xlink:title="serves safe reads (Python)">
<path fill="none" stroke="#2563eb" stroke-width="1.15" d="M162.33,-352.92C183.88,-336.19 210.37,-317.16 236,-302.79 268.78,-284.42 306,-267.75 340.59,-253.82"/>
<polygon fill="#2563eb" stroke="#2563eb" stroke-width="1.15" points="341.49,-256.18 347.24,-251.17 339.62,-251.49 341.49,-256.18"/>
</a>
</g>
<text xml:space="preserve" text-anchor="middle" x="320.94" y="-276.19" font-family="Arial" font-size="8.00" fill="#2563eb">serves safe reads</text>
</g>
<!-- remote&#45;readiness&#45;&gt;api&#45;read&#45;surfaces -->
<g id="edge3" class="edge">
<title>remote&#45;readiness&#45;&gt;api&#45;read&#45;surfaces</title>
<g id="a_edge3"><a xlink:title="readiness summary (HTTP)">
<path fill="none" stroke="#2563eb" stroke-width="1.15" d="M461,-302.09C461,-289.26 461,-276.42 461,-264.59"/>
<polygon fill="#2563eb" stroke="#2563eb" stroke-width="1.15" points="463.52,-264.71 461,-257.51 458.48,-264.71 463.52,-264.71"/>
</a>
</g>
<text xml:space="preserve" text-anchor="middle" x="495.88" y="-276.19" font-family="Arial" font-size="8.00" fill="#2563eb">readiness summary</text>
</g>
<!-- prepared&#45;state&#45;&gt;api&#45;read&#45;surfaces -->
<g id="edge4" class="edge">
<title>prepared&#45;state&#45;&gt;api&#45;read&#45;surfaces</title>
<g id="a_edge4"><a xlink:title="prepared read (SQLite)">
<path fill="none" stroke="#2563eb" stroke-width="1.15" d="M726.36,-332.1C711.38,-321.71 695.5,-311.46 680,-302.79 649.08,-285.5 614.23,-269.51 581.58,-255.88"/>
<polygon fill="#2563eb" stroke="#2563eb" stroke-width="1.15" points="582.55,-253.56 574.94,-253.14 580.63,-258.22 582.55,-253.56"/>
</a>
</g>
<text xml:space="preserve" text-anchor="middle" x="665.6" y="-276.19" font-family="Arial" font-size="8.00" fill="#2563eb">prepared read</text>
</g>
<!-- frontend&#45;state -->
<g id="node1" class="node">
<title>frontend&#45;state</title>
<g id="a_node1"><a xlink:href="../../../../generated/production/architecture/components/frontend-state/" xlink:title="Frontend state ownership. Combines service worker, TanStack Query, Dexie safe snapshots, Zustand UI&#45;only state, XState guided flows, API client, error boundaries, and generated fixtures without owning backend truth." target="_top">
<path fill="#e0f2fe" stroke="#64748b" stroke-width="1.35" d="M309.01,-97.52C309.01,-97.52 114.99,-97.52 114.99,-97.52 108.99,-97.52 102.98,-91.52 102.98,-85.52 102.98,-85.52 102.98,-20 102.98,-20 102.98,-14 108.98,-8 114.98,-8 114.98,-8 309.01,-8 309.01,-8 315.01,-8 321.01,-14 321.01,-20 321.01,-20 321.01,-85.52 321.01,-85.52 321.01,-91.52 315.01,-97.52 309.01,-97.52"/>
<image href="../icons/infra-pwa.svg" x="102.12" y="-64.76" width="28" height="28" preserveAspectRatio="xMidYMid meet" aria-hidden="true"/>
<text xml:space="preserve" text-anchor="start" x="133.12" y="-49.26" font-family="Arial" font-size="10.00" fill="#172033"> </text>
<text xml:space="preserve" text-anchor="start" x="192.38" y="-75.36" font-family="Arial" font-weight="bold" font-size="12.00" fill="#172033">Frontend state</text>
<text xml:space="preserve" text-anchor="start" x="204" y="-63.36" font-family="Arial" font-weight="bold" font-size="12.00" fill="#172033">ownership</text>
<text xml:space="preserve" text-anchor="start" x="161.62" y="-54.21" font-family="Arial" font-size="9.00" fill="#172033">Combines service worker, TanStack</text>
<text xml:space="preserve" text-anchor="start" x="174.75" y="-45.21" font-family="Arial" font-size="9.00" fill="#172033">Query, Dexie safe snapshots,</text>
<text xml:space="preserve" text-anchor="start" x="171.75" y="-36.21" font-family="Arial" font-size="9.00" fill="#172033">Zustand UI&#45;only state, XState...</text>
<text xml:space="preserve" text-anchor="start" x="191.25" y="-28.16" font-family="Arial" font-style="italic" font-size="8.00" fill="#172033">Browser / installed PWA</text>
<text xml:space="preserve" text-anchor="start" x="230.62" y="-21.11" font-family="Arial" font-size="7.00" fill="#172033">Ui</text>
</a>
</g>
</g>
<!-- api&#45;read&#45;surfaces -->
<g id="node2" class="node">
<title>api&#45;read&#45;surfaces</title>
<g id="a_node2"><a xlink:href="../../../../generated/production/architecture/components/api-read-surfaces/" xlink:title="Prepared read, health, readiness, diagnostics, and evidence APIs. Serves side&#45;effect&#45;free prepared projections, health/readiness, compact diagnostics, and sanitized evidence lookups." target="_top">
<path fill="#e0e7ff" stroke="#172033" stroke-width="2.3" d="M560.26,-255.04C560.26,-255.04 361.74,-255.04 361.74,-255.04 355.74,-255.04 349.74,-249.04 349.74,-243.04 349.74,-243.04 349.74,-177.52 349.74,-177.52 349.74,-171.52 355.74,-165.52 361.74,-165.52 361.74,-165.52 560.26,-165.52 560.26,-165.52 566.26,-165.52 572.26,-171.52 572.26,-177.52 572.26,-177.52 572.26,-243.04 572.26,-243.04 572.26,-249.04 566.26,-255.04 560.26,-255.04"/>
<image href="../icons/infra-fastapi.svg" x="348.88" y="-222.28" width="28" height="28" preserveAspectRatio="xMidYMid meet" aria-hidden="true"/>
<text xml:space="preserve" text-anchor="start" x="379.88" y="-206.78" font-family="Arial" font-size="10.00" fill="#172033"> </text>
<text xml:space="preserve" text-anchor="start" x="420.38" y="-232.88" font-family="Arial" font-weight="bold" font-size="12.00" fill="#172033">Prepared read, health,</text>
<text xml:space="preserve" text-anchor="start" x="448.88" y="-220.88" font-family="Arial" font-weight="bold" font-size="12.00" fill="#172033">readiness,...</text>
<text xml:space="preserve" text-anchor="start" x="417.38" y="-211.73" font-family="Arial" font-size="9.00" fill="#172033">Serves side&#45;effect&#45;free prepared</text>
<text xml:space="preserve" text-anchor="start" x="423" y="-202.73" font-family="Arial" font-size="9.00" fill="#172033">projections, health/readiness,</text>
<text xml:space="preserve" text-anchor="start" x="408.38" y="-193.73" font-family="Arial" font-size="9.00" fill="#172033">compact diagnostics, and sanitized...</text>
<text xml:space="preserve" text-anchor="start" x="453.75" y="-185.68" font-family="Arial" font-style="italic" font-size="8.00" fill="#172033">FastAPI process</text>
<text xml:space="preserve" text-anchor="start" x="471.38" y="-178.63" font-family="Arial" font-size="7.00" fill="#172033">Service</text>
</a>
</g>
</g>
<!-- lite&#45;api -->
<g id="node3" class="node">
<title>lite&#45;api</title>
<g id="a_node3"><a xlink:href="../../../../generated/production/architecture/components/lite-api/" xlink:title="FastAPI /api/lite/*. Validates requests, owns safe read APIs, admits commands, and never delegates browser execution directly to NATS or shell." target="_top">
<path fill="#e0e7ff" stroke="#64748b" stroke-width="1.35" d="M212.26,-431.07C212.26,-431.07 19.74,-431.07 19.74,-431.07 13.74,-431.07 7.73,-425.07 7.73,-419.07 7.73,-419.07 7.73,-365.55 7.73,-365.55 7.73,-359.55 13.73,-353.55 19.73,-353.55 19.73,-353.55 212.26,-353.55 212.26,-353.55 218.26,-353.55 224.26,-359.55 224.26,-365.55 224.26,-365.55 224.26,-419.07 224.26,-419.07 224.26,-425.07 218.26,-431.07 212.26,-431.07"/>
<image href="../icons/infra-fastapi.svg" x="6.88" y="-404.31" width="28" height="28" preserveAspectRatio="xMidYMid meet" aria-hidden="true"/>
<text xml:space="preserve" text-anchor="start" x="37.88" y="-388.81" font-family="Arial" font-size="10.00" fill="#172033"> </text>
<text xml:space="preserve" text-anchor="start" x="90.38" y="-408.91" font-family="Arial" font-weight="bold" font-size="12.00" fill="#172033">FastAPI /api/lite/*</text>
<text xml:space="preserve" text-anchor="start" x="67.12" y="-399.76" font-family="Arial" font-size="9.00" fill="#172033">Validates requests, owns safe read</text>
<text xml:space="preserve" text-anchor="start" x="66.38" y="-390.76" font-family="Arial" font-size="9.00" fill="#172033">APIs, admits commands, and never</text>
<text xml:space="preserve" text-anchor="start" x="75.75" y="-381.76" font-family="Arial" font-size="9.00" fill="#172033">delegates browser execution...</text>
<text xml:space="preserve" text-anchor="start" x="117.38" y="-373.71" font-family="Arial" font-style="italic" font-size="8.00" fill="#172033">Server host</text>
<text xml:space="preserve" text-anchor="start" x="126.38" y="-366.66" font-family="Arial" font-size="7.00" fill="#172033">Service</text>
</a>
</g>
</g>
<!-- remote&#45;readiness -->
<g id="node4" class="node">
<title>remote&#45;readiness</title>
<g id="a_node4"><a xlink:href="../../../../generated/production/architecture/components/remote-readiness/" xlink:title="Remote&#45;access readiness checks. Combines tailscaled state, Tailnet IPv4, NATS listener reachability, agent/supervisor status, and safe guidance." target="_top">
<path fill="#fef2f2" stroke="#64748b" stroke-width="1.35" d="M449.93,-477.2C449.93,-477.2 257.79,-396.94 257.79,-396.94 252.26,-394.62 252.26,-390 257.79,-387.68 257.79,-387.68 449.93,-307.42 449.93,-307.42 455.46,-305.1 466.54,-305.1 472.07,-307.42 472.07,-307.42 664.21,-387.68 664.21,-387.68 669.74,-390 669.74,-394.62 664.21,-396.94 664.21,-396.94 472.07,-477.2 472.07,-477.2 466.54,-479.52 455.46,-479.52 449.93,-477.2"/>
<image href="../icons/infra-decision.svg" x="353.00" y="-404.31" width="28" height="28" preserveAspectRatio="xMidYMid meet" aria-hidden="true"/>
<text xml:space="preserve" text-anchor="start" x="384" y="-388.81" font-family="Arial" font-size="10.00" fill="#172033"> </text>
<text xml:space="preserve" text-anchor="start" x="438.75" y="-414.91" font-family="Arial" font-weight="bold" font-size="12.00" fill="#172033">Remote&#45;access</text>
<text xml:space="preserve" text-anchor="start" x="432.75" y="-402.91" font-family="Arial" font-weight="bold" font-size="12.00" fill="#172033">readiness checks</text>
<text xml:space="preserve" text-anchor="start" x="414.75" y="-393.76" font-family="Arial" font-size="9.00" fill="#172033">Combines tailscaled state, Tailnet</text>
<text xml:space="preserve" text-anchor="start" x="418.5" y="-384.76" font-family="Arial" font-size="9.00" fill="#172033">IPv4, NATS listener reachability,</text>
<text xml:space="preserve" text-anchor="start" x="412.5" y="-375.76" font-family="Arial" font-size="9.00" fill="#172033">agent/supervisor status, and safe...</text>
<text xml:space="preserve" text-anchor="start" x="445.12" y="-367.71" font-family="Arial" font-style="italic" font-size="8.00" fill="#172033">FastAPI read surface</text>
<text xml:space="preserve" text-anchor="start" x="469.5" y="-360.66" font-family="Arial" font-size="7.00" fill="#172033">Decision</text>
</a>
</g>
</g>
<!-- prepared&#45;state -->
<g id="node5" class="node">
<title>prepared&#45;state</title>
<g id="a_node5"><a xlink:href="../../../../generated/production/architecture/components/prepared-state/" xlink:title="Audit index, projection refresh, prepared projections, and domain revisions. Indexes audit evidence and tracks dirty signals, generations, committed projections, current&#45;state summaries, and semantic revisions." target="_top">
<path fill="#fef3c7" stroke="#64748b" stroke-width="1.35" d="M909.01,-442.66C909.01,-448.84 861.5,-453.85 803,-453.85 744.5,-453.85 696.99,-448.84 696.99,-442.66 696.99,-442.66 696.99,-341.95 696.99,-341.95 696.99,-335.78 744.5,-330.76 803,-330.76 861.5,-330.76 909.01,-335.78 909.01,-341.95 909.01,-341.95 909.01,-442.66 909.01,-442.66"/>
<path fill="none" stroke="#64748b" stroke-width="1.35" d="M909.01,-442.66C909.01,-436.49 861.5,-431.47 803,-431.47 744.5,-431.47 696.99,-436.49 696.99,-442.66"/>
<image href="../icons/infra-sqlite.svg" x="696.12" y="-404.31" width="28" height="28" preserveAspectRatio="xMidYMid meet" aria-hidden="true"/>
<text xml:space="preserve" text-anchor="start" x="727.12" y="-388.81" font-family="Arial" font-size="10.00" fill="#172033"> </text>
<text xml:space="preserve" text-anchor="start" x="790.88" y="-414.91" font-family="Arial" font-weight="bold" font-size="12.00" fill="#172033">Audit index,</text>
<text xml:space="preserve" text-anchor="start" x="768.38" y="-402.91" font-family="Arial" font-weight="bold" font-size="12.00" fill="#172033">projection refresh,...</text>
<text xml:space="preserve" text-anchor="start" x="755.62" y="-393.76" font-family="Arial" font-size="9.00" fill="#172033">Indexes audit evidence and tracks</text>
<text xml:space="preserve" text-anchor="start" x="772.88" y="-384.76" font-family="Arial" font-size="9.00" fill="#172033">dirty signals, generations,</text>
<text xml:space="preserve" text-anchor="start" x="775.88" y="-375.76" font-family="Arial" font-size="9.00" fill="#172033">committed projections,...</text>
<text xml:space="preserve" text-anchor="start" x="813" y="-367.71" font-family="Arial" font-style="italic" font-size="8.00" fill="#172033">SQLite</text>
<text xml:space="preserve" text-anchor="start" x="810" y="-360.66" font-family="Arial" font-size="7.00" fill="#172033">Database</text>
</a>
</g>
</g>
<!-- state_dependency_0 -->
<g id="node6" class="node">
<title>state_dependency_0</title>
<g id="a_node6"><a xlink:title="Durable&#45;state dependency">
<polygon fill="#fef3c7" stroke="#64748b" points="442.51,-70.76 343.49,-70.76 343.49,-34.76 448.51,-34.76 448.51,-64.76 442.51,-70.76"/>
<polyline fill="none" stroke="#64748b" points="442.51,-70.76 442.51,-64.76"/>
<polyline fill="none" stroke="#64748b" points="448.51,-64.76 442.51,-64.76"/>
<text xml:space="preserve" text-anchor="middle" x="396" y="-49.26" font-family="Arial" font-size="10.00" fill="#172033">prepared projections</text>
</a>
</g>
</g>
<!-- state_dependency_1 -->
<g id="node7" class="node">
<title>state_dependency_1</title>
<g id="a_node7"><a xlink:title="Durable&#45;state dependency">
<polygon fill="#fef3c7" stroke="#64748b" points="575.51,-70.76 470.49,-70.76 470.49,-34.76 581.51,-34.76 581.51,-64.76 575.51,-70.76"/>
<polyline fill="none" stroke="#64748b" points="575.51,-70.76 575.51,-64.76"/>
<polyline fill="none" stroke="#64748b" points="581.51,-64.76 575.51,-64.76"/>
<text xml:space="preserve" text-anchor="middle" x="526" y="-49.26" font-family="Arial" font-size="10.00" fill="#172033">audit_evidence_index</text>
</a>
</g>
</g>
<!-- additional_dependencies -->
<g id="node8" class="node">
<title>additional_dependencies</title>
<g id="a_node8"><a xlink:title="Additional dependencies (1)">
<polygon fill="#f8fafc" stroke="#64748b" stroke-dasharray="5,2" points="734.64,-70.76 603.36,-70.76 603.36,-34.76 740.64,-34.76 740.64,-64.76 734.64,-70.76"/>
<polyline fill="none" stroke="#64748b" stroke-dasharray="5,2" points="734.64,-70.76 734.64,-64.76"/>
<polyline fill="none" stroke="#64748b" stroke-dasharray="5,2" points="740.64,-64.76 734.64,-64.76"/>
<text xml:space="preserve" text-anchor="middle" x="672" y="-49.26" font-family="Arial" font-size="10.00" fill="#172033">Additional dependencies (1)</text>
</a>
</g>
</g>
</g>
</svg>
