<?xml version="1.0" encoding="UTF-8" standalone="no"?>
<!-- Generated by graphviz version 14.1.2 (0)
 -->
<svg id="pocketlab-component-app-recovery-update-light" role="img" aria-labelledby="pocketlab-component-app-recovery-update-light-title pocketlab-component-app-recovery-update-light-desc" width="595.00" height="532.00" preserveAspectRatio="xMidYMid meet" focusable="false" viewBox="0.00 0.00 595.00 532.00" xmlns="http://www.w3.org/2000/svg" xmlns:xlink="http://www.w3.org/1999/xlink">
<title id="pocketlab-component-app-recovery-update-light-title">App backup, restore preview, and update lifecycle connections</title>
<desc id="pocketlab-component-app-recovery-update-light-desc">Inputs, outputs, durable state, evidence, failure, and recovery relationships for App backup, restore preview, and update lifecycle.</desc>
<metadata id="pocketlab-source-fingerprint">c17382385656351785a204ea587eccc343bb08ca3a34c19d5d2f37e81200b2ae</metadata>
<g id="graph0" class="graph" transform="scale(1 1) rotate(0) translate(14.4 517.78)">
<polygon fill="#ffffff" stroke="none" points="-14.4,14.4 -14.4,-517.78 580.9,-517.78 580.9,14.4 -14.4,14.4"/>
<text xml:space="preserve" text-anchor="middle" x="283.25" y="-480.38" font-family="Arial" font-size="20.00" fill="#172033">App backup, restore preview, and update lifecycle connections</text>
<g id="clust1" class="cluster">
<title>cluster_durable&#45;state</title>
<path fill="#f8fafc" stroke="#94a3b8" stroke-dasharray="5,2" d="M52.81,-8C52.81,-8 253.81,-8 253.81,-8 259.81,-8 265.81,-14 265.81,-20 265.81,-20 265.81,-161.34 265.81,-161.34 265.81,-167.34 259.81,-173.34 253.81,-173.34 253.81,-173.34 52.81,-173.34 52.81,-173.34 46.81,-173.34 40.81,-167.34 40.81,-161.34 40.81,-161.34 40.81,-20 40.81,-20 40.81,-14 46.81,-8 52.81,-8"/>
<text xml:space="preserve" text-anchor="middle" x="153.31" y="-150.34" font-family="Arial" font-size="20.00" fill="#172033">Durable&#45;state boundary</text>
</g>
<g id="clust2" class="cluster">
<title>cluster_messaging&#45;execution</title>
<path fill="#f8fafc" stroke="#94a3b8" stroke-dasharray="5,2" d="M191.81,-210.09C191.81,-210.09 499.81,-210.09 499.81,-210.09 505.81,-210.09 511.81,-216.09 511.81,-222.09 511.81,-222.09 511.81,-452.13 511.81,-452.13 511.81,-458.13 505.81,-464.13 499.81,-464.13 499.81,-464.13 191.81,-464.13 191.81,-464.13 185.81,-464.13 179.81,-458.13 179.81,-452.13 179.81,-452.13 179.81,-222.09 179.81,-222.09 179.81,-216.09 185.81,-210.09 191.81,-210.09"/>
<text xml:space="preserve" text-anchor="middle" x="345.81" y="-441.13" font-family="Arial" font-size="20.00" fill="#172033">Messaging and execution boundary</text>
</g>
<!-- app&#45;lifecycle&#45;worker&#45;&gt;app&#45;recovery&#45;update -->
<g id="edge2" class="edge">
<title>app&#45;lifecycle&#45;worker&#45;&gt;app&#45;recovery&#45;update</title>
<g id="a_edge2"><a xlink:title="runs backup/update paths (Python)">
<path fill="none" stroke="#475569" stroke-width="1.15" d="M345.81,-354.93C345.81,-343.18 345.81,-329.98 345.81,-317.24"/>
<polygon fill="#475569" stroke="#475569" stroke-width="1.15" points="348.33,-317.46 345.81,-310.26 343.29,-317.46 348.33,-317.46"/>
</a>
</g>
<text xml:space="preserve" text-anchor="middle" x="391.93" y="-328.76" font-family="Arial" font-size="8.00" fill="#475569">runs backup/update paths</text>
</g>
<!-- app&#45;recovery&#45;update&#45;&gt;recovery&#45;state -->
<g id="edge1" class="edge">
<title>app&#45;recovery&#45;update&#45;&gt;recovery&#45;state</title>
<g id="a_edge1"><a xlink:title="stores manifests/operations (SQLite)">
<path fill="none" stroke="#2563eb" stroke-width="1.15" d="M265.27,-209.1C257.58,-203.37 250.12,-197.32 243.31,-191.09 229.64,-178.6 216.43,-163.9 204.52,-149.26"/>
<polygon fill="#2563eb" stroke="#2563eb" stroke-width="1.15" points="206.69,-147.95 200.22,-143.91 202.76,-151.1 206.69,-147.95"/>
</a>
</g>
<text xml:space="preserve" text-anchor="middle" x="292.06" y="-183.49" font-family="Arial" font-size="8.00" fill="#2563eb">stores manifests/operations</text>
</g>
<!-- app&#45;recovery&#45;update&#45;&gt;state_dependency_0 -->
<g id="edge3" class="edge">
<title>app&#45;recovery&#45;update&#45;&gt;state_dependency_0</title>
<path fill="none" stroke="#2563eb" stroke-width="1.15" stroke-dasharray="1,5" d="M345.81,-209.13C345.81,-174.73 345.81,-129.98 345.81,-102.14"/>
<polygon fill="#2563eb" stroke="#2563eb" stroke-width="1.15" points="348.33,-102.32 345.81,-95.12 343.29,-102.32 348.33,-102.32"/>
<text xml:space="preserve" text-anchor="middle" x="354.43" y="-183.49" font-family="Arial" font-size="8.00" fill="#2563eb">state</text>
</g>
<!-- app&#45;recovery&#45;update&#45;&gt;state_dependency_1 -->
<g id="edge4" class="edge">
<title>app&#45;recovery&#45;update&#45;&gt;state_dependency_1</title>
<path fill="none" stroke="#2563eb" stroke-width="1.15" stroke-dasharray="1,5" d="M388.47,-209.03C398.05,-197.53 407.99,-185.17 416.81,-173.34 434.61,-149.44 453.14,-120.8 465.64,-100.8"/>
<polygon fill="#2563eb" stroke="#2563eb" stroke-width="1.15" points="467.71,-102.25 469.37,-94.81 463.43,-99.59 467.71,-102.25"/>
<text xml:space="preserve" text-anchor="middle" x="418.19" y="-183.49" font-family="Arial" font-size="8.00" fill="#2563eb">state</text>
</g>
<!-- recovery&#45;state -->
<g id="node1" class="node">
<title>recovery&#45;state</title>
<g id="a_node1"><a xlink:href="../../../../generated/production/architecture/components/recovery-state/" xlink:title="Backup, restore, and checkpoint state. Stores backup manifests, recovery operations, current state, database backups/restores, and restore checkpoints." target="_top">
<path fill="#fef3c7" stroke="#64748b" stroke-width="1.35" d="M264.19,-129.9C264.19,-136.63 214.27,-142.09 152.81,-142.09 91.34,-142.09 41.42,-136.63 41.42,-129.9 41.42,-129.9 41.42,-20.19 41.42,-20.19 41.42,-13.46 91.34,-8 152.81,-8 214.27,-8 264.19,-13.46 264.19,-20.19 264.19,-20.19 264.19,-129.9 264.19,-129.9"/>
<path fill="none" stroke="#64748b" stroke-width="1.35" d="M264.19,-129.9C264.19,-123.17 214.27,-117.71 152.81,-117.71 91.34,-117.71 41.42,-123.17 41.42,-129.9"/>
<polygon fill="#ffffff" stroke="none" points="52.06,-34.05 52.06,-116.05 104.06,-116.05 104.06,-34.05 52.06,-34.05"/>
<rect x="34.56" y="-91.55" width="36" height="36" rx="6" fill="#ffffff" stroke="#cbd5e1" stroke-width="1" aria-hidden="true"/>
<image href="../icons/durable-state.svg" x="37.56" y="-88.55" width="30" height="30" preserveAspectRatio="xMidYMid meet" aria-hidden="true"/>
<text xml:space="preserve" text-anchor="start" x="76.56" y="-71.55" font-family="Arial" font-size="10.00" fill="#172033"> </text>
<text xml:space="preserve" text-anchor="start" x="120.56" y="-101.64" font-family="Arial" font-weight="bold" font-size="12.00" fill="#172033">Backup, restore, and</text>
<text xml:space="preserve" text-anchor="start" x="132.56" y="-89.64" font-family="Arial" font-weight="bold" font-size="12.00" fill="#172033">checkpoint state</text>
<text xml:space="preserve" text-anchor="start" x="110.06" y="-80.49" font-family="Arial" font-size="9.00" fill="#172033">Stores backup manifests, recovery</text>
<text xml:space="preserve" text-anchor="start" x="129.56" y="-71.49" font-family="Arial" font-size="9.00" fill="#172033">operations, current state,</text>
<text xml:space="preserve" text-anchor="start" x="111.18" y="-62.49" font-family="Arial" font-size="9.00" fill="#172033">database backups/restores, and...</text>
<text xml:space="preserve" text-anchor="start" x="159.93" y="-54.44" font-family="Arial" font-style="italic" font-size="8.00" fill="#172033">SQLite and</text>
<text xml:space="preserve" text-anchor="start" x="130.68" y="-46.44" font-family="Arial" font-style="italic" font-size="8.00" fill="#172033">repository&#45;owned manifests</text>
<text xml:space="preserve" text-anchor="start" x="164.81" y="-39.39" font-family="Arial" font-size="7.00" fill="#172033">Database</text>
</a>
</g>
</g>
<!-- app&#45;lifecycle&#45;worker -->
<g id="node2" class="node">
<title>app&#45;lifecycle&#45;worker</title>
<g id="a_node2"><a xlink:href="../../../../generated/production/architecture/components/app-lifecycle-worker/" xlink:title="App lifecycle worker. Owns install, repair, media import, backup, restore preview, update readiness/apply, and removal paths only where implemented and safe." target="_top">
<polygon fill="#dcfce7" stroke="#64748b" stroke-width="1.35" points="451.94,-432.88 239.67,-432.88 239.67,-428.88 235.67,-428.88 235.67,-424.88 239.67,-424.88 239.67,-363.36 235.67,-363.36 235.67,-359.36 239.67,-359.36 239.67,-355.36 451.94,-355.36 451.94,-432.88"/>
<polyline fill="none" stroke="#64748b" stroke-width="1.35" points="239.67,-428.88 243.67,-428.88 243.67,-424.88 239.67,-424.88"/>
<polyline fill="none" stroke="#64748b" stroke-width="1.35" points="239.67,-363.36 243.67,-363.36 243.67,-359.36 239.67,-359.36"/>
<polygon fill="#ffffff" stroke="none" points="250.31,-363.12 250.31,-425.12 302.31,-425.12 302.31,-363.12 250.31,-363.12"/>
<rect x="232.81" y="-410.62" width="36" height="36" rx="6" fill="#ffffff" stroke="#cbd5e1" stroke-width="1" aria-hidden="true"/>
<image href="../icons/worker.svg" x="235.81" y="-407.62" width="30" height="30" preserveAspectRatio="xMidYMid meet" aria-hidden="true"/>
<text xml:space="preserve" text-anchor="start" x="274.81" y="-390.62" font-family="Arial" font-size="10.00" fill="#172033"> </text>
<text xml:space="preserve" text-anchor="start" x="315.06" y="-410.72" font-family="Arial" font-weight="bold" font-size="12.00" fill="#172033">App lifecycle worker</text>
<text xml:space="preserve" text-anchor="start" x="319.18" y="-401.57" font-family="Arial" font-size="9.00" fill="#172033">Owns install, repair, media</text>
<text xml:space="preserve" text-anchor="start" x="308.31" y="-392.57" font-family="Arial" font-size="9.00" fill="#172033">import, backup, restore preview,</text>
<text xml:space="preserve" text-anchor="start" x="311.68" y="-383.57" font-family="Arial" font-size="9.00" fill="#172033">update readiness/apply, and...</text>
<text xml:space="preserve" text-anchor="start" x="347.31" y="-375.52" font-family="Arial" font-style="italic" font-size="8.00" fill="#172033">pocket&#45;worker</text>
<text xml:space="preserve" text-anchor="start" x="360.06" y="-368.47" font-family="Arial" font-size="7.00" fill="#172033">Process</text>
</a>
</g>
</g>
<!-- app&#45;recovery&#45;update -->
<g id="node3" class="node">
<title>app&#45;recovery&#45;update</title>
<g id="a_node3"><a xlink:href="../../../../generated/production/architecture/components/app-recovery-update/" xlink:title="App backup, restore preview, and update lifecycle. Coordinates app backup, safe restore preview, update readiness/apply, verification, and rollback gates without browser&#45;owned execution." target="_top">
<polygon fill="#dcfce7" stroke="#172033" stroke-width="2.3" points="457.57,-307.61 234.04,-307.61 234.04,-303.61 230.04,-303.61 230.04,-299.61 234.04,-299.61 234.04,-218.09 230.04,-218.09 230.04,-214.09 234.04,-214.09 234.04,-210.09 457.57,-210.09 457.57,-307.61"/>
<polyline fill="none" stroke="#172033" stroke-width="2.3" points="234.04,-303.61 238.04,-303.61 238.04,-299.61 234.04,-299.61"/>
<polyline fill="none" stroke="#172033" stroke-width="2.3" points="234.04,-218.09 238.04,-218.09 238.04,-214.09 234.04,-214.09"/>
<polygon fill="#ffffff" stroke="none" points="244.68,-217.85 244.68,-299.85 296.68,-299.85 296.68,-217.85 244.68,-217.85"/>
<rect x="227.18" y="-275.35" width="36" height="36" rx="6" fill="#ffffff" stroke="#cbd5e1" stroke-width="1" aria-hidden="true"/>
<image href="../icons/recovery.svg" x="230.18" y="-272.35" width="30" height="30" preserveAspectRatio="xMidYMid meet" aria-hidden="true"/>
<text xml:space="preserve" text-anchor="start" x="269.18" y="-255.35" font-family="Arial" font-size="10.00" fill="#172033"> </text>
<text xml:space="preserve" text-anchor="start" x="314.68" y="-285.45" font-family="Arial" font-weight="bold" font-size="12.00" fill="#172033">App backup, restore</text>
<text xml:space="preserve" text-anchor="start" x="310.93" y="-273.45" font-family="Arial" font-weight="bold" font-size="12.00" fill="#172033">preview, and update...</text>
<text xml:space="preserve" text-anchor="start" x="311.68" y="-264.3" font-family="Arial" font-size="9.00" fill="#172033">Coordinates app backup, safe</text>
<text xml:space="preserve" text-anchor="start" x="325.18" y="-255.3" font-family="Arial" font-size="9.00" fill="#172033">restore preview, update</text>
<text xml:space="preserve" text-anchor="start" x="302.68" y="-246.3" font-family="Arial" font-size="9.00" fill="#172033">readiness/apply, verification, and...</text>
<text xml:space="preserve" text-anchor="start" x="343.18" y="-238.25" font-family="Arial" font-style="italic" font-size="8.00" fill="#172033">Worker / release</text>
<text xml:space="preserve" text-anchor="start" x="352.56" y="-230.25" font-family="Arial" font-style="italic" font-size="8.00" fill="#172033">subprocess</text>
<text xml:space="preserve" text-anchor="start" x="360.06" y="-223.2" font-family="Arial" font-size="7.00" fill="#172033">Process</text>
</a>
</g>
</g>
<!-- state_dependency_0 -->
<g id="node4" class="node">
<title>state_dependency_0</title>
<g id="a_node4"><a xlink:title="Durable&#45;state dependency">
<polygon fill="#fef3c7" stroke="#64748b" points="399.82,-93.05 285.79,-93.05 285.79,-57.05 405.82,-57.05 405.82,-87.05 399.82,-93.05"/>
<polyline fill="none" stroke="#64748b" points="399.82,-93.05 399.82,-87.05"/>
<polyline fill="none" stroke="#64748b" points="405.82,-87.05 399.82,-87.05"/>
<text xml:space="preserve" text-anchor="middle" x="345.81" y="-71.55" font-family="Arial" font-size="10.00" fill="#172033">backup_manifest_index</text>
</a>
</g>
</g>
<!-- state_dependency_1 -->
<g id="node5" class="node">
<title>state_dependency_1</title>
<g id="a_node5"><a xlink:title="Durable&#45;state dependency">
<polygon fill="#fef3c7" stroke="#64748b" points="527.7,-93.05 427.92,-93.05 427.92,-57.05 533.7,-57.05 533.7,-87.05 527.7,-93.05"/>
<polyline fill="none" stroke="#64748b" points="527.7,-93.05 527.7,-87.05"/>
<polyline fill="none" stroke="#64748b" points="533.7,-87.05 527.7,-87.05"/>
<text xml:space="preserve" text-anchor="middle" x="480.81" y="-71.55" font-family="Arial" font-size="10.00" fill="#172033">app_action_lifecycle</text>
</a>
</g>
</g>
</g>
</svg>
