<?xml version="1.0" encoding="UTF-8" standalone="no"?>
<!-- Generated by graphviz version 14.1.2 (0)
 -->
<svg id="pocketlab-component-backup-engine-light" role="img" aria-labelledby="pocketlab-component-backup-engine-light-title pocketlab-component-backup-engine-light-desc" width="1141.00" height="549.00" preserveAspectRatio="xMidYMid meet" focusable="false" viewBox="0.00 0.00 1141.00 549.00" xmlns="http://www.w3.org/2000/svg" xmlns:xlink="http://www.w3.org/1999/xlink">
<title id="pocketlab-component-backup-engine-light-title">Backup and verification engine connections</title>
<desc id="pocketlab-component-backup-engine-light-desc">Inputs, outputs, durable state, evidence, failure, and recovery relationships for Backup and verification engine.</desc>
<metadata id="pocketlab-source-fingerprint">d3dab46471bfff62aac582bf6484a74de5973e7c305c8dc242ef4de4331718b0</metadata>
<g id="graph0" class="graph" transform="scale(1 1) rotate(0) translate(14.4 534.48)">
<polygon fill="#ffffff" stroke="none" points="-14.4,14.4 -14.4,-534.48 1126.42,-534.48 1126.42,14.4 -14.4,14.4"/>
<text xml:space="preserve" text-anchor="middle" x="556.01" y="-497.08" font-family="Arial" font-size="20.00" fill="#172033">Backup and verification engine connections</text>
<g id="clust1" class="cluster">
<title>cluster_durable&#45;state</title>
<path fill="#f8fafc" stroke="#94a3b8" stroke-dasharray="5,2" d="M758,-30.47C758,-30.47 959,-30.47 959,-30.47 965,-30.47 971,-36.47 971,-42.47 971,-42.47 971,-183.81 971,-183.81 971,-189.81 965,-195.81 959,-195.81 959,-195.81 758,-195.81 758,-195.81 752,-195.81 746,-189.81 746,-183.81 746,-183.81 746,-42.47 746,-42.47 746,-36.47 752,-30.47 758,-30.47"/>
<text xml:space="preserve" text-anchor="middle" x="858.5" y="-172.81" font-family="Arial" font-size="20.00" fill="#172033">Durable&#45;state boundary</text>
</g>
<g id="clust2" class="cluster">
<title>cluster_messaging&#45;execution</title>
<path fill="#f8fafc" stroke="#94a3b8" stroke-dasharray="5,2" d="M20,-8C20,-8 714,-8 714,-8 720,-8 726,-14 726,-20 726,-20 726,-468.83 726,-468.83 726,-474.83 720,-480.83 714,-480.83 714,-480.83 20,-480.83 20,-480.83 14,-480.83 8,-474.83 8,-468.83 8,-468.83 8,-20 8,-20 8,-14 14,-8 20,-8"/>
<text xml:space="preserve" text-anchor="middle" x="367" y="-457.83" font-family="Arial" font-size="20.00" fill="#172033">Messaging and execution boundary</text>
</g>
<!-- backup&#45;engine&#45;&gt;recovery&#45;state -->
<g id="edge3" class="edge">
<title>backup&#45;engine&#45;&gt;recovery&#45;state</title>
<g id="a_edge3"><a xlink:title="updates backup state (SQLite)">
<path fill="none" stroke="#2563eb" stroke-width="1.15" d="M677.51,-233.74C694.99,-221.58 713.8,-208.32 731,-195.81 743.29,-186.88 756.13,-177.35 768.75,-167.88"/>
<polygon fill="#2563eb" stroke="#2563eb" stroke-width="1.15" points="770.1,-170.01 774.34,-163.67 767.07,-165.99 770.1,-170.01"/>
</a>
</g>
<text xml:space="preserve" text-anchor="middle" x="752.88" y="-208.19" font-family="Arial" font-size="8.00" fill="#2563eb">updates backup state</text>
</g>
<!-- backup&#45;engine&#45;&gt;completion&#45;evidence -->
<g id="edge2" class="edge">
<title>backup&#45;engine&#45;&gt;completion&#45;evidence</title>
<g id="a_edge2"><a xlink:title="records sanitized lifecycle (SQLite/NATS)">
<path fill="none" stroke="#7c3aed" stroke-width="1.15" stroke-dasharray="1,5" d="M521.31,-233.82C495.14,-220.91 465.57,-206.33 435.78,-191.63"/>
<polygon fill="#7c3aed" stroke="#7c3aed" stroke-width="1.15" points="436.92,-189.39 429.35,-188.46 434.69,-193.91 436.92,-189.39"/>
</a>
</g>
<text xml:space="preserve" text-anchor="middle" x="528.14" y="-208.19" font-family="Arial" font-size="8.00" fill="#7c3aed">records sanitized lifecycle</text>
</g>
<!-- backup&#45;engine&#45;&gt;restore&#45;preview -->
<g id="edge1" class="edge">
<title>backup&#45;engine&#45;&gt;restore&#45;preview</title>
<g id="a_edge1"><a xlink:title="verified backup input (Manifest)">
<path fill="none" stroke="#475569" stroke-width="1.15" d="M613.24,-234.05C613.93,-209.07 614.8,-177.75 615.53,-151.51"/>
<polygon fill="#475569" stroke="#475569" stroke-width="1.15" points="618.04,-151.83 615.72,-144.56 613,-151.69 618.04,-151.83"/>
</a>
</g>
<text xml:space="preserve" text-anchor="middle" x="650.28" y="-208.19" font-family="Arial" font-size="8.00" fill="#475569">verified backup input</text>
</g>
<!-- backup&#45;engine&#45;&gt;state_dependency_0 -->
<g id="edge5" class="edge">
<title>backup&#45;engine&#45;&gt;state_dependency_0</title>
<path fill="none" stroke="#2563eb" stroke-width="1.15" stroke-dasharray="1,5" d="M726.66,-272.33C802.43,-263.67 901.18,-243.31 976,-195.81 1004.04,-178.01 1025.98,-146.11 1038.94,-123.7"/>
<polygon fill="#2563eb" stroke="#2563eb" stroke-width="1.15" points="1041.12,-124.95 1042.44,-117.44 1036.73,-122.49 1041.12,-124.95"/>
<text xml:space="preserve" text-anchor="middle" x="958.57" y="-208.19" font-family="Arial" font-size="8.00" fill="#2563eb">state</text>
</g>
<!-- worker&#45;&gt;backup&#45;engine -->
<g id="edge4" class="edge">
<title>worker&#45;&gt;backup&#45;engine</title>
<g id="a_edge4"><a xlink:title="runs backup work (Python)">
<path fill="none" stroke="#475569" stroke-width="1.15" d="M604.24,-371.73C605.25,-359.87 606.38,-346.57 607.46,-333.87"/>
<polygon fill="#475569" stroke="#475569" stroke-width="1.15" points="609.95,-334.32 608.05,-326.93 604.93,-333.89 609.95,-334.32"/>
</a>
</g>
<text xml:space="preserve" text-anchor="middle" x="638" y="-345.46" font-family="Arial" font-size="8.00" fill="#475569">runs backup work</text>
</g>
<!-- recovery&#45;state -->
<g id="node1" class="node">
<title>recovery&#45;state</title>
<g id="a_node1"><a xlink:href="../../../../generated/production/architecture/components/recovery-state/" xlink:title="Backup, restore, and checkpoint state. Stores backup manifests, recovery operations, current state, database backups/restores, and restore checkpoints." target="_top">
<path fill="#fef3c7" stroke="#64748b" stroke-width="1.35" d="M970.39,-152.38C970.39,-159.1 920.46,-164.56 859,-164.56 797.54,-164.56 747.61,-159.1 747.61,-152.38 747.61,-152.38 747.61,-42.66 747.61,-42.66 747.61,-35.94 797.54,-30.47 859,-30.47 920.46,-30.47 970.39,-35.94 970.39,-42.66 970.39,-42.66 970.39,-152.38 970.39,-152.38"/>
<path fill="none" stroke="#64748b" stroke-width="1.35" d="M970.39,-152.38C970.39,-145.65 920.46,-140.19 859,-140.19 797.54,-140.19 747.61,-145.65 747.61,-152.38"/>
<polygon fill="#ffffff" stroke="none" points="758.25,-56.52 758.25,-138.52 810.25,-138.52 810.25,-56.52 758.25,-56.52"/>
<rect x="740.75" y="-114.02" width="36" height="36" rx="6" fill="#ffffff" stroke="#cbd5e1" stroke-width="1" aria-hidden="true"/>
<image href="../icons/durable-state.svg" x="743.75" y="-111.02" width="30" height="30" preserveAspectRatio="xMidYMid meet" aria-hidden="true"/>
<text xml:space="preserve" text-anchor="start" x="782.75" y="-94.02" font-family="Arial" font-size="10.00" fill="#172033"> </text>
<text xml:space="preserve" text-anchor="start" x="826.75" y="-124.12" font-family="Arial" font-weight="bold" font-size="12.00" fill="#172033">Backup, restore, and</text>
<text xml:space="preserve" text-anchor="start" x="838.75" y="-112.12" font-family="Arial" font-weight="bold" font-size="12.00" fill="#172033">checkpoint state</text>
<text xml:space="preserve" text-anchor="start" x="816.25" y="-102.97" font-family="Arial" font-size="9.00" fill="#172033">Stores backup manifests, recovery</text>
<text xml:space="preserve" text-anchor="start" x="835.75" y="-93.97" font-family="Arial" font-size="9.00" fill="#172033">operations, current state,</text>
<text xml:space="preserve" text-anchor="start" x="817.38" y="-84.97" font-family="Arial" font-size="9.00" fill="#172033">database backups/restores, and...</text>
<text xml:space="preserve" text-anchor="start" x="866.12" y="-76.92" font-family="Arial" font-style="italic" font-size="8.00" fill="#172033">SQLite and</text>
<text xml:space="preserve" text-anchor="start" x="836.88" y="-68.92" font-family="Arial" font-style="italic" font-size="8.00" fill="#172033">repository&#45;owned manifests</text>
<text xml:space="preserve" text-anchor="start" x="871" y="-61.87" font-family="Arial" font-size="7.00" fill="#172033">Database</text>
</a>
</g>
</g>
<!-- backup&#45;engine -->
<g id="node2" class="node">
<title>backup&#45;engine</title>
<g id="a_node2"><a xlink:href="../../../../generated/production/architecture/components/backup-engine/" xlink:title="Backup and verification engine. Creates and verifies local encrypted backups through backend/worker&#45;owned operations." target="_top">
<polygon fill="#dcfce7" stroke="#172033" stroke-width="2.3" points="725.64,-324.31 498.36,-324.31 498.36,-320.31 494.36,-320.31 494.36,-316.31 498.36,-316.31 498.36,-242.79 494.36,-242.79 494.36,-238.79 498.36,-238.79 498.36,-234.79 725.64,-234.79 725.64,-324.31"/>
<polyline fill="none" stroke="#172033" stroke-width="2.3" points="498.36,-320.31 502.36,-320.31 502.36,-316.31 498.36,-316.31"/>
<polyline fill="none" stroke="#172033" stroke-width="2.3" points="498.36,-242.79 502.36,-242.79 502.36,-238.79 498.36,-238.79"/>
<polygon fill="#ffffff" stroke="none" points="509,-242.55 509,-316.55 561,-316.55 561,-242.55 509,-242.55"/>
<rect x="491.50" y="-296.05" width="36" height="36" rx="6" fill="#ffffff" stroke="#cbd5e1" stroke-width="1" aria-hidden="true"/>
<image href="../icons/backup.svg" x="494.50" y="-293.05" width="30" height="30" preserveAspectRatio="xMidYMid meet" aria-hidden="true"/>
<rect x="493.50" y="-260.05" width="12" height="12" rx="2" fill="#ffffff" stroke="#cbd5e1" stroke-width="0.7" aria-hidden="true"/>
<image href="../icons/python.svg" x="494.50" y="-259.05" width="10" height="10" preserveAspectRatio="xMidYMid meet" aria-hidden="true"/>
<text xml:space="preserve" text-anchor="start" x="533.5" y="-276.05" font-family="Arial" font-size="10.00" fill="#172033"> </text>
<text xml:space="preserve" text-anchor="start" x="604.5" y="-302.15" font-family="Arial" font-weight="bold" font-size="12.00" fill="#172033">Backup and</text>
<text xml:space="preserve" text-anchor="start" x="586.5" y="-290.15" font-family="Arial" font-weight="bold" font-size="12.00" fill="#172033">verification engine</text>
<text xml:space="preserve" text-anchor="start" x="587.25" y="-281" font-family="Arial" font-size="9.00" fill="#172033">Creates and verifies local</text>
<text xml:space="preserve" text-anchor="start" x="583.5" y="-272" font-family="Arial" font-size="9.00" fill="#172033">encrypted backups through</text>
<text xml:space="preserve" text-anchor="start" x="567" y="-263" font-family="Arial" font-size="9.00" fill="#172033">backend/worker&#45;owned operations.</text>
<text xml:space="preserve" text-anchor="start" x="608.62" y="-254.95" font-family="Arial" font-style="italic" font-size="8.00" fill="#172033">Recovery worker</text>
<text xml:space="preserve" text-anchor="start" x="626.25" y="-247.9" font-family="Arial" font-size="7.00" fill="#172033">Process</text>
</a>
</g>
</g>
<!-- completion&#45;evidence -->
<g id="node3" class="node">
<title>completion&#45;evidence</title>
<g id="a_node3"><a xlink:href="../../../../generated/production/architecture/components/completion-evidence/" xlink:title="Completion and audit evidence. Records sanitized lifecycle and completion evidence for commands, devices, apps, security, recovery, and releases." target="_top">
<path fill="#fce7f3" stroke="#64748b" stroke-width="1.35" d="M473.74,-187.04C473.74,-187.04 117.96,-187.04 117.96,-187.04 111.96,-187.04 103.08,-181.77 100.21,-176.51 100.21,-176.51 14,-18.53 14,-18.53 11.13,-13.27 14.26,-8 20.26,-8 20.26,-8 376.04,-8 376.04,-8 382.04,-8 390.92,-13.27 393.79,-18.53 393.79,-18.53 480,-176.51 480,-176.51 482.87,-181.77 479.74,-187.04 473.74,-187.04"/>
<polygon fill="#ffffff" stroke="none" points="142.5,-60.52 142.5,-134.52 194.5,-134.52 194.5,-60.52 142.5,-60.52"/>
<rect x="125.00" y="-114.02" width="36" height="36" rx="6" fill="#ffffff" stroke="#cbd5e1" stroke-width="1" aria-hidden="true"/>
<image href="../icons/evidence.svg" x="128.00" y="-111.02" width="30" height="30" preserveAspectRatio="xMidYMid meet" aria-hidden="true"/>
<text xml:space="preserve" text-anchor="start" x="167" y="-94.02" font-family="Arial" font-size="10.00" fill="#172033"> </text>
<text xml:space="preserve" text-anchor="start" x="212.88" y="-120.12" font-family="Arial" font-weight="bold" font-size="12.00" fill="#172033">Completion and audit</text>
<text xml:space="preserve" text-anchor="start" x="248.12" y="-108.12" font-family="Arial" font-weight="bold" font-size="12.00" fill="#172033">evidence</text>
<text xml:space="preserve" text-anchor="start" x="210.62" y="-98.97" font-family="Arial" font-size="9.00" fill="#172033">Records sanitized lifecycle and</text>
<text xml:space="preserve" text-anchor="start" x="200.5" y="-89.97" font-family="Arial" font-size="9.00" fill="#172033">completion evidence for commands,</text>
<text xml:space="preserve" text-anchor="start" x="204.25" y="-80.97" font-family="Arial" font-size="9.00" fill="#172033">devices, apps, security, recovery,...</text>
<text xml:space="preserve" text-anchor="start" x="237.62" y="-72.92" font-family="Arial" font-style="italic" font-size="8.00" fill="#172033">Worker and FastAPI</text>
<text xml:space="preserve" text-anchor="start" x="265" y="-65.87" font-family="Arial" font-size="7.00" fill="#172033">Event</text>
</a>
</g>
</g>
<!-- restore&#45;preview -->
<g id="node4" class="node">
<title>restore&#45;preview</title>
<g id="a_node4"><a xlink:href="../../../../generated/production/architecture/components/restore-preview/" xlink:title="Restore preview and confirmed restore. Builds a non&#45;destructive preview, requires explicit confirmation, creates a checkpoint, applies restore, and validates health." target="_top">
<polygon fill="#dcfce7" stroke="#64748b" stroke-width="1.35" points="725.76,-142.28 508.24,-142.28 508.24,-138.28 504.24,-138.28 504.24,-134.28 508.24,-134.28 508.24,-60.76 504.24,-60.76 504.24,-56.76 508.24,-56.76 508.24,-52.76 725.76,-52.76 725.76,-142.28"/>
<polyline fill="none" stroke="#64748b" stroke-width="1.35" points="508.24,-138.28 512.24,-138.28 512.24,-134.28 508.24,-134.28"/>
<polyline fill="none" stroke="#64748b" stroke-width="1.35" points="508.24,-60.76 512.24,-60.76 512.24,-56.76 508.24,-56.76"/>
<polygon fill="#ffffff" stroke="none" points="518.88,-60.52 518.88,-134.52 570.88,-134.52 570.88,-60.52 518.88,-60.52"/>
<rect x="501.38" y="-114.02" width="36" height="36" rx="6" fill="#ffffff" stroke="#cbd5e1" stroke-width="1" aria-hidden="true"/>
<image href="../icons/recovery.svg" x="504.38" y="-111.02" width="30" height="30" preserveAspectRatio="xMidYMid meet" aria-hidden="true"/>
<rect x="503.38" y="-78.02" width="12" height="12" rx="2" fill="#ffffff" stroke="#cbd5e1" stroke-width="0.7" aria-hidden="true"/>
<image href="../icons/backup.svg" x="504.38" y="-77.02" width="10" height="10" preserveAspectRatio="xMidYMid meet" aria-hidden="true"/>
<text xml:space="preserve" text-anchor="start" x="543.38" y="-94.02" font-family="Arial" font-size="10.00" fill="#172033"> </text>
<text xml:space="preserve" text-anchor="start" x="585.5" y="-120.12" font-family="Arial" font-weight="bold" font-size="12.00" fill="#172033">Restore preview and</text>
<text xml:space="preserve" text-anchor="start" x="593.38" y="-108.12" font-family="Arial" font-weight="bold" font-size="12.00" fill="#172033">confirmed restore</text>
<text xml:space="preserve" text-anchor="start" x="576.88" y="-98.97" font-family="Arial" font-size="9.00" fill="#172033">Builds a non&#45;destructive preview,</text>
<text xml:space="preserve" text-anchor="start" x="584.38" y="-89.97" font-family="Arial" font-size="9.00" fill="#172033">requires explicit confirmation,</text>
<text xml:space="preserve" text-anchor="start" x="581.38" y="-80.97" font-family="Arial" font-size="9.00" fill="#172033">creates a checkpoint, applies...</text>
<text xml:space="preserve" text-anchor="start" x="613.62" y="-72.92" font-family="Arial" font-style="italic" font-size="8.00" fill="#172033">Recovery worker</text>
<text xml:space="preserve" text-anchor="start" x="631.25" y="-65.87" font-family="Arial" font-size="7.00" fill="#172033">Process</text>
</a>
</g>
</g>
<!-- worker -->
<g id="node5" class="node">
<title>worker</title>
<g id="a_node5"><a xlink:href="../../../../generated/production/architecture/components/worker/" xlink:title="Worker process. Consumes durable commands and owns backend execution for apps, security, recovery, releases, and lifecycle work." target="_top">
<polygon fill="#dcfce7" stroke="#64748b" stroke-width="1.35" points="726.26,-449.58 475.74,-449.58 475.74,-445.58 471.74,-445.58 471.74,-441.58 475.74,-441.58 475.74,-380.06 471.74,-380.06 471.74,-376.06 475.74,-376.06 475.74,-372.06 726.26,-372.06 726.26,-449.58"/>
<polyline fill="none" stroke="#64748b" stroke-width="1.35" points="475.74,-445.58 479.74,-445.58 479.74,-441.58 475.74,-441.58"/>
<polyline fill="none" stroke="#64748b" stroke-width="1.35" points="475.74,-380.06 479.74,-380.06 479.74,-376.06 475.74,-376.06"/>
<polygon fill="#ffffff" stroke="none" points="486.38,-379.82 486.38,-441.82 538.38,-441.82 538.38,-379.82 486.38,-379.82"/>
<rect x="468.88" y="-427.32" width="36" height="36" rx="6" fill="#ffffff" stroke="#cbd5e1" stroke-width="1" aria-hidden="true"/>
<image href="../icons/worker.svg" x="471.88" y="-424.32" width="30" height="30" preserveAspectRatio="xMidYMid meet" aria-hidden="true"/>
<rect x="470.88" y="-391.32" width="12" height="12" rx="2" fill="#ffffff" stroke="#cbd5e1" stroke-width="0.7" aria-hidden="true"/>
<image href="../icons/python.svg" x="471.88" y="-390.32" width="10" height="10" preserveAspectRatio="xMidYMid meet" aria-hidden="true"/>
<text xml:space="preserve" text-anchor="start" x="510.88" y="-407.32" font-family="Arial" font-size="10.00" fill="#172033"> </text>
<text xml:space="preserve" text-anchor="start" x="582.62" y="-427.42" font-family="Arial" font-weight="bold" font-size="12.00" fill="#172033">Worker process</text>
<text xml:space="preserve" text-anchor="start" x="544.38" y="-418.27" font-family="Arial" font-size="9.00" fill="#172033">Consumes durable commands and owns</text>
<text xml:space="preserve" text-anchor="start" x="570.62" y="-409.27" font-family="Arial" font-size="9.00" fill="#172033">backend execution for apps,</text>
<text xml:space="preserve" text-anchor="start" x="559.75" y="-400.27" font-family="Arial" font-size="9.00" fill="#172033">security, recovery, releases, and...</text>
<text xml:space="preserve" text-anchor="start" x="607.38" y="-392.22" font-family="Arial" font-style="italic" font-size="8.00" fill="#172033">Server host</text>
<text xml:space="preserve" text-anchor="start" x="615.25" y="-385.17" font-family="Arial" font-size="7.00" fill="#172033">Process</text>
</a>
</g>
</g>
<!-- state_dependency_0 -->
<g id="node6" class="node">
<title>state_dependency_0</title>
<g id="a_node6"><a xlink:title="Durable&#45;state dependency">
<polygon fill="#fef3c7" stroke="#64748b" points="1106.02,-115.52 991.99,-115.52 991.99,-79.52 1112.02,-79.52 1112.02,-109.52 1106.02,-115.52"/>
<polyline fill="none" stroke="#64748b" points="1106.02,-115.52 1106.02,-109.52"/>
<polyline fill="none" stroke="#64748b" points="1112.02,-109.52 1106.02,-109.52"/>
<text xml:space="preserve" text-anchor="middle" x="1052" y="-94.02" font-family="Arial" font-size="10.00" fill="#172033">backup_manifest_index</text>
</a>
</g>
</g>
</g>
</svg>
