<?xml version="1.0" encoding="UTF-8" standalone="no"?>
<!-- Generated by graphviz version 14.1.2 (0)
 -->
<svg id="pocketlab-component-checkpoints-retention-dark" role="img" aria-labelledby="pocketlab-component-checkpoints-retention-dark-title pocketlab-component-checkpoints-retention-dark-desc" width="479.00" height="436.00" preserveAspectRatio="xMidYMid meet" focusable="false" viewBox="0.00 0.00 479.00 436.00" xmlns="http://www.w3.org/2000/svg" xmlns:xlink="http://www.w3.org/1999/xlink">
<title id="pocketlab-component-checkpoints-retention-dark-title">Checkpoints and retention policy connections</title>
<desc id="pocketlab-component-checkpoints-retention-dark-desc">Inputs, outputs, durable state, evidence, failure, and recovery relationships for Checkpoints and retention policy.</desc>
<metadata id="pocketlab-source-fingerprint">25e2e0d8305eb07d86b594f54b80bf4341cab8fe76e0c270d1d9f0255bd1458f</metadata>
<defs class="pl-architecture-icon-symbols">
<symbol id="pl-icon-semantic-backup" viewBox="0 0 48 48" overflow="visible"><g fill="none" stroke="#475569" stroke-width="3" stroke-linecap="round" stroke-linejoin="round"><path d="M11 16A16 16 0 113 28" /><path d="M4 13l7 3-3 7" /><rect x="18" y="19" width="14" height="13" rx="2" /></g></symbol>
<symbol id="pl-icon-semantic-recovery" viewBox="0 0 48 48" overflow="visible"><g fill="none" stroke="#475569" stroke-width="3" stroke-linecap="round" stroke-linejoin="round"><path d="M11 16A16 16 0 113 28" /><path d="M4 13l7 3-3 7" /><path d="M24 14v11l8 5" /></g></symbol>
</defs>
<g id="graph0" class="graph" transform="scale(1 1) rotate(0) translate(14.4 421.96)">
<polygon fill="#0f172a" stroke="none" points="-14.4,14.4 -14.4,-421.96 464.91,-421.96 464.91,14.4 -14.4,14.4"/>
<text xml:space="preserve" text-anchor="middle" x="225.26" y="-384.56" font-family="Arial" font-size="20.00" fill="#f8fafc">Checkpoints and retention policy connections</text>
<g id="clust1" class="cluster">
<title>cluster_messaging&#45;execution</title>
<path fill="#111827" stroke="#64748b" stroke-dasharray="5,2" d="M20,-8C20,-8 328,-8 328,-8 334,-8 340,-14 340,-20 340,-20 340,-356.31 340,-356.31 340,-362.31 334,-368.31 328,-368.31 328,-368.31 20,-368.31 20,-368.31 14,-368.31 8,-362.31 8,-356.31 8,-356.31 8,-20 8,-20 8,-14 14,-8 20,-8"/>
<text xml:space="preserve" text-anchor="middle" x="174" y="-345.31" font-family="Arial" font-size="20.00" fill="#f8fafc">Messaging and execution boundary</text>
</g>
<!-- checkpoints&#45;retention&#45;&gt;retirement&#45;database&#45;recovery -->
<g id="edge2" class="edge">
<title>checkpoints&#45;retention&#45;&gt;retirement&#45;database&#45;recovery</title>
<g id="a_edge2"><a xlink:title="provides recovery point (SQLite)">
<path fill="none" stroke="#fbbf24" stroke-width="1.15" stroke-dasharray="5,2" d="M202.38,-130.33C201.02,-118.22 199.52,-104.9 198.13,-92.52"/>
<polygon fill="#fbbf24" stroke="#fbbf24" stroke-width="1.15" points="197.35,-85.52 201.37,-92.31 197.67,-87.7 198.23,-92.67 198.15,-92.68 198.08,-92.68 197.52,-87.71 194.93,-93.04 197.35,-85.52"/>
</a>
</g>
<text xml:space="preserve" text-anchor="middle" x="241.25" y="-104.67" font-family="Arial" font-size="8.00" fill="#fbbf24">provides recovery point</text>
</g>
<!-- checkpoints&#45;retention&#45;&gt;state_dependency_0 -->
<g id="edge3" class="edge">
<title>checkpoints&#45;retention&#45;&gt;state_dependency_0</title>
<path fill="none" stroke="#60a5fa" stroke-width="1.15" stroke-dasharray="1,5" d="M270.33,-130.16C301.57,-109.75 337.99,-85.96 363.93,-69.02"/>
<polygon fill="#60a5fa" stroke="#60a5fa" stroke-width="1.15" points="365.18,-71.21 369.83,-65.16 362.42,-66.99 365.18,-71.21"/>
<text xml:space="preserve" text-anchor="middle" x="316.85" y="-104.67" font-family="Arial" font-size="8.00" fill="#60a5fa">state</text>
</g>
<!-- restore&#45;preview&#45;&gt;checkpoints&#45;retention -->
<g id="edge1" class="edge">
<title>restore&#45;preview&#45;&gt;checkpoints&#45;retention</title>
<g id="a_edge1"><a xlink:title="creates checkpoint before apply (NATS)">
<path fill="none" stroke="#fbbf24" stroke-width="1.15" stroke-dasharray="5,2" d="M207,-261.2C207,-249.18 207,-235.65 207,-222.89"/>
<polygon fill="#fbbf24" stroke="#fbbf24" stroke-width="1.15" points="207,-216.03 210.24,-223.23 207.08,-218.23 207.08,-223.23 207,-223.23 206.93,-223.23 206.93,-218.23 203.76,-223.23 207,-216.03"/>
</a>
</g>
<text xml:space="preserve" text-anchor="middle" x="263.25" y="-234.94" font-family="Arial" font-size="8.00" fill="#fbbf24">creates checkpoint before apply</text>
</g>
<!-- checkpoints&#45;retention -->
<g id="node1" class="node">
<title>checkpoints&#45;retention</title>
<g id="a_node1"><a xlink:href="../../../../generated/production/architecture/components/checkpoints-retention/" xlink:title="Checkpoints and retention policy. Creates pre&#45;change checkpoints and applies explicit bounded retention without silently deleting current state." target="_top">
<path fill="#14532d" stroke="#f8fafc" stroke-width="2.5" d="M325.2,-213.79C325.2,-213.79 88.8,-213.79 88.8,-213.79 82.8,-213.79 76.8,-207.79 76.8,-201.79 76.8,-201.79 76.8,-143.27 76.8,-143.27 76.8,-137.27 82.8,-131.27 88.8,-131.27 88.8,-131.27 325.2,-131.27 325.2,-131.27 331.2,-131.27 337.2,-137.27 337.2,-143.27 337.2,-143.27 337.2,-201.79 337.2,-201.79 337.2,-207.79 331.2,-213.79 325.2,-213.79"/>
<g id="a_node1_0"><g class="pl-node-icon" data-component="checkpoints-retention" data-icon-cell="84.00,-208.03,58.00,71.00" data-icon-tile="91.00,-194.53,44.00,44.00" aria-hidden="true"><rect class="pl-node-icon__tile" x="91.00" y="-194.53" width="44.00" height="44.00" rx="8" fill="#f8fafc" stroke="#94a3b8" stroke-width="1.1"/><use class="pl-node-icon__primary" href="#pl-icon-semantic-backup" x="99.00" y="-187.53" width="28.00" height="28.00" preserveAspectRatio="xMidYMid meet" aria-hidden="true"/></g>
</g>
<text xml:space="preserve" text-anchor="start" x="148" y="-196.38" font-family="Arial" font-weight="bold" font-size="7.00" fill="#f8fafc">CURRENT COMPONENT</text>
<text xml:space="preserve" text-anchor="start" x="148" y="-183.68" font-family="Arial" font-weight="bold" font-size="13.00" fill="#f8fafc">Checkpoints and retention</text>
<text xml:space="preserve" text-anchor="start" x="148" y="-170.68" font-family="Arial" font-weight="bold" font-size="13.00" fill="#f8fafc">policy</text>
<text xml:space="preserve" text-anchor="start" x="148" y="-161.48" font-family="Arial" font-size="9.00" fill="#f8fafc">Creates pre&#45;change checkpoints and</text>
<text xml:space="preserve" text-anchor="start" x="148" y="-152.48" font-family="Arial" font-size="9.00" fill="#f8fafc">applies explicit bounded retention...</text>
<text xml:space="preserve" text-anchor="start" x="148" y="-144.43" font-family="Arial" font-style="italic" font-size="8.00" fill="#f8fafc">Recovery worker · pocket&#45;worker</text>
</a>
</g>
</g>
<!-- restore&#45;preview -->
<g id="node2" class="node">
<title>restore&#45;preview</title>
<g id="a_node2"><a xlink:href="../../../../generated/production/architecture/components/restore-preview/" xlink:title="Restore preview and confirmed restore. Builds a non&#45;destructive preview, requires explicit confirmation, creates a checkpoint, applies restore, and validates health." target="_top">
<path fill="#14532d" stroke="#94a3b8" stroke-width="1.25" d="M325.2,-337.06C325.2,-337.06 88.8,-337.06 88.8,-337.06 82.8,-337.06 76.8,-331.06 76.8,-325.06 76.8,-325.06 76.8,-273.54 76.8,-273.54 76.8,-267.54 82.8,-261.54 88.8,-261.54 88.8,-261.54 325.2,-261.54 325.2,-261.54 331.2,-261.54 337.2,-267.54 337.2,-273.54 337.2,-273.54 337.2,-325.06 337.2,-325.06 337.2,-331.06 331.2,-337.06 325.2,-337.06"/>
<g id="a_node2_1"><g class="pl-node-icon" data-component="restore-preview" data-icon-cell="84.00,-331.30,58.00,64.00" data-icon-tile="91.00,-321.30,44.00,44.00" aria-hidden="true"><rect class="pl-node-icon__tile" x="91.00" y="-321.30" width="44.00" height="44.00" rx="8" fill="#f8fafc" stroke="#94a3b8" stroke-width="1.1"/><use class="pl-node-icon__primary" href="#pl-icon-semantic-recovery" x="99.00" y="-314.30" width="28.00" height="28.00" preserveAspectRatio="xMidYMid meet" aria-hidden="true"/><rect class="pl-node-icon__badge-tile" x="121.50" y="-287.80" width="13.00" height="13.00" rx="3" fill="#f8fafc" stroke="#94a3b8" stroke-width="0.7"/><use class="pl-node-icon__badge" href="#pl-icon-semantic-backup" x="122.50" y="-286.80" width="11.00" height="11.00" preserveAspectRatio="xMidYMid meet" aria-hidden="true"/></g>
</g>
<text xml:space="preserve" text-anchor="start" x="148" y="-313.95" font-family="Arial" font-weight="bold" font-size="13.00" fill="#f8fafc">Restore preview and</text>
<text xml:space="preserve" text-anchor="start" x="148" y="-300.95" font-family="Arial" font-weight="bold" font-size="13.00" fill="#f8fafc">confirmed restore</text>
<text xml:space="preserve" text-anchor="start" x="148" y="-291.75" font-family="Arial" font-size="9.00" fill="#f8fafc">Builds a non&#45;destructive preview,</text>
<text xml:space="preserve" text-anchor="start" x="148" y="-282.75" font-family="Arial" font-size="9.00" fill="#f8fafc">requires explicit confirmation,...</text>
<text xml:space="preserve" text-anchor="start" x="148" y="-274.7" font-family="Arial" font-style="italic" font-size="8.00" fill="#f8fafc">Recovery worker · pocket&#45;worker</text>
</a>
</g>
</g>
<!-- retirement&#45;database&#45;recovery -->
<g id="node3" class="node">
<title>retirement&#45;database&#45;recovery</title>
<g id="a_node3"><a xlink:href="../../../../generated/production/architecture/components/retirement-database-recovery/" xlink:title="Explicit retirement and database recovery. Requires assessment and confirmation for device retirement and provides verified database backup/preview/restore without coupling command cleanup to device deletion." target="_top">
<path fill="#14532d" stroke="#94a3b8" stroke-width="1.25" d="M311.2,-83.52C311.2,-83.52 74.8,-83.52 74.8,-83.52 68.8,-83.52 62.8,-77.52 62.8,-71.52 62.8,-71.52 62.8,-20 62.8,-20 62.8,-14 68.8,-8 74.8,-8 74.8,-8 311.2,-8 311.2,-8 317.2,-8 323.2,-14 323.2,-20 323.2,-20 323.2,-71.52 323.2,-71.52 323.2,-77.52 317.2,-83.52 311.2,-83.52"/>
<g id="a_node3_2"><g class="pl-node-icon" data-component="retirement-database-recovery" data-icon-cell="70.00,-77.76,58.00,64.00" data-icon-tile="77.00,-67.76,44.00,44.00" aria-hidden="true"><rect class="pl-node-icon__tile" x="77.00" y="-67.76" width="44.00" height="44.00" rx="8" fill="#f8fafc" stroke="#94a3b8" stroke-width="1.1"/><use class="pl-node-icon__primary" href="#pl-icon-semantic-recovery" x="85.00" y="-60.76" width="28.00" height="28.00" preserveAspectRatio="xMidYMid meet" aria-hidden="true"/></g>
</g>
<text xml:space="preserve" text-anchor="start" x="134" y="-60.41" font-family="Arial" font-weight="bold" font-size="13.00" fill="#f8fafc">Explicit retirement and</text>
<text xml:space="preserve" text-anchor="start" x="134" y="-47.41" font-family="Arial" font-weight="bold" font-size="13.00" fill="#f8fafc">database recovery</text>
<text xml:space="preserve" text-anchor="start" x="134" y="-38.21" font-family="Arial" font-size="9.00" fill="#f8fafc">Requires assessment and</text>
<text xml:space="preserve" text-anchor="start" x="134" y="-29.21" font-family="Arial" font-size="9.00" fill="#f8fafc">confirmation for device retirement...</text>
<text xml:space="preserve" text-anchor="start" x="134" y="-21.16" font-family="Arial" font-style="italic" font-size="8.00" fill="#f8fafc">FastAPI / worker · pocket&#45;api /...</text>
</a>
</g>
</g>
<!-- state_dependency_0 -->
<g id="node4" class="node">
<title>state_dependency_0</title>
<g id="a_node4"><a xlink:title="Durable&#45;state dependency">
<polygon fill="#78350f" stroke="#94a3b8" points="444.51,-63.76 345.49,-63.76 345.49,-27.76 450.51,-27.76 450.51,-57.76 444.51,-63.76"/>
<polyline fill="none" stroke="#94a3b8" points="444.51,-63.76 444.51,-57.76"/>
<polyline fill="none" stroke="#94a3b8" points="450.51,-57.76 444.51,-57.76"/>
<text xml:space="preserve" text-anchor="middle" x="398" y="-42.26" font-family="Arial" font-size="10.00" fill="#f8fafc">recovery_operations</text>
</a>
</g>
</g>
</g>
</svg>
