<?xml version="1.0" encoding="UTF-8" standalone="no"?>
<!-- Generated by graphviz version 14.1.2 (0)
 -->
<svg id="pocketlab-component-command-lifecycle-light" role="img" aria-labelledby="pocketlab-component-command-lifecycle-light-title pocketlab-component-command-lifecycle-light-desc" width="100%" height="auto" preserveAspectRatio="xMidYMid meet" focusable="false" viewBox="0.00 0.00 608.00 521.00" xmlns="http://www.w3.org/2000/svg" xmlns:xlink="http://www.w3.org/1999/xlink">
<title id="pocketlab-component-command-lifecycle-light-title">Command admission and lifecycle connections</title>
<desc id="pocketlab-component-command-lifecycle-light-desc">Inputs, outputs, durable state, evidence, failure, and recovery relationships for Command admission and lifecycle.</desc>
<metadata id="pocketlab-source-fingerprint">af82a3526cf7a7cea496efab70657943878c9bb8e3dde3e7b674b3f25ef95578</metadata>
<g id="graph0" class="graph" transform="scale(1 1) rotate(0) translate(14.4 506.48)">
<polygon fill="#ffffff" stroke="none" points="-14.4,14.4 -14.4,-506.48 594.04,-506.48 594.04,14.4 -14.4,14.4"/>
<text xml:space="preserve" text-anchor="middle" x="289.82" y="-469.08" font-family="Arial" font-size="20.00" fill="#172033">Command admission and lifecycle connections</text>
<g id="clust1" class="cluster">
<title>cluster_messaging&#45;execution</title>
<path fill="#f8fafc" stroke="#94a3b8" stroke-dasharray="5,2" d="M20,-8C20,-8 444,-8 444,-8 450,-8 456,-14 456,-20 456,-20 456,-440.83 456,-440.83 456,-446.83 450,-452.83 444,-452.83 444,-452.83 20,-452.83 20,-452.83 14,-452.83 8,-446.83 8,-440.83 8,-440.83 8,-20 8,-20 8,-14 14,-8 20,-8"/>
<text xml:space="preserve" text-anchor="middle" x="232" y="-429.83" font-family="Arial" font-size="20.00" fill="#172033">Messaging and execution boundary</text>
</g>
<!-- command&#45;lifecycle&#45;&gt;completion&#45;evidence -->
<g id="edge1" class="edge">
<title>command&#45;lifecycle&#45;&gt;completion&#45;evidence</title>
<g id="a_edge1"><a xlink:title="records sanitized lifecycle (SQLite/NATS)">
<path fill="none" stroke="#7c3aed" stroke-width="1.15" stroke-dasharray="1,5" d="M291.88,-220.01C286.38,-208.22 280.16,-194.86 273.86,-181.34"/>
<polygon fill="#7c3aed" stroke="#7c3aed" stroke-width="1.15" points="276.2,-180.41 270.88,-174.95 271.63,-182.54 276.2,-180.41"/>
</a>
</g>
<text xml:space="preserve" text-anchor="middle" x="327.82" y="-194.19" font-family="Arial" font-size="8.00" fill="#7c3aed">records sanitized lifecycle</text>
</g>
<!-- command&#45;lifecycle&#45;&gt;state_dependency_0 -->
<g id="edge3" class="edge">
<title>command&#45;lifecycle&#45;&gt;state_dependency_0</title>
<path fill="none" stroke="#2563eb" stroke-width="1.15" stroke-dasharray="1,5" d="M393.05,-219.74C416.13,-206.35 440.5,-190.41 461,-173.04 480.81,-156.25 499.41,-133.26 512.13,-115.97"/>
<polygon fill="#2563eb" stroke="#2563eb" stroke-width="1.15" points="514.01,-117.66 516.19,-110.35 509.93,-114.71 514.01,-117.66"/>
<text xml:space="preserve" text-anchor="middle" x="443.31" y="-194.19" font-family="Arial" font-size="8.00" fill="#2563eb">state</text>
</g>
<!-- worker&#45;&gt;command&#45;lifecycle -->
<g id="edge2" class="edge">
<title>worker&#45;&gt;command&#45;lifecycle</title>
<g id="a_edge2"><a xlink:title="claims and updates (SQLite/NATS)">
<path fill="none" stroke="#475569" stroke-width="1.15" d="M311,-350.61C311,-338.91 311,-325.61 311,-312.97"/>
<polygon fill="#475569" stroke="#475569" stroke-width="1.15" points="313.52,-313.29 311,-306.09 308.48,-313.29 313.52,-313.29"/>
</a>
</g>
<text xml:space="preserve" text-anchor="middle" x="345.12" y="-324.46" font-family="Arial" font-size="8.00" fill="#475569">claims and updates</text>
</g>
<!-- command&#45;lifecycle -->
<g id="node1" class="node">
<title>command&#45;lifecycle</title>
<g id="a_node1"><a xlink:href="../../../../generated/production/architecture/components/command-lifecycle/" xlink:title="Command admission and lifecycle. Tracks admission, queued, claimed, running, terminal, acknowledgement, retry, and dead&#45;letter behavior independently from device lifecycle." target="_top">
<polygon fill="#dcfce7" stroke="#172033" stroke-width="2.2" points="418.76,-303.31 203.24,-303.31 203.24,-299.31 199.24,-299.31 199.24,-295.31 203.24,-295.31 203.24,-228.79 199.24,-228.79 199.24,-224.79 203.24,-224.79 203.24,-220.79 418.76,-220.79 418.76,-303.31"/>
<polyline fill="none" stroke="#172033" stroke-width="2.2" points="203.24,-299.31 207.24,-299.31 207.24,-295.31 203.24,-295.31"/>
<polyline fill="none" stroke="#172033" stroke-width="2.2" points="203.24,-228.79 207.24,-228.79 207.24,-224.79 203.24,-224.79"/>
<image href="../icons/generic-event.svg" x="200.38" y="-274.05" width="24" height="24" preserveAspectRatio="xMidYMid meet" aria-hidden="true"/>
<text xml:space="preserve" text-anchor="start" x="231.38" y="-258.55" font-family="Arial" font-size="10.00" fill="#172033"> </text>
<text xml:space="preserve" text-anchor="start" x="257.88" y="-281.15" font-family="Arial" font-weight="bold" font-size="12.00" fill="#172033">Command admission and</text>
<text xml:space="preserve" text-anchor="start" x="307.75" y="-269.15" font-family="Arial" font-weight="bold" font-size="12.00" fill="#172033">lifecycle</text>
<text xml:space="preserve" text-anchor="start" x="257.88" y="-260" font-family="Arial" font-size="9.00" fill="#172033">Tracks admission, queued, claimed,</text>
<text xml:space="preserve" text-anchor="start" x="295.38" y="-251" font-family="Arial" font-size="9.00" fill="#172033">running, terminal,</text>
<text xml:space="preserve" text-anchor="start" x="269.12" y="-242" font-family="Arial" font-size="9.00" fill="#172033">acknowledgement, retry, and...</text>
<text xml:space="preserve" text-anchor="start" x="295.38" y="-233.95" font-family="Arial" font-size="8.00" fill="#172033">FastAPI and worker</text>
</a>
</g>
</g>
<!-- completion&#45;evidence -->
<g id="node2" class="node">
<title>completion&#45;evidence</title>
<g id="a_node2"><a xlink:href="../../../../generated/production/architecture/components/completion-evidence/" xlink:title="Completion and audit evidence. Records sanitized lifecycle and completion evidence for commands, devices, apps, security, recovery, and releases." target="_top">
<path fill="#fce7f3" stroke="#64748b" stroke-width="1.15" d="M444.23,-173.04C444.23,-173.04 111.53,-173.04 111.53,-173.04 105.53,-173.04 96.62,-167.8 93.7,-162.55 93.7,-162.55 13.6,-18.49 13.6,-18.49 10.69,-13.24 13.77,-8 19.77,-8 19.77,-8 352.47,-8 352.47,-8 358.47,-8 367.38,-13.24 370.3,-18.49 370.3,-18.49 450.4,-162.55 450.4,-162.55 453.31,-167.8 450.23,-173.04 444.23,-173.04"/>
<image href="../icons/generic-event.svg" x="121.00" y="-102.52" width="24" height="24" preserveAspectRatio="xMidYMid meet" aria-hidden="true"/>
<text xml:space="preserve" text-anchor="start" x="152" y="-87.02" font-family="Arial" font-size="10.00" fill="#172033"> </text>
<text xml:space="preserve" text-anchor="start" x="190.88" y="-109.62" font-family="Arial" font-weight="bold" font-size="12.00" fill="#172033">Completion and audit</text>
<text xml:space="preserve" text-anchor="start" x="226.12" y="-97.62" font-family="Arial" font-weight="bold" font-size="12.00" fill="#172033">evidence</text>
<text xml:space="preserve" text-anchor="start" x="188.62" y="-88.47" font-family="Arial" font-size="9.00" fill="#172033">Records sanitized lifecycle and</text>
<text xml:space="preserve" text-anchor="start" x="178.5" y="-79.47" font-family="Arial" font-size="9.00" fill="#172033">completion evidence for commands,</text>
<text xml:space="preserve" text-anchor="start" x="182.25" y="-70.47" font-family="Arial" font-size="9.00" fill="#172033">devices, apps, security, recovery,...</text>
<text xml:space="preserve" text-anchor="start" x="215.62" y="-62.42" font-family="Arial" font-size="8.00" fill="#172033">Worker and FastAPI</text>
</a>
</g>
</g>
<!-- worker -->
<g id="node3" class="node">
<title>worker</title>
<g id="a_node3"><a xlink:href="../../../../generated/production/architecture/components/worker/" xlink:title="Worker process. Consumes durable commands and owns backend execution for apps, security, recovery, releases, and lifecycle work." target="_top">
<polygon fill="#dcfce7" stroke="#64748b" stroke-width="1.15" points="429.26,-421.58 192.74,-421.58 192.74,-417.58 188.74,-417.58 188.74,-413.58 192.74,-413.58 192.74,-359.06 188.74,-359.06 188.74,-355.06 192.74,-355.06 192.74,-351.06 429.26,-351.06 429.26,-421.58"/>
<polyline fill="none" stroke="#64748b" stroke-width="1.15" points="192.74,-417.58 196.74,-417.58 196.74,-413.58 192.74,-413.58"/>
<polyline fill="none" stroke="#64748b" stroke-width="1.15" points="192.74,-359.06 196.74,-359.06 196.74,-355.06 192.74,-355.06"/>
<image href="../icons/generic-process.svg" x="189.88" y="-398.32" width="24" height="24" preserveAspectRatio="xMidYMid meet" aria-hidden="true"/>
<text xml:space="preserve" text-anchor="start" x="220.88" y="-382.82" font-family="Arial" font-size="10.00" fill="#172033"> </text>
<text xml:space="preserve" text-anchor="start" x="285.62" y="-399.42" font-family="Arial" font-weight="bold" font-size="12.00" fill="#172033">Worker process</text>
<text xml:space="preserve" text-anchor="start" x="247.38" y="-390.27" font-family="Arial" font-size="9.00" fill="#172033">Consumes durable commands and owns</text>
<text xml:space="preserve" text-anchor="start" x="273.62" y="-381.27" font-family="Arial" font-size="9.00" fill="#172033">backend execution for apps,</text>
<text xml:space="preserve" text-anchor="start" x="262.75" y="-372.27" font-family="Arial" font-size="9.00" fill="#172033">security, recovery, releases, and...</text>
<text xml:space="preserve" text-anchor="start" x="310.38" y="-364.22" font-family="Arial" font-size="8.00" fill="#172033">Server host</text>
</a>
</g>
</g>
<!-- state_dependency_0 -->
<g id="node4" class="node">
<title>state_dependency_0</title>
<g id="a_node4"><a xlink:title="Durable&#45;state dependency">
<polygon fill="#fef3c7" stroke="#64748b" points="573.64,-108.52 478.36,-108.52 478.36,-72.52 579.64,-72.52 579.64,-102.52 573.64,-108.52"/>
<polyline fill="none" stroke="#64748b" points="573.64,-108.52 573.64,-102.52"/>
<polyline fill="none" stroke="#64748b" points="579.64,-102.52 573.64,-102.52"/>
<text xml:space="preserve" text-anchor="middle" x="529" y="-87.02" font-family="Arial" font-size="10.00" fill="#172033">command_lifecycle</text>
</a>
</g>
</g>
</g>
</svg>
