<?xml version="1.0" encoding="UTF-8" standalone="no"?>
<!-- Generated by graphviz version 14.1.2 (0)
 -->
<svg id="pocketlab-component-invite-state-dark" role="img" aria-labelledby="pocketlab-component-invite-state-dark-title pocketlab-component-invite-state-dark-desc" width="100%" height="auto" preserveAspectRatio="xMidYMid meet" focusable="false" viewBox="0.00 0.00 751.00 559.00" xmlns="http://www.w3.org/2000/svg" xmlns:xlink="http://www.w3.org/1999/xlink">
<title id="pocketlab-component-invite-state-dark-title">Invite and identity lifecycle connections</title>
<desc id="pocketlab-component-invite-state-dark-desc">Inputs, outputs, durable state, evidence, failure, and recovery relationships for Invite and identity lifecycle.</desc>
<metadata id="pocketlab-source-fingerprint">deef93f6bcadf656e1e3f996c6576925abd2d3f9ad55163bf9098d2fd4967237</metadata>
<g id="graph0" class="graph" transform="scale(1 1) rotate(0) translate(14.4 544.35)">
<polygon fill="#0f172a" stroke="none" points="-14.4,14.4 -14.4,-544.35 736.91,-544.35 736.91,14.4 -14.4,14.4"/>
<text xml:space="preserve" text-anchor="middle" x="361.26" y="-506.95" font-family="Arial" font-size="20.00" fill="#f8fafc">Invite and identity lifecycle connections</text>
<g id="clust1" class="cluster">
<title>cluster_control&#45;api</title>
<path fill="#111827" stroke="#64748b" stroke-dasharray="5,2" d="M241,-369.93C241,-369.93 433,-369.93 433,-369.93 439,-369.93 445,-375.93 445,-381.93 445,-381.93 445,-478.7 445,-478.7 445,-484.7 439,-490.7 433,-490.7 433,-490.7 241,-490.7 241,-490.7 235,-490.7 229,-484.7 229,-478.7 229,-478.7 229,-381.93 229,-381.93 229,-375.93 235,-369.93 241,-369.93"/>
<text xml:space="preserve" text-anchor="middle" x="337" y="-467.7" font-family="Arial" font-size="20.00" fill="#f8fafc">Control API boundary</text>
</g>
<g id="clust2" class="cluster">
<title>cluster_durable&#45;state</title>
<path fill="#111827" stroke="#64748b" stroke-dasharray="5,2" d="M20,-8C20,-8 434,-8 434,-8 440,-8 446,-14 446,-20 446,-20 446,-321.18 446,-321.18 446,-327.18 440,-333.18 434,-333.18 434,-333.18 20,-333.18 20,-333.18 14,-333.18 8,-327.18 8,-321.18 8,-321.18 8,-20 8,-20 8,-14 14,-8 20,-8"/>
<text xml:space="preserve" text-anchor="middle" x="227" y="-310.18" font-family="Arial" font-size="20.00" fill="#f8fafc">Durable&#45;state boundary</text>
</g>
<!-- api&#45;guards&#45;&gt;invite&#45;state -->
<g id="edge3" class="edge">
<title>api&#45;guards&#45;&gt;invite&#45;state</title>
<g id="a_edge3"><a xlink:title="stores invite/identity state (SQLite)">
<path fill="none" stroke="#60a5fa" stroke-width="1.15" d="M337,-369.32C337,-351.76 337,-331.16 337,-311.67"/>
<polygon fill="#60a5fa" stroke="#60a5fa" stroke-width="1.15" points="339.52,-311.75 337,-304.55 334.48,-311.75 339.52,-311.75"/>
</a>
</g>
<text xml:space="preserve" text-anchor="middle" x="381.25" y="-343.33" font-family="Arial" font-size="8.00" fill="#60a5fa">stores invite/identity state</text>
</g>
<!-- invite&#45;state&#45;&gt;device&#45;state -->
<g id="edge1" class="edge">
<title>invite&#45;state&#45;&gt;device&#45;state</title>
<g id="a_edge1"><a xlink:title="accepted enrollment (SQLite)">
<path fill="none" stroke="#60a5fa" stroke-width="1.15" d="M258.42,-179.62C239.42,-165.17 219.04,-149.67 199.77,-135.02"/>
<polygon fill="#60a5fa" stroke="#60a5fa" stroke-width="1.15" points="201.37,-133.07 194.11,-130.71 198.32,-137.08 201.37,-133.07"/>
</a>
</g>
<text xml:space="preserve" text-anchor="middle" x="262" y="-152.24" font-family="Arial" font-size="8.00" fill="#60a5fa">accepted enrollment</text>
</g>
<!-- invite&#45;state&#45;&gt;sqlite -->
<g id="edge2" class="edge">
<title>invite&#45;state&#45;&gt;sqlite</title>
<g id="a_edge2"><a xlink:title="stored in (SQLite)">
<path fill="none" stroke="#60a5fa" stroke-width="1.15" d="M339.91,-177.95C340.49,-165.69 341.11,-152.74 341.7,-140.23"/>
<polygon fill="#60a5fa" stroke="#60a5fa" stroke-width="1.15" points="344.2,-140.7 342.02,-133.39 339.16,-140.46 344.2,-140.7"/>
</a>
</g>
<text xml:space="preserve" text-anchor="middle" x="356.38" y="-152.24" font-family="Arial" font-size="8.00" fill="#60a5fa">stored in</text>
</g>
<!-- invite&#45;state&#45;&gt;state_dependency_0 -->
<g id="edge4" class="edge">
<title>invite&#45;state&#45;&gt;state_dependency_0</title>
<path fill="none" stroke="#60a5fa" stroke-width="1.15" stroke-dasharray="1,5" d="M404.97,-178.67C438.05,-149.11 475.85,-115.34 500.28,-93.52"/>
<polygon fill="#60a5fa" stroke="#60a5fa" stroke-width="1.15" points="501.81,-95.53 505.5,-88.86 498.45,-91.77 501.81,-95.53"/>
<text xml:space="preserve" text-anchor="middle" x="440.12" y="-152.24" font-family="Arial" font-size="8.00" fill="#60a5fa">state</text>
</g>
<!-- invite&#45;state&#45;&gt;state_dependency_1 -->
<g id="edge5" class="edge">
<title>invite&#45;state&#45;&gt;state_dependency_1</title>
<path fill="none" stroke="#60a5fa" stroke-width="1.15" stroke-dasharray="1,5" d="M446.91,-202.27C494.21,-184.05 549.08,-159.81 595,-131.09 611.68,-120.66 628.33,-106.2 641.09,-94.03"/>
<polygon fill="#60a5fa" stroke="#60a5fa" stroke-width="1.15" points="642.73,-95.95 646.14,-89.13 639.22,-92.34 642.73,-95.95"/>
<text xml:space="preserve" text-anchor="middle" x="570.78" y="-152.24" font-family="Arial" font-size="8.00" fill="#60a5fa">state</text>
</g>
<!-- api&#45;guards -->
<g id="node1" class="node">
<title>api&#45;guards</title>
<g id="a_node1"><a xlink:href="../../../../generated/production/architecture/components/api-guards/" xlink:title="Identity, authentication, and invite guards. Applies identity guards, duplicate checks, protected&#45;host checks, and fail&#45;closed invite/bootstrap acceptance." target="_top">
<path fill="#312e81" stroke="#94a3b8" stroke-width="1.35" d="M432.89,-459.45C432.89,-459.45 241.11,-459.45 241.11,-459.45 235.11,-459.45 229.11,-453.45 229.11,-447.45 229.11,-447.45 229.11,-381.93 229.11,-381.93 229.11,-375.93 235.11,-369.93 241.11,-369.93 241.11,-369.93 432.89,-369.93 432.89,-369.93 438.89,-369.93 444.89,-375.93 444.89,-381.93 444.89,-381.93 444.89,-447.45 444.89,-447.45 444.89,-453.45 438.89,-459.45 432.89,-459.45"/>
<image href="../icons/infra-decision.svg" x="228.25" y="-426.69" width="28" height="28" preserveAspectRatio="xMidYMid meet" aria-hidden="true"/>
<text xml:space="preserve" text-anchor="start" x="259.25" y="-411.19" font-family="Arial" font-size="10.00" fill="#f8fafc"> </text>
<text xml:space="preserve" text-anchor="start" x="336.88" y="-437.29" font-family="Arial" font-weight="bold" font-size="12.00" fill="#f8fafc">Identity,</text>
<text xml:space="preserve" text-anchor="start" x="299.75" y="-425.29" font-family="Arial" font-weight="bold" font-size="12.00" fill="#f8fafc">authentication, and...</text>
<text xml:space="preserve" text-anchor="start" x="291.5" y="-416.14" font-family="Arial" font-size="9.00" fill="#f8fafc">Applies identity guards, duplicate</text>
<text xml:space="preserve" text-anchor="start" x="287.75" y="-407.14" font-family="Arial" font-size="9.00" fill="#f8fafc">checks, protected&#45;host checks, and</text>
<text xml:space="preserve" text-anchor="start" x="302.38" y="-398.14" font-family="Arial" font-size="9.00" fill="#f8fafc">fail&#45;closed invite/bootstrap...</text>
<text xml:space="preserve" text-anchor="start" x="329.75" y="-390.09" font-family="Arial" font-style="italic" font-size="8.00" fill="#f8fafc">FastAPI process</text>
<text xml:space="preserve" text-anchor="start" x="347.38" y="-383.04" font-family="Arial" font-size="7.00" fill="#f8fafc">Service</text>
</a>
</g>
</g>
<!-- device&#45;state -->
<g id="node2" class="node">
<title>device&#45;state</title>
<g id="a_node2"><a xlink:href="../../../../generated/production/architecture/components/device-state/" xlink:title="Enrollment and device lifecycle state. Retains enrolled devices across connectivity loss and separates durable enrollment, current state, health, supervisor state, and recovery history." target="_top">
<path fill="#78350f" stroke="#94a3b8" stroke-width="1.35" d="M222.14,-119.9C222.14,-126.07 174.12,-131.09 115,-131.09 55.88,-131.09 7.86,-126.07 7.86,-119.9 7.86,-119.9 7.86,-19.19 7.86,-19.19 7.86,-13.02 55.88,-8 115,-8 174.12,-8 222.14,-13.02 222.14,-19.19 222.14,-19.19 222.14,-119.9 222.14,-119.9"/>
<path fill="none" stroke="#94a3b8" stroke-width="1.35" d="M222.14,-119.9C222.14,-113.73 174.12,-108.71 115,-108.71 55.88,-108.71 7.86,-113.73 7.86,-119.9"/>
<image href="../icons/infra-state.svg" x="7.00" y="-81.54" width="28" height="28" preserveAspectRatio="xMidYMid meet" aria-hidden="true"/>
<text xml:space="preserve" text-anchor="start" x="38" y="-66.04" font-family="Arial" font-size="10.00" fill="#f8fafc"> </text>
<text xml:space="preserve" text-anchor="start" x="73.25" y="-92.14" font-family="Arial" font-weight="bold" font-size="12.00" fill="#f8fafc">Enrollment and device</text>
<text xml:space="preserve" text-anchor="start" x="98.38" y="-80.14" font-family="Arial" font-weight="bold" font-size="12.00" fill="#f8fafc">lifecycle state</text>
<text xml:space="preserve" text-anchor="start" x="71.75" y="-70.99" font-family="Arial" font-size="9.00" fill="#f8fafc">Retains enrolled devices across</text>
<text xml:space="preserve" text-anchor="start" x="73.25" y="-61.99" font-family="Arial" font-size="9.00" fill="#f8fafc">connectivity loss and separates</text>
<text xml:space="preserve" text-anchor="start" x="66.5" y="-52.99" font-family="Arial" font-size="9.00" fill="#f8fafc">durable enrollment, current state,...</text>
<text xml:space="preserve" text-anchor="start" x="125" y="-44.94" font-family="Arial" font-style="italic" font-size="8.00" fill="#f8fafc">SQLite</text>
<text xml:space="preserve" text-anchor="start" x="122" y="-37.89" font-family="Arial" font-size="7.00" fill="#f8fafc">Database</text>
</a>
</g>
</g>
<!-- invite&#45;state -->
<g id="node3" class="node">
<title>invite&#45;state</title>
<g id="a_node3"><a xlink:href="../../../../generated/production/architecture/components/invite-state/" xlink:title="Invite and identity lifecycle. Tracks pending, accepted, revoked, blocked, and consumed invite/identity state with duplicate and mismatch guards." target="_top">
<path fill="#78350f" stroke="#f8fafc" stroke-width="2.3" d="M446.01,-290.74C446.01,-296.91 397.15,-301.93 337,-301.93 276.85,-301.93 227.99,-296.91 227.99,-290.74 227.99,-290.74 227.99,-190.03 227.99,-190.03 227.99,-183.86 276.85,-178.84 337,-178.84 397.15,-178.84 446.01,-183.86 446.01,-190.03 446.01,-190.03 446.01,-290.74 446.01,-290.74"/>
<path fill="none" stroke="#f8fafc" stroke-width="2.3" d="M446.01,-290.74C446.01,-284.57 397.15,-279.55 337,-279.55 276.85,-279.55 227.99,-284.57 227.99,-290.74"/>
<image href="../icons/infra-state.svg" x="227.12" y="-252.38" width="28" height="28" preserveAspectRatio="xMidYMid meet" aria-hidden="true"/>
<text xml:space="preserve" text-anchor="start" x="258.12" y="-236.88" font-family="Arial" font-size="10.00" fill="#f8fafc"> </text>
<text xml:space="preserve" text-anchor="start" x="308.75" y="-262.99" font-family="Arial" font-weight="bold" font-size="12.00" fill="#f8fafc">Invite and identity</text>
<text xml:space="preserve" text-anchor="start" x="335.75" y="-250.99" font-family="Arial" font-weight="bold" font-size="12.00" fill="#f8fafc">lifecycle</text>
<text xml:space="preserve" text-anchor="start" x="286.62" y="-241.84" font-family="Arial" font-size="9.00" fill="#f8fafc">Tracks pending, accepted, revoked,</text>
<text xml:space="preserve" text-anchor="start" x="310.25" y="-232.84" font-family="Arial" font-size="9.00" fill="#f8fafc">blocked, and consumed</text>
<text xml:space="preserve" text-anchor="start" x="308.75" y="-223.84" font-family="Arial" font-size="9.00" fill="#f8fafc">invite/identity state with...</text>
<text xml:space="preserve" text-anchor="start" x="347" y="-215.78" font-family="Arial" font-style="italic" font-size="8.00" fill="#f8fafc">SQLite</text>
<text xml:space="preserve" text-anchor="start" x="344" y="-208.73" font-family="Arial" font-size="7.00" fill="#f8fafc">Database</text>
</a>
</g>
</g>
<!-- sqlite -->
<g id="node4" class="node">
<title>sqlite</title>
<g id="a_node4"><a xlink:href="../../../../generated/production/architecture/components/sqlite/" xlink:title="SQLite control&#45;plane store. Stores canonical Lite lifecycle state and prepared projections; the frontend never accesses it directly." target="_top">
<path fill="#78350f" stroke="#94a3b8" stroke-width="1.35" d="M445.76,-119.9C445.76,-126.07 400.6,-131.09 345,-131.09 289.4,-131.09 244.24,-126.07 244.24,-119.9 244.24,-119.9 244.24,-19.19 244.24,-19.19 244.24,-13.02 289.4,-8 345,-8 400.6,-8 445.76,-13.02 445.76,-19.19 445.76,-19.19 445.76,-119.9 445.76,-119.9"/>
<path fill="none" stroke="#94a3b8" stroke-width="1.35" d="M445.76,-119.9C445.76,-113.73 400.6,-108.71 345,-108.71 289.4,-108.71 244.24,-113.73 244.24,-119.9"/>
<image href="../icons/infra-sqlite.svg" x="243.38" y="-81.54" width="28" height="28" preserveAspectRatio="xMidYMid meet" aria-hidden="true"/>
<text xml:space="preserve" text-anchor="start" x="274.38" y="-66.04" font-family="Arial" font-size="10.00" fill="#f8fafc"> </text>
<text xml:space="preserve" text-anchor="start" x="308.5" y="-92.14" font-family="Arial" font-weight="bold" font-size="12.00" fill="#f8fafc">SQLite control&#45;plane</text>
<text xml:space="preserve" text-anchor="start" x="352.38" y="-80.14" font-family="Arial" font-weight="bold" font-size="12.00" fill="#f8fafc">store</text>
<text xml:space="preserve" text-anchor="start" x="306.62" y="-70.99" font-family="Arial" font-size="9.00" fill="#f8fafc">Stores canonical Lite lifecycle</text>
<text xml:space="preserve" text-anchor="start" x="303.62" y="-61.99" font-family="Arial" font-size="9.00" fill="#f8fafc">state and prepared projections;</text>
<text xml:space="preserve" text-anchor="start" x="302.88" y="-52.99" font-family="Arial" font-size="9.00" fill="#f8fafc">the frontend never accesses it...</text>
<text xml:space="preserve" text-anchor="start" x="346.38" y="-44.94" font-family="Arial" font-style="italic" font-size="8.00" fill="#f8fafc">Server host</text>
<text xml:space="preserve" text-anchor="start" x="352" y="-37.89" font-family="Arial" font-size="7.00" fill="#f8fafc">Database</text>
</a>
</g>
</g>
<!-- state_dependency_0 -->
<g id="node5" class="node">
<title>state_dependency_0</title>
<g id="a_node5"><a xlink:title="Durable&#45;state dependency">
<polygon fill="#78350f" stroke="#94a3b8" points="577.76,-87.54 468.24,-87.54 468.24,-51.54 583.76,-51.54 583.76,-81.54 577.76,-87.54"/>
<polyline fill="none" stroke="#94a3b8" points="577.76,-87.54 577.76,-81.54"/>
<polyline fill="none" stroke="#94a3b8" points="583.76,-81.54 577.76,-81.54"/>
<text xml:space="preserve" text-anchor="middle" x="526" y="-66.04" font-family="Arial" font-size="10.00" fill="#f8fafc">device_invite_lifecycle</text>
</a>
</g>
</g>
<!-- state_dependency_1 -->
<g id="node6" class="node">
<title>state_dependency_1</title>
<g id="a_node6"><a xlink:title="Durable&#45;state dependency">
<polygon fill="#78350f" stroke="#94a3b8" points="716.51,-87.54 605.49,-87.54 605.49,-51.54 722.51,-51.54 722.51,-81.54 716.51,-87.54"/>
<polyline fill="none" stroke="#94a3b8" points="716.51,-87.54 716.51,-81.54"/>
<polyline fill="none" stroke="#94a3b8" points="722.51,-81.54 716.51,-81.54"/>
<text xml:space="preserve" text-anchor="middle" x="664" y="-66.04" font-family="Arial" font-size="10.00" fill="#f8fafc">device_identity_guards</text>
</a>
</g>
</g>
</g>
</svg>
