<?xml version="1.0" encoding="UTF-8" standalone="no"?>
<!-- Generated by graphviz version 14.1.2 (0)
 -->
<svg id="pocketlab-component-nats-jetstream-dark" role="img" aria-labelledby="pocketlab-component-nats-jetstream-dark-title pocketlab-component-nats-jetstream-dark-desc" width="100%" height="auto" preserveAspectRatio="xMidYMid meet" focusable="false" viewBox="0.00 0.00 1344.00 663.00" xmlns="http://www.w3.org/2000/svg" xmlns:xlink="http://www.w3.org/1999/xlink">
<title id="pocketlab-component-nats-jetstream-dark-title">NATS / JetStream connections</title>
<desc id="pocketlab-component-nats-jetstream-dark-desc">Inputs, outputs, durable state, evidence, failure, and recovery relationships for NATS / JetStream.</desc>
<metadata id="pocketlab-source-fingerprint">10c0f109ceb8372ab9d1923bb61272d543fe46d0632b635a4e641b4394a047e4</metadata>
<g id="graph0" class="graph" transform="scale(1 1) rotate(0) translate(14.4 648.44)">
<polygon fill="#0f172a" stroke="none" points="-14.4,14.4 -14.4,-648.44 1329.4,-648.44 1329.4,14.4 -14.4,14.4"/>
<text xml:space="preserve" text-anchor="middle" x="657.5" y="-611.04" font-family="Arial" font-size="20.00" fill="#f8fafc">NATS / JetStream connections</text>
<g id="clust1" class="cluster">
<title>cluster_control&#45;api</title>
<path fill="#111827" stroke="#64748b" stroke-dasharray="5,2" d="M250,-439.76C250,-439.76 448,-439.76 448,-439.76 454,-439.76 460,-445.76 460,-451.76 460,-451.76 460,-541.53 460,-541.53 460,-547.53 454,-553.53 448,-553.53 448,-553.53 250,-553.53 250,-553.53 244,-553.53 238,-547.53 238,-541.53 238,-541.53 238,-451.76 238,-451.76 238,-445.76 244,-439.76 250,-439.76"/>
<text xml:space="preserve" text-anchor="middle" x="349" y="-530.53" font-family="Arial" font-size="20.00" fill="#f8fafc">Control API boundary</text>
</g>
<g id="clust2" class="cluster">
<title>cluster_durable&#45;state</title>
<path fill="#111827" stroke="#64748b" stroke-dasharray="5,2" d="M20,-8C20,-8 221,-8 221,-8 227,-8 233,-14 233,-20 233,-20 233,-140.71 233,-140.71 233,-146.71 227,-152.71 221,-152.71 221,-152.71 20,-152.71 20,-152.71 14,-152.71 8,-146.71 8,-140.71 8,-140.71 8,-20 8,-20 8,-14 14,-8 20,-8"/>
<text xml:space="preserve" text-anchor="middle" x="120.5" y="-129.71" font-family="Arial" font-size="20.00" fill="#f8fafc">Durable&#45;state boundary</text>
</g>
<g id="clust3" class="cluster">
<title>cluster_managed&#45;device</title>
<path fill="#111827" stroke="#64748b" stroke-dasharray="5,2" d="M861,-23.47C861,-23.47 1295,-23.47 1295,-23.47 1301,-23.47 1307,-29.47 1307,-35.47 1307,-35.47 1307,-582.79 1307,-582.79 1307,-588.79 1301,-594.79 1295,-594.79 1295,-594.79 861,-594.79 861,-594.79 855,-594.79 849,-588.79 849,-582.79 849,-582.79 849,-35.47 849,-35.47 849,-29.47 855,-23.47 861,-23.47"/>
<text xml:space="preserve" text-anchor="middle" x="1078" y="-571.79" font-family="Arial" font-size="20.00" fill="#f8fafc">Managed&#45;device boundary</text>
</g>
<g id="clust4" class="cluster">
<title>cluster_messaging&#45;execution</title>
<path fill="#111827" stroke="#64748b" stroke-dasharray="5,2" d="M429,-29.47C429,-29.47 837,-29.47 837,-29.47 843,-29.47 849,-35.47 849,-41.47 849,-41.47 849,-349.75 849,-349.75 849,-355.75 843,-361.75 837,-361.75 837,-361.75 429,-361.75 429,-361.75 423,-361.75 417,-355.75 417,-349.75 417,-349.75 417,-41.47 417,-41.47 417,-35.47 423,-29.47 429,-29.47"/>
<text xml:space="preserve" text-anchor="middle" x="633" y="-338.75" font-family="Arial" font-size="20.00" fill="#f8fafc">Messaging and execution boundary</text>
</g>
<g id="clust5" class="cluster">
<title>cluster_server&#45;host</title>
<path fill="#111827" stroke="#64748b" stroke-dasharray="5,2" d="M494,-413.65C494,-413.65 802,-413.65 802,-413.65 808,-413.65 814,-419.65 814,-425.65 814,-425.65 814,-567.65 814,-567.65 814,-573.65 808,-579.65 802,-579.65 802,-579.65 494,-579.65 494,-579.65 488,-579.65 482,-573.65 482,-567.65 482,-567.65 482,-425.65 482,-425.65 482,-419.65 488,-413.65 494,-413.65"/>
<text xml:space="preserve" text-anchor="middle" x="648" y="-556.65" font-family="Arial" font-size="20.00" fill="#f8fafc">Server&#45;host boundary</text>
</g>
<!-- api&#45;domain&#45;surfaces&#45;&gt;nats&#45;jetstream -->
<g id="edge2" class="edge">
<title>api&#45;domain&#45;surfaces&#45;&gt;nats&#45;jetstream</title>
<g id="a_edge2"><a xlink:title="publishes validated command (NATS)">
<path fill="none" stroke="#cbd5e1" stroke-width="1.15" d="M401.75,-439.34C439.06,-410.57 490.18,-371.13 534.88,-336.66"/>
<polygon fill="#cbd5e1" stroke="#cbd5e1" stroke-width="1.15" points="536.17,-338.85 540.33,-332.46 533.09,-334.86 536.17,-338.85"/>
</a>
</g>
<text xml:space="preserve" text-anchor="middle" x="543.12" y="-371.9" font-family="Arial" font-size="8.00" fill="#cbd5e1">publishes validated command</text>
</g>
<!-- agent&#45;signals&#45;&gt;nats&#45;jetstream -->
<g id="edge6" class="edge">
<title>agent&#45;signals&#45;&gt;nats&#45;jetstream</title>
<g id="a_edge6"><a xlink:title="heartbeat/telemetry/health (NATS)">
<path fill="none" stroke="#6ee7b7" stroke-width="1.15" stroke-dasharray="5,2" d="M911.35,-398C869.62,-377.46 825.1,-355.54 784.17,-335.4"/>
<polygon fill="#6ee7b7" stroke="#6ee7b7" stroke-width="1.15" points="785.44,-333.21 777.87,-332.29 783.21,-337.73 785.44,-333.21"/>
</a>
</g>
<text xml:space="preserve" text-anchor="middle" x="915.72" y="-371.9" font-family="Arial" font-size="8.00" fill="#6ee7b7">heartbeat/telemetry/health</text>
</g>
<!-- nats&#45;jetstream&#45;&gt;device&#45;state -->
<g id="edge3" class="edge">
<title>nats&#45;jetstream&#45;&gt;device&#45;state</title>
<g id="a_edge3"><a xlink:title="fleet events projected (NATS/SQLite)">
<path fill="none" stroke="#60a5fa" stroke-width="1.15" d="M435.83,-221.94C370.32,-205.56 298.24,-182.97 236,-152.71 221.06,-145.45 206.11,-136.15 192.16,-126.35"/>
<polygon fill="#60a5fa" stroke="#60a5fa" stroke-width="1.15" points="193.69,-124.35 186.37,-122.2 190.75,-128.44 193.69,-124.35"/>
</a>
</g>
<text xml:space="preserve" text-anchor="middle" x="304.12" y="-162.86" font-family="Arial" font-size="8.00" fill="#60a5fa">fleet events projected</text>
</g>
<!-- nats&#45;jetstream&#45;&gt;agent&#45;command&#45;executor -->
<g id="edge1" class="edge">
<title>nats&#45;jetstream&#45;&gt;agent&#45;command&#45;executor</title>
<g id="a_edge1"><a xlink:title="delivers device command (NATS)">
<path fill="none" stroke="#cbd5e1" stroke-width="1.15" d="M766.46,-196.65C792.96,-183.01 820.23,-168.04 845,-152.71 864.92,-140.39 885.69,-125.53 904.06,-111.61"/>
<polygon fill="#cbd5e1" stroke="#cbd5e1" stroke-width="1.15" points="905.13,-113.96 909.33,-107.58 902.08,-109.95 905.13,-113.96"/>
</a>
</g>
<text xml:space="preserve" text-anchor="middle" x="873.17" y="-162.86" font-family="Arial" font-size="8.00" fill="#cbd5e1">delivers device command</text>
</g>
<!-- nats&#45;jetstream&#45;&gt;worker -->
<g id="edge5" class="edge">
<title>nats&#45;jetstream&#45;&gt;worker</title>
<g id="a_edge5"><a xlink:title="durable delivery (JetStream)">
<path fill="none" stroke="#cbd5e1" stroke-width="1.15" d="M633,-188.4C633,-161.82 633,-132.4 633,-109.03"/>
<polygon fill="#cbd5e1" stroke="#cbd5e1" stroke-width="1.15" points="635.52,-109.34 633,-102.14 630.48,-109.34 635.52,-109.34"/>
</a>
</g>
<text xml:space="preserve" text-anchor="middle" x="661.12" y="-162.86" font-family="Arial" font-size="8.00" fill="#cbd5e1">durable delivery</text>
</g>
<!-- nats&#45;jetstream&#45;&gt;state_dependency_0 -->
<g id="edge7" class="edge">
<title>nats&#45;jetstream&#45;&gt;state_dependency_0</title>
<path fill="none" stroke="#60a5fa" stroke-width="1.15" stroke-dasharray="1,5" d="M478.02,-188.39C458.27,-177.36 438.77,-165.38 421,-152.71 395.15,-134.29 369.65,-108.35 352.62,-89.6"/>
<polygon fill="#60a5fa" stroke="#60a5fa" stroke-width="1.15" points="354.58,-88.02 347.9,-84.34 350.83,-91.39 354.58,-88.02"/>
<text xml:space="preserve" text-anchor="middle" x="450.91" y="-162.86" font-family="Arial" font-size="8.00" fill="#60a5fa">state</text>
</g>
<!-- nats&#45;listeners&#45;&gt;nats&#45;jetstream -->
<g id="edge4" class="edge">
<title>nats&#45;listeners&#45;&gt;nats&#45;jetstream</title>
<g id="a_edge4"><a xlink:title="listener endpoints (NATS)">
<path fill="none" stroke="#cbd5e1" stroke-width="1.15" d="M643.42,-413.12C641.84,-390.03 640.05,-363.96 638.41,-340"/>
<polygon fill="#cbd5e1" stroke="#cbd5e1" stroke-width="1.15" points="640.94,-340.03 637.93,-333.02 635.91,-340.37 640.94,-340.03"/>
</a>
</g>
<text xml:space="preserve" text-anchor="middle" x="672.07" y="-371.9" font-family="Arial" font-size="8.00" fill="#cbd5e1">listener endpoints</text>
</g>
<!-- api&#45;domain&#45;surfaces -->
<g id="node1" class="node">
<title>api&#45;domain&#45;surfaces</title>
<g id="a_node1"><a xlink:href="../../../../generated/production/architecture/components/api-domain-surfaces/" xlink:title="Fleet, Apps, Security, Recovery, and Release APIs. Exposes domain&#45;specific read and command endpoints while preserving backend&#45;owned lifecycle execution." target="_top">
<path fill="#312e81" stroke="#94a3b8" stroke-width="1.15" d="M448.14,-522.28C448.14,-522.28 249.86,-522.28 249.86,-522.28 243.86,-522.28 237.86,-516.28 237.86,-510.28 237.86,-510.28 237.86,-451.76 237.86,-451.76 237.86,-445.76 243.86,-439.76 249.86,-439.76 249.86,-439.76 448.14,-439.76 448.14,-439.76 454.14,-439.76 460.14,-445.76 460.14,-451.76 460.14,-451.76 460.14,-510.28 460.14,-510.28 460.14,-516.28 454.14,-522.28 448.14,-522.28"/>
<image href="../icons/generic-service.svg" x="235.00" y="-493.02" width="24" height="24" preserveAspectRatio="xMidYMid meet" aria-hidden="true"/>
<text xml:space="preserve" text-anchor="start" x="266" y="-477.52" font-family="Arial" font-size="10.00" fill="#f8fafc"> </text>
<text xml:space="preserve" text-anchor="start" x="309" y="-500.12" font-family="Arial" font-weight="bold" font-size="12.00" fill="#f8fafc">Fleet, Apps, Security,</text>
<text xml:space="preserve" text-anchor="start" x="299.25" y="-488.12" font-family="Arial" font-weight="bold" font-size="12.00" fill="#f8fafc">Recovery, and Release...</text>
<text xml:space="preserve" text-anchor="start" x="298.5" y="-478.97" font-family="Arial" font-size="9.00" fill="#f8fafc">Exposes domain&#45;specific read and</text>
<text xml:space="preserve" text-anchor="start" x="292.5" y="-469.97" font-family="Arial" font-size="9.00" fill="#f8fafc">command endpoints while preserving</text>
<text xml:space="preserve" text-anchor="start" x="296.25" y="-460.97" font-family="Arial" font-size="9.00" fill="#f8fafc">backend&#45;owned lifecycle execution.</text>
<text xml:space="preserve" text-anchor="start" x="339.75" y="-452.92" font-family="Arial" font-size="8.00" fill="#f8fafc">FastAPI process</text>
</a>
</g>
</g>
<!-- device&#45;state -->
<g id="node2" class="node">
<title>device&#45;state</title>
<g id="a_node2"><a xlink:href="../../../../generated/production/architecture/components/device-state/" xlink:title="Enrollment and device lifecycle state. Retains enrolled devices across connectivity loss and separates durable enrollment, current state, health, supervisor state, and recovery history." target="_top">
<path fill="#78350f" stroke="#94a3b8" stroke-width="1.15" d="M225.14,-111.15C225.14,-116.84 178.01,-121.46 120,-121.46 61.99,-121.46 14.86,-116.84 14.86,-111.15 14.86,-111.15 14.86,-18.31 14.86,-18.31 14.86,-12.62 61.99,-8 120,-8 178.01,-8 225.14,-12.62 225.14,-18.31 225.14,-18.31 225.14,-111.15 225.14,-111.15"/>
<path fill="none" stroke="#94a3b8" stroke-width="1.15" d="M225.14,-111.15C225.14,-105.46 178.01,-100.83 120,-100.83 61.99,-100.83 14.86,-105.46 14.86,-111.15"/>
<image href="../icons/generic-database.svg" x="12.00" y="-76.73" width="24" height="24" preserveAspectRatio="xMidYMid meet" aria-hidden="true"/>
<text xml:space="preserve" text-anchor="start" x="43" y="-61.23" font-family="Arial" font-size="10.00" fill="#f8fafc"> </text>
<text xml:space="preserve" text-anchor="start" x="76.25" y="-83.83" font-family="Arial" font-weight="bold" font-size="12.00" fill="#f8fafc">Enrollment and device</text>
<text xml:space="preserve" text-anchor="start" x="101.38" y="-71.83" font-family="Arial" font-weight="bold" font-size="12.00" fill="#f8fafc">lifecycle state</text>
<text xml:space="preserve" text-anchor="start" x="74.75" y="-62.68" font-family="Arial" font-size="9.00" fill="#f8fafc">Retains enrolled devices across</text>
<text xml:space="preserve" text-anchor="start" x="76.25" y="-53.68" font-family="Arial" font-size="9.00" fill="#f8fafc">connectivity loss and separates</text>
<text xml:space="preserve" text-anchor="start" x="69.5" y="-44.68" font-family="Arial" font-size="9.00" fill="#f8fafc">durable enrollment, current state,...</text>
<text xml:space="preserve" text-anchor="start" x="128" y="-36.63" font-family="Arial" font-size="8.00" fill="#f8fafc">SQLite</text>
</a>
</g>
</g>
<!-- agent&#45;command&#45;executor -->
<g id="node3" class="node">
<title>agent&#45;command&#45;executor</title>
<g id="a_node3"><a xlink:href="../../../../generated/production/architecture/components/agent-command-executor/" xlink:title="Device command executor. Executes approved device commands in the node agent and publishes truthful results." target="_top">
<polygon fill="#14532d" stroke="#94a3b8" stroke-width="1.15" points="1073.27,-105.99 848.74,-105.99 848.74,-101.99 844.74,-101.99 844.74,-97.99 848.74,-97.99 848.74,-31.47 844.74,-31.47 844.74,-27.47 848.74,-27.47 848.74,-23.47 1073.27,-23.47 1073.27,-105.99"/>
<polyline fill="none" stroke="#94a3b8" stroke-width="1.15" points="848.74,-101.99 852.74,-101.99 852.74,-97.99 848.74,-97.99"/>
<polyline fill="none" stroke="#94a3b8" stroke-width="1.15" points="848.74,-31.47 852.74,-31.47 852.74,-27.47 848.74,-27.47"/>
<image href="../icons/generic-process.svg" x="845.88" y="-76.73" width="24" height="24" preserveAspectRatio="xMidYMid meet" aria-hidden="true"/>
<text xml:space="preserve" text-anchor="start" x="876.88" y="-61.23" font-family="Arial" font-size="10.00" fill="#f8fafc"> </text>
<text xml:space="preserve" text-anchor="start" x="931.5" y="-83.83" font-family="Arial" font-weight="bold" font-size="12.00" fill="#f8fafc">Device command</text>
<text xml:space="preserve" text-anchor="start" x="955.88" y="-71.83" font-family="Arial" font-weight="bold" font-size="12.00" fill="#f8fafc">executor</text>
<text xml:space="preserve" text-anchor="start" x="903.38" y="-62.68" font-family="Arial" font-size="9.00" fill="#f8fafc">Executes approved device commands</text>
<text xml:space="preserve" text-anchor="start" x="915.38" y="-53.68" font-family="Arial" font-size="9.00" fill="#f8fafc">in the node agent and publishes</text>
<text xml:space="preserve" text-anchor="start" x="951.38" y="-44.68" font-family="Arial" font-size="9.00" fill="#f8fafc">truthful results.</text>
<text xml:space="preserve" text-anchor="start" x="960" y="-36.63" font-family="Arial" font-size="8.00" fill="#f8fafc">Node agent</text>
</a>
</g>
</g>
<!-- agent&#45;signals -->
<g id="node4" class="node">
<title>agent&#45;signals</title>
<g id="a_node4"><a xlink:href="../../../../generated/production/architecture/components/agent-signals/" xlink:title="Heartbeat, telemetry, and health publishers. Publish fresh runtime signals used to derive Online, Offline, Stale, Agent stopped, and Remote access not ready states." target="_top">
<path fill="#831843" stroke="#94a3b8" stroke-width="1.15" d="M1294.89,-563.54C1294.89,-563.54 954.77,-563.54 954.77,-563.54 948.77,-563.54 939.81,-558.33 936.85,-553.11 936.85,-553.11 855.03,-408.94 855.03,-408.94 852.07,-403.72 855.11,-398.5 861.11,-398.5 861.11,-398.5 1201.23,-398.5 1201.23,-398.5 1207.23,-398.5 1216.19,-403.72 1219.15,-408.94 1219.15,-408.94 1300.97,-553.11 1300.97,-553.11 1303.93,-558.33 1300.89,-563.54 1294.89,-563.54"/>
<image href="../icons/generic-event.svg" x="964.75" y="-493.02" width="24" height="24" preserveAspectRatio="xMidYMid meet" aria-hidden="true"/>
<text xml:space="preserve" text-anchor="start" x="995.75" y="-477.52" font-family="Arial" font-size="10.00" fill="#f8fafc"> </text>
<text xml:space="preserve" text-anchor="start" x="1039.88" y="-500.12" font-family="Arial" font-weight="bold" font-size="12.00" fill="#f8fafc">Heartbeat, telemetry,</text>
<text xml:space="preserve" text-anchor="start" x="1036.12" y="-488.12" font-family="Arial" font-weight="bold" font-size="12.00" fill="#f8fafc">and health publishers</text>
<text xml:space="preserve" text-anchor="start" x="1027.88" y="-478.97" font-family="Arial" font-size="9.00" fill="#f8fafc">Publish fresh runtime signals used</text>
<text xml:space="preserve" text-anchor="start" x="1036.5" y="-469.97" font-family="Arial" font-size="9.00" fill="#f8fafc">to derive Online, Offline, Stale,</text>
<text xml:space="preserve" text-anchor="start" x="1022.25" y="-460.97" font-family="Arial" font-size="9.00" fill="#f8fafc">Agent stopped, and Remote access...</text>
<text xml:space="preserve" text-anchor="start" x="1077" y="-452.92" font-family="Arial" font-size="8.00" fill="#f8fafc">Node agent</text>
</a>
</g>
</g>
<!-- nats&#45;jetstream -->
<g id="node5" class="node">
<title>nats&#45;jetstream</title>
<g id="a_node5"><a xlink:href="../../../../generated/production/architecture/components/nats-jetstream/" xlink:title="NATS / JetStream. Provides the command and event backbone with durable delivery; it is never contacted directly by the frontend." target="_top">
<path fill="#831843" stroke="#f8fafc" stroke-width="2.2" d="M837.45,-330.5C837.45,-330.5 517.12,-330.5 517.12,-330.5 511.12,-330.5 501.93,-325.42 498.74,-320.34 498.74,-320.34 422.93,-199.63 422.93,-199.63 419.74,-194.55 422.55,-189.47 428.55,-189.47 428.55,-189.47 748.88,-189.46 748.88,-189.46 754.88,-189.46 764.07,-194.55 767.26,-199.63 767.26,-199.63 843.07,-320.34 843.07,-320.34 846.26,-325.42 843.45,-330.5 837.45,-330.5"/>
<image href="../icons/generic-event.svg" x="525.75" y="-271.98" width="24" height="24" preserveAspectRatio="xMidYMid meet" aria-hidden="true"/>
<text xml:space="preserve" text-anchor="start" x="556.75" y="-256.48" font-family="Arial" font-size="10.00" fill="#f8fafc"> </text>
<text xml:space="preserve" text-anchor="start" x="603.5" y="-273.08" font-family="Arial" font-weight="bold" font-size="12.00" fill="#f8fafc">NATS / JetStream</text>
<text xml:space="preserve" text-anchor="start" x="584.75" y="-263.94" font-family="Arial" font-size="9.00" fill="#f8fafc">Provides the command and event</text>
<text xml:space="preserve" text-anchor="start" x="584.75" y="-254.94" font-family="Arial" font-size="9.00" fill="#f8fafc">backbone with durable delivery; it</text>
<text xml:space="preserve" text-anchor="start" x="583.25" y="-245.94" font-family="Arial" font-size="9.00" fill="#f8fafc">is never contacted directly by the...</text>
<text xml:space="preserve" text-anchor="start" x="632.38" y="-237.88" font-family="Arial" font-size="8.00" fill="#f8fafc">Server host</text>
</a>
</g>
</g>
<!-- worker -->
<g id="node6" class="node">
<title>worker</title>
<g id="a_node6"><a xlink:href="../../../../generated/production/architecture/components/worker/" xlink:title="Worker process. Consumes durable commands and owns backend execution for apps, security, recovery, releases, and lifecycle work." target="_top">
<polygon fill="#14532d" stroke="#94a3b8" stroke-width="1.15" points="751.26,-99.99 514.74,-99.99 514.74,-95.99 510.74,-95.99 510.74,-91.99 514.74,-91.99 514.74,-37.47 510.74,-37.47 510.74,-33.47 514.74,-33.47 514.74,-29.47 751.26,-29.47 751.26,-99.99"/>
<polyline fill="none" stroke="#94a3b8" stroke-width="1.15" points="514.74,-95.99 518.74,-95.99 518.74,-91.99 514.74,-91.99"/>
<polyline fill="none" stroke="#94a3b8" stroke-width="1.15" points="514.74,-37.47 518.74,-37.47 518.74,-33.47 514.74,-33.47"/>
<image href="../icons/generic-process.svg" x="511.88" y="-76.73" width="24" height="24" preserveAspectRatio="xMidYMid meet" aria-hidden="true"/>
<text xml:space="preserve" text-anchor="start" x="542.88" y="-61.23" font-family="Arial" font-size="10.00" fill="#f8fafc"> </text>
<text xml:space="preserve" text-anchor="start" x="607.62" y="-77.83" font-family="Arial" font-weight="bold" font-size="12.00" fill="#f8fafc">Worker process</text>
<text xml:space="preserve" text-anchor="start" x="569.38" y="-68.68" font-family="Arial" font-size="9.00" fill="#f8fafc">Consumes durable commands and owns</text>
<text xml:space="preserve" text-anchor="start" x="595.62" y="-59.68" font-family="Arial" font-size="9.00" fill="#f8fafc">backend execution for apps,</text>
<text xml:space="preserve" text-anchor="start" x="584.75" y="-50.68" font-family="Arial" font-size="9.00" fill="#f8fafc">security, recovery, releases, and...</text>
<text xml:space="preserve" text-anchor="start" x="632.38" y="-42.63" font-family="Arial" font-size="8.00" fill="#f8fafc">Server host</text>
</a>
</g>
</g>
<!-- nats&#45;listeners -->
<g id="node7" class="node">
<title>nats&#45;listeners</title>
<g id="a_node7"><a xlink:href="../../../../generated/production/architecture/components/nats-listeners/" xlink:title="Primary and secondary NATS listeners. Exposes local and verified Tailnet&#45;reachable NATS listeners for agents without hardcoding credentials or addresses." target="_top">
<path fill="#155e75" stroke="#94a3b8" stroke-width="1.15" d="M804.26,-488.6C804.26,-488.6 740.09,-540.83 740.09,-540.83 735.44,-544.61 724.78,-548.4 718.78,-548.4 718.78,-548.4 577.22,-548.4 577.22,-548.4 571.22,-548.4 560.56,-544.61 555.91,-540.83 555.91,-540.83 491.74,-488.6 491.74,-488.6 487.08,-484.81 487.08,-477.24 491.74,-473.45 491.74,-473.45 555.91,-421.22 555.91,-421.22 560.56,-417.44 571.22,-413.65 577.22,-413.65 577.22,-413.65 718.78,-413.65 718.78,-413.65 724.78,-413.65 735.44,-417.44 740.09,-421.22 740.09,-421.22 804.26,-473.45 804.26,-473.45 808.92,-477.24 808.92,-484.81 804.26,-488.6"/>
<image href="../icons/generic-network.svg" x="543.75" y="-493.02" width="24" height="24" preserveAspectRatio="xMidYMid meet" aria-hidden="true"/>
<text xml:space="preserve" text-anchor="start" x="574.75" y="-477.52" font-family="Arial" font-size="10.00" fill="#f8fafc"> </text>
<text xml:space="preserve" text-anchor="start" x="601.62" y="-500.12" font-family="Arial" font-weight="bold" font-size="12.00" fill="#f8fafc">Primary and secondary</text>
<text xml:space="preserve" text-anchor="start" x="626" y="-488.12" font-family="Arial" font-weight="bold" font-size="12.00" fill="#f8fafc">NATS listeners</text>
<text xml:space="preserve" text-anchor="start" x="614.38" y="-478.97" font-family="Arial" font-size="9.00" fill="#f8fafc">Exposes local and verified</text>
<text xml:space="preserve" text-anchor="start" x="601.25" y="-469.97" font-family="Arial" font-size="9.00" fill="#f8fafc">Tailnet&#45;reachable NATS listeners</text>
<text xml:space="preserve" text-anchor="start" x="604.25" y="-460.97" font-family="Arial" font-size="9.00" fill="#f8fafc">for agents without hardcoding...</text>
<text xml:space="preserve" text-anchor="start" x="647.38" y="-452.92" font-family="Arial" font-size="8.00" fill="#f8fafc">Server host</text>
</a>
</g>
</g>
<!-- state_dependency_0 -->
<g id="node8" class="node">
<title>state_dependency_0</title>
<g id="a_node8"><a xlink:title="Durable&#45;state dependency">
<polygon fill="#78350f" stroke="#94a3b8" points="411.14,-82.73 246.86,-82.73 246.86,-46.73 417.14,-46.73 417.14,-76.73 411.14,-82.73"/>
<polyline fill="none" stroke="#94a3b8" points="411.14,-82.73 411.14,-76.73"/>
<polyline fill="none" stroke="#94a3b8" points="417.14,-76.73 411.14,-76.73"/>
<text xml:space="preserve" text-anchor="middle" x="332" y="-61.23" font-family="Arial" font-size="10.00" fill="#f8fafc">JetStream streams and consumers</text>
</a>
</g>
</g>
</g>
</svg>
