<?xml version="1.0" encoding="UTF-8" standalone="no"?>
<!-- Generated by graphviz version 14.1.2 (0)
 -->
<svg id="pocketlab-component-pm2-light" role="img" aria-labelledby="pocketlab-component-pm2-light-title pocketlab-component-pm2-light-desc" width="1042pt" height="334pt"
 viewBox="0.00 0.00 1042.00 334.00" xmlns="http://www.w3.org/2000/svg" xmlns:xlink="http://www.w3.org/1999/xlink">
<title id="pocketlab-component-pm2-light-title">PM2 process manager connections</title>
<desc id="pocketlab-component-pm2-light-desc">Inputs, outputs, durable state, evidence, failure, and recovery relationships for PM2 process manager.</desc>
<metadata id="pocketlab-source-fingerprint">d7867716057aa72a49794809d1828370ed2cc8925fa84786edf18f14471fe052</metadata>
<g id="graph0" class="graph" transform="scale(1 1) rotate(0) translate(18 316.25)">
<polygon fill="#ffffff" stroke="none" points="-18,18 -18,-316.25 1024.06,-316.25 1024.06,18 -18,18"/>
<text xml:space="preserve" text-anchor="middle" x="503.03" y="-275.25" font-family="Arial" font-size="20.00" fill="#172033">PM2 process manager connections</text>
<g id="clust1" class="cluster">
<title>cluster_application&#45;container</title>
<path fill="#f8fafc" stroke="#94a3b8" stroke-dasharray="5,2" d="M575.9,-174C575.9,-174 982.68,-174 982.68,-174 988.68,-174 994.68,-180 994.68,-186 994.68,-186 994.68,-247 994.68,-247 994.68,-253 988.68,-259 982.68,-259 982.68,-259 575.9,-259 575.9,-259 569.9,-259 563.9,-253 563.9,-247 563.9,-247 563.9,-186 563.9,-186 563.9,-180 569.9,-174 575.9,-174"/>
<text xml:space="preserve" text-anchor="middle" x="779.29" y="-236" font-family="Arial" font-size="20.00" fill="#172033">Application&#45;container boundary</text>
</g>
<g id="clust2" class="cluster">
<title>cluster_managed&#45;device</title>
<path fill="#f8fafc" stroke="#94a3b8" stroke-dasharray="5,2" d="M572.53,-8C572.53,-8 986.06,-8 986.06,-8 992.06,-8 998.06,-14 998.06,-20 998.06,-20 998.06,-162 998.06,-162 998.06,-168 992.06,-174 986.06,-174 986.06,-174 572.53,-174 572.53,-174 566.53,-174 560.53,-168 560.53,-162 560.53,-162 560.53,-20 560.53,-20 560.53,-14 566.53,-8 572.53,-8"/>
<text xml:space="preserve" text-anchor="middle" x="779.29" y="-151" font-family="Arial" font-size="20.00" fill="#172033">Managed&#45;device boundary</text>
</g>
<g id="clust3" class="cluster">
<title>cluster_server&#45;host</title>
<path fill="#f8fafc" stroke="#94a3b8" stroke-dasharray="5,2" d="M20,-89C20,-89 431.28,-89 431.28,-89 437.28,-89 443.28,-95 443.28,-101 443.28,-101 443.28,-162 443.28,-162 443.28,-168 437.28,-174 431.28,-174 431.28,-174 20,-174 20,-174 14,-174 8,-168 8,-162 8,-162 8,-101 8,-101 8,-95 14,-89 20,-89"/>
<text xml:space="preserve" text-anchor="middle" x="225.64" y="-151" font-family="Arial" font-size="20.00" fill="#172033">Server&#45;host boundary</text>
</g>
<!-- pm2&#45;&gt;proot&#45;ubuntu -->
<g id="edge2" class="edge">
<title>pm2&#45;&gt;proot&#45;ubuntu</title>
<g id="a_edge2"><a xlink:title="starts app process (Local process)">
<path fill="none" stroke="#b45309" stroke-width="1.15" stroke-dasharray="5,2" d="M226.06,-143.83C226.06,-168.62 226.06,-201 226.06,-201 226.06,-201 554.82,-201 554.82,-201"/>
<polygon fill="#b45309" stroke="#b45309" stroke-width="1.15" points="562.02,-201 554.82,-204.24 559.82,-201.08 554.82,-201.08 554.82,-201 554.82,-200.93 559.82,-200.93 554.82,-197.76 562.02,-201"/>
</a>
</g>
<text xml:space="preserve" text-anchor="middle" x="501.9" y="-181.15" font-family="Arial" font-size="8.00" fill="#b45309">starts app process</text>
</g>
<!-- pm2&#45;&gt;agent&#45;supervisor -->
<g id="edge3" class="edge">
<title>pm2&#45;&gt;agent&#45;supervisor</title>
<g id="a_edge3"><a xlink:title="starts/supervises (Local process)">
<path fill="none" stroke="#b45309" stroke-width="1.15" stroke-dasharray="5,2" d="M444.06,-116C444.06,-116 560.4,-116 560.4,-116"/>
<polygon fill="#b45309" stroke="#b45309" stroke-width="1.15" points="567.6,-116 560.4,-119.24 565.4,-116.08 560.4,-116.08 560.4,-116 560.4,-115.93 565.4,-115.93 560.4,-112.76 567.6,-116"/>
</a>
</g>
<text xml:space="preserve" text-anchor="middle" x="501.9" y="-118.15" font-family="Arial" font-size="8.00" fill="#b45309">starts/supervises</text>
</g>
<!-- pm2&#45;&gt;node&#45;agent -->
<g id="edge1" class="edge">
<title>pm2&#45;&gt;node&#45;agent</title>
<g id="a_edge1"><a xlink:title="starts/supervises (Local process)">
<path fill="none" stroke="#b45309" stroke-width="1.15" stroke-dasharray="5,2" d="M226.06,-88.58C226.06,-65.08 226.06,-35 226.06,-35 226.06,-35 551.64,-35 551.64,-35"/>
<polygon fill="#b45309" stroke="#b45309" stroke-width="1.15" points="558.84,-35 551.64,-38.24 556.64,-35.08 551.64,-35.08 551.64,-35 551.64,-34.93 556.64,-34.93 551.64,-31.76 558.84,-35"/>
</a>
</g>
<text xml:space="preserve" text-anchor="middle" x="501.9" y="-57.15" font-family="Arial" font-size="8.00" fill="#b45309">starts/supervises</text>
</g>
<!-- proot&#45;ubuntu -->
<g id="node1" class="node">
<title>proot&#45;ubuntu</title>
<g id="a_node1"><a xlink:href="../../../../generated/production/architecture/components/proot-ubuntu/" xlink:title="PROot Ubuntu application container. Hosts verified applications such as PhotoPrism without making documentation tooling or the browser a runtime dependency." target="_top">
<polygon fill="#dcfce7" stroke="#64748b" stroke-width="1.15" points="994.68,-227.76 563.9,-227.76 563.9,-223.76 559.9,-223.76 559.9,-219.76 563.9,-219.76 563.9,-182.24 559.9,-182.24 559.9,-178.24 563.9,-178.24 563.9,-174.24 994.68,-174.24 994.68,-227.76"/>
<polyline fill="none" stroke="#64748b" stroke-width="1.15" points="563.9,-223.76 567.9,-223.76 567.9,-219.76 563.9,-219.76"/>
<polyline fill="none" stroke="#64748b" stroke-width="1.15" points="563.9,-182.24 567.9,-182.24 567.9,-178.24 563.9,-178.24"/>
<image href="../icons/generic-process.svg" x="561.04" y="-213.00" width="24" height="24" preserveAspectRatio="xMidYMid meet" aria-hidden="true"/>
<text xml:space="preserve" text-anchor="start" x="592.04" y="-197.5" font-family="Arial" font-size="10.00" fill="#172033"> </text>
<text xml:space="preserve" text-anchor="start" x="696.17" y="-205.1" font-family="Arial" font-weight="bold" font-size="12.00" fill="#172033">PROot Ubuntu application container</text>
<text xml:space="preserve" text-anchor="start" x="618.54" y="-195.95" font-family="Arial" font-size="9.00" fill="#172033">Hosts verified applications such as PhotoPrism without making documentation tooling o...</text>
<text xml:space="preserve" text-anchor="start" x="750.17" y="-187.9" font-family="Arial" font-size="8.00" fill="#172033">Android/Termux server host</text>
</a>
</g>
</g>
<!-- agent&#45;supervisor -->
<g id="node2" class="node">
<title>agent&#45;supervisor</title>
<g id="a_node2"><a xlink:href="../../../../generated/production/architecture/components/agent-supervisor/" xlink:title="Lite agent supervisor. Runs separately from the agent, reads the protected agent environment, and starts or restarts failed agents without overwriting identity." target="_top">
<polygon fill="#dcfce7" stroke="#64748b" stroke-width="1.15" points="989.06,-142.76 569.53,-142.76 569.53,-138.76 565.53,-138.76 565.53,-134.76 569.53,-134.76 569.53,-97.24 565.53,-97.24 565.53,-93.24 569.53,-93.24 569.53,-89.24 989.06,-89.24 989.06,-142.76"/>
<polyline fill="none" stroke="#64748b" stroke-width="1.15" points="569.53,-138.76 573.53,-138.76 573.53,-134.76 569.53,-134.76"/>
<polyline fill="none" stroke="#64748b" stroke-width="1.15" points="569.53,-97.24 573.53,-97.24 573.53,-93.24 569.53,-93.24"/>
<image href="../icons/generic-process.svg" x="566.67" y="-128.00" width="24" height="24" preserveAspectRatio="xMidYMid meet" aria-hidden="true"/>
<text xml:space="preserve" text-anchor="start" x="597.67" y="-112.5" font-family="Arial" font-size="10.00" fill="#172033"> </text>
<text xml:space="preserve" text-anchor="start" x="738.92" y="-120.1" font-family="Arial" font-weight="bold" font-size="12.00" fill="#172033">Lite agent supervisor</text>
<text xml:space="preserve" text-anchor="start" x="624.17" y="-110.95" font-family="Arial" font-size="9.00" fill="#172033">Runs separately from the agent, reads the protected agent environment, and starts or...</text>
<text xml:space="preserve" text-anchor="start" x="775.29" y="-102.9" font-family="Arial" font-size="8.00" fill="#172033">Joined device</text>
</a>
</g>
</g>
<!-- node&#45;agent -->
<g id="node3" class="node">
<title>node&#45;agent</title>
<g id="a_node3"><a xlink:href="../../../../generated/production/architecture/components/node-agent/" xlink:title="Lite node agent. Connects to NATS, publishes heartbeat/telemetry/health, handles device commands, and reconnects after outages." target="_top">
<polygon fill="#dcfce7" stroke="#64748b" stroke-width="1.15" points="998.06,-61.76 560.53,-61.76 560.53,-57.76 556.53,-57.76 556.53,-53.76 560.53,-53.76 560.53,-16.24 556.53,-16.24 556.53,-12.24 560.53,-12.24 560.53,-8.24 998.06,-8.24 998.06,-61.76"/>
<polyline fill="none" stroke="#64748b" stroke-width="1.15" points="560.53,-57.76 564.53,-57.76 564.53,-53.76 560.53,-53.76"/>
<polyline fill="none" stroke="#64748b" stroke-width="1.15" points="560.53,-16.24 564.53,-16.24 564.53,-12.24 560.53,-12.24"/>
<image href="../icons/generic-process.svg" x="557.67" y="-47.00" width="24" height="24" preserveAspectRatio="xMidYMid meet" aria-hidden="true"/>
<text xml:space="preserve" text-anchor="start" x="588.67" y="-31.5" font-family="Arial" font-size="10.00" fill="#172033"> </text>
<text xml:space="preserve" text-anchor="start" x="755.04" y="-39.1" font-family="Arial" font-weight="bold" font-size="12.00" fill="#172033">Lite node agent</text>
<text xml:space="preserve" text-anchor="start" x="615.17" y="-29.95" font-family="Arial" font-size="9.00" fill="#172033">Connects to NATS, publishes heartbeat/telemetry/health, handles device commands, and...</text>
<text xml:space="preserve" text-anchor="start" x="749.79" y="-21.9" font-family="Arial" font-size="8.00" fill="#172033">Server host or joined device</text>
</a>
</g>
</g>
<!-- pm2 -->
<g id="node4" class="node">
<title>pm2</title>
<g id="a_node4"><a xlink:href="../../../../generated/production/architecture/components/pm2/" xlink:title="PM2 process manager. Starts and supervises approved server&#45;host and joined&#45;device processes with bounded restart policies." target="_top">
<polygon fill="#dcfce7" stroke="#172033" stroke-width="2.2" points="443.28,-142.76 8,-142.76 8,-138.76 4,-138.76 4,-134.76 8,-134.76 8,-97.24 4,-97.24 4,-93.24 8,-93.24 8,-89.24 443.28,-89.24 443.28,-142.76"/>
<polyline fill="none" stroke="#172033" stroke-width="2.2" points="8,-138.76 12,-138.76 12,-134.76 8,-134.76"/>
<polyline fill="none" stroke="#172033" stroke-width="2.2" points="8,-97.24 12,-97.24 12,-93.24 8,-93.24"/>
<image href="../icons/generic-process.svg" x="5.14" y="-128.00" width="24" height="24" preserveAspectRatio="xMidYMid meet" aria-hidden="true"/>
<text xml:space="preserve" text-anchor="start" x="36.14" y="-112.5" font-family="Arial" font-size="10.00" fill="#172033"> </text>
<text xml:space="preserve" text-anchor="start" x="181.89" y="-120.1" font-family="Arial" font-weight="bold" font-size="12.00" fill="#172033">PM2 process manager</text>
<text xml:space="preserve" text-anchor="start" x="62.64" y="-110.95" font-family="Arial" font-size="9.00" fill="#172033">Starts and supervises approved server&#45;host and joined&#45;device processes with bounded r...</text>
<text xml:space="preserve" text-anchor="start" x="191.26" y="-102.9" font-family="Arial" font-size="8.00" fill="#172033">Server host and joined devices</text>
</a>
</g>
</g>
</g>
</svg>
