<?xml version="1.0" encoding="UTF-8" standalone="no"?>
<!-- Generated by graphviz version 14.1.2 (0)
 -->
<svg id="pocketlab-component-retirement-database-recovery-light" role="img" aria-labelledby="pocketlab-component-retirement-database-recovery-light-title pocketlab-component-retirement-database-recovery-light-desc" width="100%" height="auto" preserveAspectRatio="xMidYMid meet" focusable="false" viewBox="0.00 0.00 558.00 525.00" xmlns="http://www.w3.org/2000/svg" xmlns:xlink="http://www.w3.org/1999/xlink">
<title id="pocketlab-component-retirement-database-recovery-light-title">Explicit retirement and database recovery connections</title>
<desc id="pocketlab-component-retirement-database-recovery-light-desc">Inputs, outputs, durable state, evidence, failure, and recovery relationships for Explicit retirement and database recovery.</desc>
<metadata id="pocketlab-source-fingerprint">4ab1a7faaaf19546ffea0368eeb8356a83a76a3a459d2407b253e265e97c5780</metadata>
<g id="graph0" class="graph" transform="scale(1 1) rotate(0) translate(14.4 510.78)">
<polygon fill="#ffffff" stroke="none" points="-14.4,14.4 -14.4,-510.78 543.79,-510.78 543.79,14.4 -14.4,14.4"/>
<text xml:space="preserve" text-anchor="middle" x="264.69" y="-473.38" font-family="Arial" font-size="20.00" fill="#172033">Explicit retirement and database recovery connections</text>
<g id="clust1" class="cluster">
<title>cluster_durable&#45;state</title>
<path fill="#f8fafc" stroke="#94a3b8" stroke-dasharray="5,2" d="M20,-8C20,-8 221,-8 221,-8 227,-8 233,-14 233,-20 233,-20 233,-150.34 233,-150.34 233,-156.34 227,-162.34 221,-162.34 221,-162.34 20,-162.34 20,-162.34 14,-162.34 8,-156.34 8,-150.34 8,-150.34 8,-20 8,-20 8,-14 14,-8 20,-8"/>
<text xml:space="preserve" text-anchor="middle" x="120.5" y="-139.34" font-family="Arial" font-size="20.00" fill="#172033">Durable&#45;state boundary</text>
</g>
<g id="clust2" class="cluster">
<title>cluster_messaging&#45;execution</title>
<path fill="#f8fafc" stroke="#94a3b8" stroke-dasharray="5,2" d="M152,-199.09C152,-199.09 460,-199.09 460,-199.09 466,-199.09 472,-205.09 472,-211.09 472,-211.09 472,-445.13 472,-445.13 472,-451.13 466,-457.13 460,-457.13 460,-457.13 152,-457.13 152,-457.13 146,-457.13 140,-451.13 140,-445.13 140,-445.13 140,-211.09 140,-211.09 140,-205.09 146,-199.09 152,-199.09"/>
<text xml:space="preserve" text-anchor="middle" x="306" y="-434.13" font-family="Arial" font-size="20.00" fill="#172033">Messaging and execution boundary</text>
</g>
<!-- checkpoints&#45;retention&#45;&gt;retirement&#45;database&#45;recovery -->
<g id="edge2" class="edge">
<title>checkpoints&#45;retention&#45;&gt;retirement&#45;database&#45;recovery</title>
<g id="a_edge2"><a xlink:title="provides recovery point (SQLite)">
<path fill="none" stroke="#b45309" stroke-width="1.15" stroke-dasharray="5,2" d="M306,-335.83C306,-323.81 306,-310.67 306,-298.2"/>
<polygon fill="#b45309" stroke="#b45309" stroke-width="1.15" points="306,-291.11 309.24,-298.31 306.08,-293.31 306.08,-298.31 306,-298.31 305.93,-298.31 305.93,-293.31 302.76,-298.31 306,-291.11"/>
</a>
</g>
<text xml:space="preserve" text-anchor="middle" x="347.25" y="-309.76" font-family="Arial" font-size="8.00" fill="#b45309">provides recovery point</text>
</g>
<!-- retirement&#45;database&#45;recovery&#45;&gt;sqlite -->
<g id="edge1" class="edge">
<title>retirement&#45;database&#45;recovery&#45;&gt;sqlite</title>
<g id="a_edge1"><a xlink:title="verified backup/restore (SQLite/filesystem)">
<path fill="none" stroke="#b45309" stroke-width="1.15" stroke-dasharray="5,2" d="M241.45,-198C234.03,-192.19 226.73,-186.15 220,-180.09 205.58,-167.11 191.04,-152.22 177.7,-137.7"/>
<polygon fill="#b45309" stroke="#b45309" stroke-width="1.15" points="173,-132.54 180.25,-135.69 174.54,-134.12 177.91,-137.82 177.85,-137.87 177.79,-137.92 174.43,-134.22 175.45,-140.05 173,-132.54"/>
</a>
</g>
<text xml:space="preserve" text-anchor="middle" x="260.5" y="-172.49" font-family="Arial" font-size="8.00" fill="#b45309">verified backup/restore</text>
</g>
<!-- retirement&#45;database&#45;recovery&#45;&gt;state_dependency_0 -->
<g id="edge3" class="edge">
<title>retirement&#45;database&#45;recovery&#45;&gt;state_dependency_0</title>
<path fill="none" stroke="#2563eb" stroke-width="1.15" stroke-dasharray="1,5" d="M306,-198.03C306,-165.74 306,-123.3 306,-96.46"/>
<polygon fill="#2563eb" stroke="#2563eb" stroke-width="1.15" points="308.52,-96.61 306,-89.41 303.48,-96.61 308.52,-96.61"/>
<text xml:space="preserve" text-anchor="middle" x="314.62" y="-172.49" font-family="Arial" font-size="8.00" fill="#2563eb">state</text>
</g>
<!-- retirement&#45;database&#45;recovery&#45;&gt;state_dependency_1 -->
<g id="edge4" class="edge">
<title>retirement&#45;database&#45;recovery&#45;&gt;state_dependency_1</title>
<path fill="none" stroke="#2563eb" stroke-width="1.15" stroke-dasharray="1,5" d="M347.31,-198.33C358.02,-186.67 369.49,-174.08 380,-162.34 400.47,-139.47 423.45,-113.02 439.51,-94.4"/>
<polygon fill="#2563eb" stroke="#2563eb" stroke-width="1.15" points="441.17,-96.34 443.96,-89.24 437.35,-93.05 441.17,-96.34"/>
<text xml:space="preserve" text-anchor="middle" x="380.7" y="-172.49" font-family="Arial" font-size="8.00" fill="#2563eb">state</text>
</g>
<!-- sqlite -->
<g id="node1" class="node">
<title>sqlite</title>
<g id="a_node1"><a xlink:href="../../../../generated/production/architecture/components/sqlite/" xlink:title="SQLite control&#45;plane store. Stores canonical Lite lifecycle state and prepared projections; the frontend never accesses it directly." target="_top">
<path fill="#fef3c7" stroke="#64748b" stroke-width="1.35" d="M221.76,-119.9C221.76,-126.07 176.6,-131.09 121,-131.09 65.4,-131.09 20.23,-126.07 20.23,-119.9 20.23,-119.9 20.23,-19.19 20.23,-19.19 20.23,-13.02 65.4,-8 121,-8 176.6,-8 221.76,-13.02 221.76,-19.19 221.76,-19.19 221.76,-119.9 221.76,-119.9"/>
<path fill="none" stroke="#64748b" stroke-width="1.35" d="M221.76,-119.9C221.76,-113.73 176.6,-108.71 121,-108.71 65.4,-108.71 20.23,-113.73 20.23,-119.9"/>
<image href="../icons/infra-sqlite.svg" x="19.38" y="-81.54" width="28" height="28" preserveAspectRatio="xMidYMid meet" aria-hidden="true"/>
<text xml:space="preserve" text-anchor="start" x="50.38" y="-66.04" font-family="Arial" font-size="10.00" fill="#172033"> </text>
<text xml:space="preserve" text-anchor="start" x="84.5" y="-92.14" font-family="Arial" font-weight="bold" font-size="12.00" fill="#172033">SQLite control&#45;plane</text>
<text xml:space="preserve" text-anchor="start" x="128.38" y="-80.14" font-family="Arial" font-weight="bold" font-size="12.00" fill="#172033">store</text>
<text xml:space="preserve" text-anchor="start" x="82.62" y="-70.99" font-family="Arial" font-size="9.00" fill="#172033">Stores canonical Lite lifecycle</text>
<text xml:space="preserve" text-anchor="start" x="79.62" y="-61.99" font-family="Arial" font-size="9.00" fill="#172033">state and prepared projections;</text>
<text xml:space="preserve" text-anchor="start" x="78.88" y="-52.99" font-family="Arial" font-size="9.00" fill="#172033">the frontend never accesses it...</text>
<text xml:space="preserve" text-anchor="start" x="122.38" y="-44.94" font-family="Arial" font-style="italic" font-size="8.00" fill="#172033">Server host</text>
<text xml:space="preserve" text-anchor="start" x="128" y="-37.89" font-family="Arial" font-size="7.00" fill="#172033">Database</text>
</a>
</g>
</g>
<!-- checkpoints&#45;retention -->
<g id="node2" class="node">
<title>checkpoints&#45;retention</title>
<g id="a_node2"><a xlink:href="../../../../generated/production/architecture/components/checkpoints-retention/" xlink:title="Checkpoints and retention policy. Creates pre&#45;change checkpoints and applies explicit bounded retention without silently deleting current state." target="_top">
<polygon fill="#dcfce7" stroke="#64748b" stroke-width="1.35" points="418.01,-425.88 193.98,-425.88 193.98,-421.88 189.98,-421.88 189.98,-417.88 193.98,-417.88 193.98,-344.36 189.98,-344.36 189.98,-340.36 193.98,-340.36 193.98,-336.36 418.01,-336.36 418.01,-425.88"/>
<polyline fill="none" stroke="#64748b" stroke-width="1.35" points="193.98,-421.88 197.98,-421.88 197.98,-417.88 193.98,-417.88"/>
<polyline fill="none" stroke="#64748b" stroke-width="1.35" points="193.98,-344.36 197.98,-344.36 197.98,-340.36 193.98,-340.36"/>
<image href="../icons/infra-backup.svg" x="193.12" y="-393.12" width="28" height="28" preserveAspectRatio="xMidYMid meet" aria-hidden="true"/>
<text xml:space="preserve" text-anchor="start" x="224.12" y="-377.62" font-family="Arial" font-size="10.00" fill="#172033"> </text>
<text xml:space="preserve" text-anchor="start" x="279.25" y="-403.72" font-family="Arial" font-weight="bold" font-size="12.00" fill="#172033">Checkpoints and</text>
<text xml:space="preserve" text-anchor="start" x="283.75" y="-391.72" font-family="Arial" font-weight="bold" font-size="12.00" fill="#172033">retention policy</text>
<text xml:space="preserve" text-anchor="start" x="252.62" y="-382.57" font-family="Arial" font-size="9.00" fill="#172033">Creates pre&#45;change checkpoints and</text>
<text xml:space="preserve" text-anchor="start" x="259" y="-373.57" font-family="Arial" font-size="9.00" fill="#172033">applies explicit bounded retention</text>
<text xml:space="preserve" text-anchor="start" x="261.62" y="-364.57" font-family="Arial" font-size="9.00" fill="#172033">without silently deleting current...</text>
<text xml:space="preserve" text-anchor="start" x="297.62" y="-356.52" font-family="Arial" font-style="italic" font-size="8.00" fill="#172033">Recovery worker</text>
<text xml:space="preserve" text-anchor="start" x="315.25" y="-349.47" font-family="Arial" font-size="7.00" fill="#172033">Process</text>
</a>
</g>
</g>
<!-- retirement&#45;database&#45;recovery -->
<g id="node3" class="node">
<title>retirement&#45;database&#45;recovery</title>
<g id="a_node3"><a xlink:href="../../../../generated/production/architecture/components/retirement-database-recovery/" xlink:title="Explicit retirement and database recovery. Requires assessment and confirmation for device retirement and provides verified database backup/preview/restore without coupling command cleanup to device deletion." target="_top">
<polygon fill="#dcfce7" stroke="#172033" stroke-width="2.3" points="410.51,-288.61 201.48,-288.61 201.48,-284.61 197.48,-284.61 197.48,-280.61 201.48,-280.61 201.48,-207.09 197.48,-207.09 197.48,-203.09 201.48,-203.09 201.48,-199.09 410.51,-199.09 410.51,-288.61"/>
<polyline fill="none" stroke="#172033" stroke-width="2.3" points="201.48,-284.61 205.48,-284.61 205.48,-280.61 201.48,-280.61"/>
<polyline fill="none" stroke="#172033" stroke-width="2.3" points="201.48,-207.09 205.48,-207.09 205.48,-203.09 201.48,-203.09"/>
<image href="../icons/infra-backup.svg" x="200.62" y="-255.85" width="28" height="28" preserveAspectRatio="xMidYMid meet" aria-hidden="true"/>
<text xml:space="preserve" text-anchor="start" x="231.62" y="-240.35" font-family="Arial" font-size="10.00" fill="#172033"> </text>
<text xml:space="preserve" text-anchor="start" x="276.62" y="-266.45" font-family="Arial" font-weight="bold" font-size="12.00" fill="#172033">Explicit retirement</text>
<text xml:space="preserve" text-anchor="start" x="262.75" y="-254.45" font-family="Arial" font-weight="bold" font-size="12.00" fill="#172033">and database recovery</text>
<text xml:space="preserve" text-anchor="start" x="274.75" y="-245.3" font-family="Arial" font-size="9.00" fill="#172033">Requires assessment and</text>
<text xml:space="preserve" text-anchor="start" x="260.12" y="-236.3" font-family="Arial" font-size="9.00" fill="#172033">confirmation for device retirement</text>
<text xml:space="preserve" text-anchor="start" x="261.62" y="-227.3" font-family="Arial" font-size="9.00" fill="#172033">and provides verified database...</text>
<text xml:space="preserve" text-anchor="start" x="298" y="-219.25" font-family="Arial" font-style="italic" font-size="8.00" fill="#172033">FastAPI / worker</text>
<text xml:space="preserve" text-anchor="start" x="315.25" y="-212.2" font-family="Arial" font-size="7.00" fill="#172033">Process</text>
</a>
</g>
</g>
<!-- state_dependency_0 -->
<g id="node4" class="node">
<title>state_dependency_0</title>
<g id="a_node4"><a xlink:title="Durable&#45;state dependency">
<polygon fill="#fef3c7" stroke="#64748b" points="362.64,-87.54 243.36,-87.54 243.36,-51.54 368.64,-51.54 368.64,-81.54 362.64,-87.54"/>
<polyline fill="none" stroke="#64748b" points="362.64,-87.54 362.64,-81.54"/>
<polyline fill="none" stroke="#64748b" points="368.64,-81.54 362.64,-81.54"/>
<text xml:space="preserve" text-anchor="middle" x="306" y="-66.04" font-family="Arial" font-size="10.00" fill="#172033">device_removal_receipts</text>
</a>
</g>
</g>
<!-- state_dependency_1 -->
<g id="node5" class="node">
<title>state_dependency_1</title>
<g id="a_node5"><a xlink:title="Durable&#45;state dependency">
<polygon fill="#fef3c7" stroke="#64748b" points="523.39,-87.54 390.61,-87.54 390.61,-51.54 529.39,-51.54 529.39,-81.54 523.39,-87.54"/>
<polyline fill="none" stroke="#64748b" points="523.39,-87.54 523.39,-81.54"/>
<polyline fill="none" stroke="#64748b" points="529.39,-81.54 523.39,-81.54"/>
<text xml:space="preserve" text-anchor="middle" x="460" y="-66.04" font-family="Arial" font-size="10.00" fill="#172033">security_database_backups</text>
</a>
</g>
</g>
</g>
</svg>
