<?xml version="1.0" encoding="UTF-8" standalone="no"?>
<!-- Generated by graphviz version 14.1.2 (0)
 -->
<svg id="pocketlab-component-tailscale-dark" role="img" aria-labelledby="pocketlab-component-tailscale-dark-title pocketlab-component-tailscale-dark-desc" width="100%" height="auto" preserveAspectRatio="xMidYMid meet" focusable="false" viewBox="0.00 0.00 954.00 576.00" xmlns="http://www.w3.org/2000/svg" xmlns:xlink="http://www.w3.org/1999/xlink">
<title id="pocketlab-component-tailscale-dark-title">Tailscale remote access connections</title>
<desc id="pocketlab-component-tailscale-dark-desc">Inputs, outputs, durable state, evidence, failure, and recovery relationships for Tailscale remote access.</desc>
<metadata id="pocketlab-source-fingerprint">7ff4f8d8d81f305e9a1bbff9f51dea8327bbc276845f5bd7cca2fe9624eb028e</metadata>
<g id="graph0" class="graph" transform="scale(1 1) rotate(0) translate(14.4 561.74)">
<polygon fill="#0f172a" stroke="none" points="-14.4,14.4 -14.4,-561.74 939.4,-561.74 939.4,14.4 -14.4,14.4"/>
<text xml:space="preserve" text-anchor="middle" x="462.5" y="-524.34" font-family="Arial" font-size="20.00" fill="#f8fafc">Tailscale remote access connections</text>
<g id="clust1" class="cluster">
<title>cluster_server&#45;host</title>
<path fill="#111827" stroke="#64748b" stroke-dasharray="5,2" d="M20,-8C20,-8 559,-8 559,-8 565,-8 571,-14 571,-20 571,-20 571,-496.09 571,-496.09 571,-502.09 565,-508.09 559,-508.09 559,-508.09 20,-508.09 20,-508.09 14,-508.09 8,-502.09 8,-496.09 8,-496.09 8,-20 8,-20 8,-14 14,-8 20,-8"/>
<text xml:space="preserve" text-anchor="middle" x="289.5" y="-485.09" font-family="Arial" font-size="20.00" fill="#f8fafc">Server&#45;host boundary</text>
</g>
<g id="clust2" class="cluster">
<title>cluster_tailnet</title>
<path fill="#111827" stroke="#64748b" stroke-dasharray="5,2" d="M583,-190.5C583,-190.5 905,-190.5 905,-190.5 911,-190.5 917,-196.5 917,-202.5 917,-202.5 917,-357.57 917,-357.57 917,-363.57 911,-369.57 905,-369.57 905,-369.57 583,-369.57 583,-369.57 577,-369.57 571,-363.57 571,-357.57 571,-357.57 571,-202.5 571,-202.5 571,-196.5 577,-190.5 583,-190.5"/>
<text xml:space="preserve" text-anchor="middle" x="744" y="-346.57" font-family="Arial" font-size="20.00" fill="#f8fafc">Private network and Tailnet boundary</text>
</g>
<!-- tailscaled&#45;&gt;tailscale -->
<g id="edge3" class="edge">
<title>tailscaled&#45;&gt;tailscale</title>
<g id="a_edge3"><a xlink:title="provides interface (Tailscale)">
<path fill="none" stroke="#6ee7b7" stroke-width="1.15" stroke-dasharray="5,2" d="M544.85,-405.86C556.49,-400.03 568.2,-393.77 579,-387.32 601.76,-373.73 625.24,-357.73 647.09,-341.88"/>
<polygon fill="#6ee7b7" stroke="#6ee7b7" stroke-width="1.15" points="648.39,-344.05 652.72,-337.77 645.42,-339.98 648.39,-344.05"/>
</a>
</g>
<text xml:space="preserve" text-anchor="middle" x="624.66" y="-379.72" font-family="Arial" font-size="8.00" fill="#6ee7b7">provides interface</text>
</g>
<!-- tailscale&#45;&gt;caddy -->
<g id="edge1" class="edge">
<title>tailscale&#45;&gt;caddy</title>
<g id="a_edge1"><a xlink:title="Tailnet HTTPS (HTTPS)">
<path fill="none" stroke="#cbd5e1" stroke-width="1.15" d="M631.21,-212.05C610.18,-203.89 588.17,-196.26 567,-190.5 420.17,-150.6 371.86,-192.3 228,-142.75 212.22,-137.32 196.18,-129.65 181.27,-121.45"/>
<polygon fill="#cbd5e1" stroke="#cbd5e1" stroke-width="1.15" points="182.61,-119.31 175.1,-117.97 180.14,-123.7 182.61,-119.31"/>
</a>
</g>
<text xml:space="preserve" text-anchor="middle" x="469.65" y="-163.9" font-family="Arial" font-size="8.00" fill="#cbd5e1">Tailnet HTTPS</text>
</g>
<!-- tailscale&#45;&gt;nats&#45;listeners -->
<g id="edge2" class="edge">
<title>tailscale&#45;&gt;nats&#45;listeners</title>
<g id="a_edge2"><a xlink:title="Tailnet reachability (TCP)">
<path fill="none" stroke="#cbd5e1" stroke-width="1.15" d="M638.6,-205.26C598.06,-182.89 551.79,-157.36 511.18,-134.96"/>
<polygon fill="#cbd5e1" stroke="#cbd5e1" stroke-width="1.15" points="512.45,-132.78 504.93,-131.51 510.01,-137.19 512.45,-132.78"/>
</a>
</g>
<text xml:space="preserve" text-anchor="middle" x="606.75" y="-163.9" font-family="Arial" font-size="8.00" fill="#cbd5e1">Tailnet reachability</text>
</g>
<!-- caddy -->
<g id="node1" class="node">
<title>caddy</title>
<g id="a_node1"><a xlink:href="../../../../generated/production/architecture/components/caddy/" xlink:title="Caddy same&#45;origin proxy. Serves the PWA and routes /api/lite/* and managed app paths without exposing backend secrets." target="_top">
<path fill="#4c1d95" stroke="#94a3b8" stroke-width="1.15" d="M205.76,-116.64C205.76,-116.64 20.24,-116.64 20.24,-116.64 14.24,-116.64 8.23,-110.64 8.23,-104.64 8.23,-104.64 8.23,-46.12 8.23,-46.12 8.23,-40.12 14.23,-34.12 20.23,-34.12 20.23,-34.12 205.76,-34.12 205.76,-34.12 211.76,-34.12 217.76,-40.12 217.76,-46.12 217.76,-46.12 217.76,-104.64 217.76,-104.64 217.76,-110.64 211.76,-116.64 205.76,-116.64"/>
<image href="../icons/generic-service.svg" x="5.38" y="-87.38" width="24" height="24" preserveAspectRatio="xMidYMid meet" aria-hidden="true"/>
<text xml:space="preserve" text-anchor="start" x="36.38" y="-71.88" font-family="Arial" font-size="10.00" fill="#f8fafc"> </text>
<text xml:space="preserve" text-anchor="start" x="79" y="-94.48" font-family="Arial" font-weight="bold" font-size="12.00" fill="#f8fafc">Caddy same&#45;origin</text>
<text xml:space="preserve" text-anchor="start" x="116.5" y="-82.48" font-family="Arial" font-weight="bold" font-size="12.00" fill="#f8fafc">proxy</text>
<text xml:space="preserve" text-anchor="start" x="77.5" y="-73.33" font-family="Arial" font-size="9.00" fill="#f8fafc">Serves the PWA and routes</text>
<text xml:space="preserve" text-anchor="start" x="64.38" y="-64.33" font-family="Arial" font-size="9.00" fill="#f8fafc">/api/lite/* and managed app paths</text>
<text xml:space="preserve" text-anchor="start" x="62.88" y="-55.33" font-family="Arial" font-size="9.00" fill="#f8fafc">without exposing backend secrets.</text>
<text xml:space="preserve" text-anchor="start" x="112.38" y="-47.28" font-family="Arial" font-size="8.00" fill="#f8fafc">Server host</text>
</a>
</g>
</g>
<!-- nats&#45;listeners -->
<g id="node2" class="node">
<title>nats&#45;listeners</title>
<g id="a_node2"><a xlink:href="../../../../generated/production/architecture/components/nats-listeners/" xlink:title="Primary and secondary NATS listeners. Exposes local and verified Tailnet&#45;reachable NATS listeners for agents without hardcoding credentials or addresses." target="_top">
<path fill="#155e75" stroke="#94a3b8" stroke-width="1.15" d="M561.26,-82.95C561.26,-82.95 497.09,-135.18 497.09,-135.18 492.44,-138.97 481.78,-142.75 475.78,-142.75 475.78,-142.75 334.22,-142.75 334.22,-142.75 328.22,-142.75 317.56,-138.97 312.91,-135.18 312.91,-135.18 248.74,-82.95 248.74,-82.95 244.08,-79.16 244.08,-71.59 248.74,-67.8 248.74,-67.8 312.91,-15.57 312.91,-15.57 317.56,-11.79 328.22,-8 334.22,-8 334.22,-8 475.78,-8 475.78,-8 481.78,-8 492.44,-11.79 497.09,-15.57 497.09,-15.57 561.26,-67.8 561.26,-67.8 565.92,-71.59 565.92,-79.16 561.26,-82.95"/>
<image href="../icons/generic-network.svg" x="300.75" y="-87.38" width="24" height="24" preserveAspectRatio="xMidYMid meet" aria-hidden="true"/>
<text xml:space="preserve" text-anchor="start" x="331.75" y="-71.88" font-family="Arial" font-size="10.00" fill="#f8fafc"> </text>
<text xml:space="preserve" text-anchor="start" x="358.62" y="-94.48" font-family="Arial" font-weight="bold" font-size="12.00" fill="#f8fafc">Primary and secondary</text>
<text xml:space="preserve" text-anchor="start" x="383" y="-82.48" font-family="Arial" font-weight="bold" font-size="12.00" fill="#f8fafc">NATS listeners</text>
<text xml:space="preserve" text-anchor="start" x="371.38" y="-73.33" font-family="Arial" font-size="9.00" fill="#f8fafc">Exposes local and verified</text>
<text xml:space="preserve" text-anchor="start" x="358.25" y="-64.33" font-family="Arial" font-size="9.00" fill="#f8fafc">Tailnet&#45;reachable NATS listeners</text>
<text xml:space="preserve" text-anchor="start" x="361.25" y="-55.33" font-family="Arial" font-size="9.00" fill="#f8fafc">for agents without hardcoding...</text>
<text xml:space="preserve" text-anchor="start" x="404.38" y="-47.28" font-family="Arial" font-size="8.00" fill="#f8fafc">Server host</text>
</a>
</g>
</g>
<!-- tailscaled -->
<g id="node3" class="node">
<title>tailscaled</title>
<g id="a_node3"><a xlink:href="../../../../generated/production/architecture/components/tailscaled/" xlink:title="tailscaled daemon. Owns Tailscale networking; startup scripts may detect/start it safely while read APIs remain side&#45;effect&#45;free." target="_top">
<polygon fill="#14532d" stroke="#94a3b8" stroke-width="1.15" points="571.14,-476.84 360.86,-476.84 360.86,-472.84 356.86,-472.84 356.86,-468.84 360.86,-468.84 360.86,-414.32 356.86,-414.32 356.86,-410.32 360.86,-410.32 360.86,-406.32 571.14,-406.32 571.14,-476.84"/>
<polyline fill="none" stroke="#94a3b8" stroke-width="1.15" points="360.86,-472.84 364.86,-472.84 364.86,-468.84 360.86,-468.84"/>
<polyline fill="none" stroke="#94a3b8" stroke-width="1.15" points="360.86,-414.32 364.86,-414.32 364.86,-410.32 360.86,-410.32"/>
<image href="../icons/generic-process.svg" x="358.00" y="-453.58" width="24" height="24" preserveAspectRatio="xMidYMid meet" aria-hidden="true"/>
<text xml:space="preserve" text-anchor="start" x="389" y="-438.08" font-family="Arial" font-size="10.00" fill="#f8fafc"> </text>
<text xml:space="preserve" text-anchor="start" x="434.25" y="-454.68" font-family="Arial" font-weight="bold" font-size="12.00" fill="#f8fafc">tailscaled daemon</text>
<text xml:space="preserve" text-anchor="start" x="415.5" y="-445.53" font-family="Arial" font-size="9.00" fill="#f8fafc">Owns Tailscale networking; startup</text>
<text xml:space="preserve" text-anchor="start" x="423.38" y="-436.53" font-family="Arial" font-size="9.00" fill="#f8fafc">scripts may detect/start it safely</text>
<text xml:space="preserve" text-anchor="start" x="435.38" y="-427.53" font-family="Arial" font-size="9.00" fill="#f8fafc">while read APIs remain...</text>
<text xml:space="preserve" text-anchor="start" x="436.88" y="-419.48" font-family="Arial" font-size="8.00" fill="#f8fafc">Android/Termux server host</text>
</a>
</g>
</g>
<!-- tailscale -->
<g id="node4" class="node">
<title>tailscale</title>
<g id="a_node4"><a xlink:href="../../../../generated/production/architecture/components/tailscale/" xlink:title="Tailscale remote access. Provides private Tailnet connectivity and HTTPS identity without becoming a browser&#45;held secret or control owner." target="_top">
<path fill="#155e75" stroke="#f8fafc" stroke-width="2.2" d="M907.8,-272.21C907.8,-272.21 839.58,-330.53 839.58,-330.53 835.02,-334.42 824.46,-338.32 818.46,-338.32 818.46,-338.32 669.54,-338.32 669.54,-338.32 663.54,-338.32 652.98,-334.42 648.42,-330.53 648.42,-330.53 580.2,-272.21 580.2,-272.21 575.64,-268.31 575.64,-260.52 580.2,-256.62 580.2,-256.62 648.42,-198.3 648.42,-198.3 652.98,-194.4 663.54,-190.5 669.54,-190.5 669.54,-190.5 818.46,-190.5 818.46,-190.5 824.46,-190.5 835.02,-194.4 839.58,-198.3 839.58,-198.3 907.8,-256.62 907.8,-256.62 912.36,-260.52 912.36,-268.31 907.8,-272.21"/>
<image href="../icons/generic-network.svg" x="635.25" y="-276.41" width="24" height="24" preserveAspectRatio="xMidYMid meet" aria-hidden="true"/>
<text xml:space="preserve" text-anchor="start" x="666.25" y="-260.91" font-family="Arial" font-size="10.00" fill="#f8fafc"> </text>
<text xml:space="preserve" text-anchor="start" x="717.88" y="-287.51" font-family="Arial" font-weight="bold" font-size="12.00" fill="#f8fafc">Tailscale remote</text>
<text xml:space="preserve" text-anchor="start" x="743.75" y="-275.51" font-family="Arial" font-weight="bold" font-size="12.00" fill="#f8fafc">access</text>
<text xml:space="preserve" text-anchor="start" x="716.38" y="-266.36" font-family="Arial" font-size="9.00" fill="#f8fafc">Provides private Tailnet</text>
<text xml:space="preserve" text-anchor="start" x="699.5" y="-257.36" font-family="Arial" font-size="9.00" fill="#f8fafc">connectivity and HTTPS identity</text>
<text xml:space="preserve" text-anchor="start" x="692.75" y="-248.36" font-family="Arial" font-size="9.00" fill="#f8fafc">without becoming a browser&#45;held...</text>
<text xml:space="preserve" text-anchor="start" x="723.88" y="-240.31" font-family="Arial" font-size="8.00" fill="#f8fafc">Server host and joined</text>
<text xml:space="preserve" text-anchor="start" x="750.88" y="-232.31" font-family="Arial" font-size="8.00" fill="#f8fafc">devices</text>
</a>
</g>
</g>
</g>
</svg>
