<?xml version="1.0" encoding="UTF-8" standalone="no"?>
<!-- Generated by graphviz version 14.1.2 (0)
 -->
<svg id="pocketlab-component-worker-dark" role="img" aria-labelledby="pocketlab-component-worker-dark-title pocketlab-component-worker-dark-desc" width="100%" height="auto" preserveAspectRatio="xMidYMid meet" focusable="false" viewBox="0.00 0.00 1090.00 497.00" xmlns="http://www.w3.org/2000/svg" xmlns:xlink="http://www.w3.org/1999/xlink">
<title id="pocketlab-component-worker-dark-title">Worker process connections</title>
<desc id="pocketlab-component-worker-dark-desc">Inputs, outputs, durable state, evidence, failure, and recovery relationships for Worker process.</desc>
<metadata id="pocketlab-source-fingerprint">cb6e68c6be703dde97219866dfef7c9f8b0c50ac22a9d59c548e1a83d54c6f20</metadata>
<g id="graph0" class="graph" transform="scale(1 1) rotate(0) translate(14.4 482.48)">
<polygon fill="#0f172a" stroke="none" points="-14.4,14.4 -14.4,-482.48 1076.04,-482.48 1076.04,14.4 -14.4,14.4"/>
<text xml:space="preserve" text-anchor="middle" x="530.82" y="-445.08" font-family="Arial" font-size="20.00" fill="#f8fafc">Worker process connections</text>
<g id="clust1" class="cluster">
<title>cluster_messaging&#45;execution</title>
<path fill="#111827" stroke="#64748b" stroke-dasharray="5,2" d="M20,-8C20,-8 667,-8 667,-8 673,-8 679,-14 679,-20 679,-20 679,-416.83 679,-416.83 679,-422.83 673,-428.83 667,-428.83 667,-428.83 20,-428.83 20,-428.83 14,-428.83 8,-422.83 8,-416.83 8,-416.83 8,-20 8,-20 8,-14 14,-8 20,-8"/>
<text xml:space="preserve" text-anchor="middle" x="343.5" y="-405.83" font-family="Arial" font-size="20.00" fill="#f8fafc">Messaging and execution boundary</text>
</g>
<!-- nats&#45;jetstream&#45;&gt;worker -->
<g id="edge1" class="edge">
<title>nats&#45;jetstream&#45;&gt;worker</title>
<g id="a_edge1"><a xlink:title="durable delivery (JetStream)">
<path fill="none" stroke="#cbd5e1" stroke-width="1.15" d="M508.27,-256.06C516.91,-242.7 525.7,-229.11 533.57,-216.94"/>
<polygon fill="#cbd5e1" stroke="#cbd5e1" stroke-width="1.15" points="535.6,-218.44 537.39,-211.03 531.37,-215.71 535.6,-218.44"/>
</a>
</g>
<text xml:space="preserve" text-anchor="middle" x="554.63" y="-229.94" font-family="Arial" font-size="8.00" fill="#cbd5e1">durable delivery</text>
</g>
<!-- worker&#45;&gt;app&#45;lifecycle&#45;worker -->
<g id="edge2" class="edge">
<title>worker&#45;&gt;app&#45;lifecycle&#45;worker</title>
<g id="a_edge2"><a xlink:title="runs app work (Python)">
<path fill="none" stroke="#cbd5e1" stroke-width="1.15" d="M441.88,-147.73C375.23,-132.96 290.93,-112.78 217,-90.52 214.09,-89.64 211.14,-88.73 208.17,-87.79"/>
<polygon fill="#cbd5e1" stroke="#cbd5e1" stroke-width="1.15" points="209.05,-85.43 201.42,-85.61 207.5,-90.22 209.05,-85.43"/>
</a>
</g>
<text xml:space="preserve" text-anchor="middle" x="345.56" y="-111.67" font-family="Arial" font-size="8.00" fill="#cbd5e1">runs app work</text>
</g>
<!-- worker&#45;&gt;backup&#45;engine -->
<g id="edge3" class="edge">
<title>worker&#45;&gt;backup&#45;engine</title>
<g id="a_edge3"><a xlink:title="runs backup work (Python)">
<path fill="none" stroke="#cbd5e1" stroke-width="1.15" d="M495.93,-137.33C471.6,-124.17 443.63,-109.03 417.91,-95.12"/>
<polygon fill="#cbd5e1" stroke="#cbd5e1" stroke-width="1.15" points="419.42,-93.07 411.89,-91.86 417.03,-97.5 419.42,-93.07"/>
</a>
</g>
<text xml:space="preserve" text-anchor="middle" x="493.03" y="-111.67" font-family="Arial" font-size="8.00" fill="#cbd5e1">runs backup work</text>
</g>
<!-- worker&#45;&gt;command&#45;lifecycle -->
<g id="edge4" class="edge">
<title>worker&#45;&gt;command&#45;lifecycle</title>
<g id="a_edge4"><a xlink:title="claims and updates (SQLite/NATS)">
<path fill="none" stroke="#cbd5e1" stroke-width="1.15" d="M563.87,-137.49C564.83,-125.68 565.93,-112.27 566.97,-99.57"/>
<polygon fill="#cbd5e1" stroke="#cbd5e1" stroke-width="1.15" points="569.46,-100.03 567.53,-92.65 564.43,-99.62 569.46,-100.03"/>
</a>
</g>
<text xml:space="preserve" text-anchor="middle" x="600.12" y="-111.67" font-family="Arial" font-size="8.00" fill="#cbd5e1">claims and updates</text>
</g>
<!-- worker&#45;&gt;state_dependency_0 -->
<g id="edge5" class="edge">
<title>worker&#45;&gt;state_dependency_0</title>
<path fill="none" stroke="#60a5fa" stroke-width="1.15" stroke-dasharray="1,5" d="M615.7,-137.33C648.31,-116.35 688.69,-90.36 716.81,-72.26"/>
<polygon fill="#60a5fa" stroke="#60a5fa" stroke-width="1.15" points="717.88,-74.57 722.57,-68.55 715.16,-70.33 717.88,-74.57"/>
<text xml:space="preserve" text-anchor="middle" x="664.62" y="-111.67" font-family="Arial" font-size="8.00" fill="#60a5fa">state</text>
</g>
<!-- worker&#45;&gt;state_dependency_1 -->
<g id="edge6" class="edge">
<title>worker&#45;&gt;state_dependency_1</title>
<path fill="none" stroke="#60a5fa" stroke-width="1.15" stroke-dasharray="1,5" d="M680.06,-143.46C723.34,-130.42 771.73,-112.86 813,-90.52 821.7,-85.81 830.39,-79.52 838.01,-73.32"/>
<polygon fill="#60a5fa" stroke="#60a5fa" stroke-width="1.15" points="839.48,-75.38 843.36,-68.81 836.23,-71.52 839.48,-75.38"/>
<text xml:space="preserve" text-anchor="middle" x="776.02" y="-111.67" font-family="Arial" font-size="8.00" fill="#60a5fa">state</text>
</g>
<!-- worker&#45;&gt;additional_dependencies -->
<g id="edge7" class="edge">
<title>worker&#45;&gt;additional_dependencies</title>
<path fill="none" stroke="#cbd5e1" stroke-width="1.15" stroke-dasharray="1,5" d="M679.97,-152.14C749.15,-138.49 837.35,-117.96 913,-90.52 929.96,-84.37 947.97,-75.53 962.6,-67.7"/>
</g>
<!-- app&#45;lifecycle&#45;worker -->
<g id="node1" class="node">
<title>app&#45;lifecycle&#45;worker</title>
<g id="a_node1"><a xlink:href="../../../../generated/production/architecture/components/app-lifecycle-worker/" xlink:title="App lifecycle worker. Owns install, repair, media import, backup, restore preview, update readiness/apply, and removal paths only where implemented and safe." target="_top">
<polygon fill="#14532d" stroke="#94a3b8" stroke-width="1.15" points="206.14,-84.52 7.86,-84.52 7.86,-80.52 3.86,-80.52 3.86,-76.52 7.86,-76.52 7.86,-22 3.86,-22 3.86,-18 7.86,-18 7.86,-14 206.14,-14 206.14,-84.52"/>
<polyline fill="none" stroke="#94a3b8" stroke-width="1.15" points="7.86,-80.52 11.86,-80.52 11.86,-76.52 7.86,-76.52"/>
<polyline fill="none" stroke="#94a3b8" stroke-width="1.15" points="7.86,-22 11.86,-22 11.86,-18 7.86,-18"/>
<image href="../icons/generic-process.svg" x="5.00" y="-61.26" width="24" height="24" preserveAspectRatio="xMidYMid meet" aria-hidden="true"/>
<text xml:space="preserve" text-anchor="start" x="36" y="-45.76" font-family="Arial" font-size="10.00" fill="#f8fafc"> </text>
<text xml:space="preserve" text-anchor="start" x="69.25" y="-62.36" font-family="Arial" font-weight="bold" font-size="12.00" fill="#f8fafc">App lifecycle worker</text>
<text xml:space="preserve" text-anchor="start" x="73.38" y="-53.21" font-family="Arial" font-size="9.00" fill="#f8fafc">Owns install, repair, media</text>
<text xml:space="preserve" text-anchor="start" x="62.5" y="-44.21" font-family="Arial" font-size="9.00" fill="#f8fafc">import, backup, restore preview,</text>
<text xml:space="preserve" text-anchor="start" x="65.88" y="-35.21" font-family="Arial" font-size="9.00" fill="#f8fafc">update readiness/apply, and...</text>
<text xml:space="preserve" text-anchor="start" x="101.5" y="-27.16" font-family="Arial" font-size="8.00" fill="#f8fafc">pocket&#45;worker</text>
</a>
</g>
</g>
<!-- backup&#45;engine -->
<g id="node2" class="node">
<title>backup&#45;engine</title>
<g id="a_node2"><a xlink:href="../../../../generated/production/architecture/components/backup-engine/" xlink:title="Backup and verification engine. Creates and verifies local encrypted backups through backend/worker&#45;owned operations." target="_top">
<polygon fill="#14532d" stroke="#94a3b8" stroke-width="1.15" points="441.64,-90.52 228.36,-90.52 228.36,-86.52 224.36,-86.52 224.36,-82.52 228.36,-82.52 228.36,-16 224.36,-16 224.36,-12 228.36,-12 228.36,-8 441.64,-8 441.64,-90.52"/>
<polyline fill="none" stroke="#94a3b8" stroke-width="1.15" points="228.36,-86.52 232.36,-86.52 232.36,-82.52 228.36,-82.52"/>
<polyline fill="none" stroke="#94a3b8" stroke-width="1.15" points="228.36,-16 232.36,-16 232.36,-12 228.36,-12"/>
<image href="../icons/generic-process.svg" x="225.50" y="-61.26" width="24" height="24" preserveAspectRatio="xMidYMid meet" aria-hidden="true"/>
<text xml:space="preserve" text-anchor="start" x="256.5" y="-45.76" font-family="Arial" font-size="10.00" fill="#f8fafc"> </text>
<text xml:space="preserve" text-anchor="start" x="320.5" y="-68.36" font-family="Arial" font-weight="bold" font-size="12.00" fill="#f8fafc">Backup and</text>
<text xml:space="preserve" text-anchor="start" x="302.5" y="-56.36" font-family="Arial" font-weight="bold" font-size="12.00" fill="#f8fafc">verification engine</text>
<text xml:space="preserve" text-anchor="start" x="303.25" y="-47.21" font-family="Arial" font-size="9.00" fill="#f8fafc">Creates and verifies local</text>
<text xml:space="preserve" text-anchor="start" x="299.5" y="-38.21" font-family="Arial" font-size="9.00" fill="#f8fafc">encrypted backups through</text>
<text xml:space="preserve" text-anchor="start" x="283" y="-29.21" font-family="Arial" font-size="9.00" fill="#f8fafc">backend/worker&#45;owned operations.</text>
<text xml:space="preserve" text-anchor="start" x="324.62" y="-21.16" font-family="Arial" font-size="8.00" fill="#f8fafc">Recovery worker</text>
</a>
</g>
</g>
<!-- command&#45;lifecycle -->
<g id="node3" class="node">
<title>command&#45;lifecycle</title>
<g id="a_node3"><a xlink:href="../../../../generated/production/architecture/components/command-lifecycle/" xlink:title="Command admission and lifecycle. Tracks admission, queued, claimed, running, terminal, acknowledgement, retry, and dead&#45;letter behavior independently from device lifecycle." target="_top">
<polygon fill="#14532d" stroke="#94a3b8" stroke-width="1.15" points="678.76,-90.52 463.24,-90.52 463.24,-86.52 459.24,-86.52 459.24,-82.52 463.24,-82.52 463.24,-16 459.24,-16 459.24,-12 463.24,-12 463.24,-8 678.76,-8 678.76,-90.52"/>
<polyline fill="none" stroke="#94a3b8" stroke-width="1.15" points="463.24,-86.52 467.24,-86.52 467.24,-82.52 463.24,-82.52"/>
<polyline fill="none" stroke="#94a3b8" stroke-width="1.15" points="463.24,-16 467.24,-16 467.24,-12 463.24,-12"/>
<image href="../icons/generic-event.svg" x="460.38" y="-61.26" width="24" height="24" preserveAspectRatio="xMidYMid meet" aria-hidden="true"/>
<text xml:space="preserve" text-anchor="start" x="491.38" y="-45.76" font-family="Arial" font-size="10.00" fill="#f8fafc"> </text>
<text xml:space="preserve" text-anchor="start" x="517.88" y="-68.36" font-family="Arial" font-weight="bold" font-size="12.00" fill="#f8fafc">Command admission and</text>
<text xml:space="preserve" text-anchor="start" x="567.75" y="-56.36" font-family="Arial" font-weight="bold" font-size="12.00" fill="#f8fafc">lifecycle</text>
<text xml:space="preserve" text-anchor="start" x="517.88" y="-47.21" font-family="Arial" font-size="9.00" fill="#f8fafc">Tracks admission, queued, claimed,</text>
<text xml:space="preserve" text-anchor="start" x="555.38" y="-38.21" font-family="Arial" font-size="9.00" fill="#f8fafc">running, terminal,</text>
<text xml:space="preserve" text-anchor="start" x="529.12" y="-29.21" font-family="Arial" font-size="9.00" fill="#f8fafc">acknowledgement, retry, and...</text>
<text xml:space="preserve" text-anchor="start" x="555.38" y="-21.16" font-family="Arial" font-size="8.00" fill="#f8fafc">FastAPI and worker</text>
</a>
</g>
</g>
<!-- nats&#45;jetstream -->
<g id="node4" class="node">
<title>nats&#45;jetstream</title>
<g id="a_node4"><a xlink:href="../../../../generated/production/architecture/components/nats-jetstream/" xlink:title="NATS / JetStream. Provides the command and event backbone with durable delivery; it is never contacted directly by the frontend." target="_top">
<path fill="#831843" stroke="#94a3b8" stroke-width="1.15" d="M667.45,-397.58C667.45,-397.58 347.12,-397.58 347.12,-397.58 341.12,-397.58 331.93,-392.5 328.74,-387.42 328.74,-387.42 252.93,-266.7 252.93,-266.7 249.74,-261.62 252.55,-256.54 258.55,-256.54 258.55,-256.54 578.88,-256.54 578.88,-256.54 584.88,-256.54 594.07,-261.62 597.26,-266.7 597.26,-266.7 673.07,-387.42 673.07,-387.42 676.26,-392.5 673.45,-397.58 667.45,-397.58"/>
<image href="../icons/generic-event.svg" x="355.75" y="-339.06" width="24" height="24" preserveAspectRatio="xMidYMid meet" aria-hidden="true"/>
<text xml:space="preserve" text-anchor="start" x="386.75" y="-323.56" font-family="Arial" font-size="10.00" fill="#f8fafc"> </text>
<text xml:space="preserve" text-anchor="start" x="433.5" y="-340.16" font-family="Arial" font-weight="bold" font-size="12.00" fill="#f8fafc">NATS / JetStream</text>
<text xml:space="preserve" text-anchor="start" x="414.75" y="-331.01" font-family="Arial" font-size="9.00" fill="#f8fafc">Provides the command and event</text>
<text xml:space="preserve" text-anchor="start" x="414.75" y="-322.01" font-family="Arial" font-size="9.00" fill="#f8fafc">backbone with durable delivery; it</text>
<text xml:space="preserve" text-anchor="start" x="413.25" y="-313.01" font-family="Arial" font-size="9.00" fill="#f8fafc">is never contacted directly by the...</text>
<text xml:space="preserve" text-anchor="start" x="462.38" y="-304.96" font-family="Arial" font-size="8.00" fill="#f8fafc">Server host</text>
</a>
</g>
</g>
<!-- worker -->
<g id="node5" class="node">
<title>worker</title>
<g id="a_node5"><a xlink:href="../../../../generated/production/architecture/components/worker/" xlink:title="Worker process. Consumes durable commands and owns backend execution for apps, security, recovery, releases, and lifecycle work." target="_top">
<polygon fill="#14532d" stroke="#f8fafc" stroke-width="2.2" points="679.26,-208.79 442.74,-208.79 442.74,-204.79 438.74,-204.79 438.74,-200.79 442.74,-200.79 442.74,-146.27 438.74,-146.27 438.74,-142.27 442.74,-142.27 442.74,-138.27 679.26,-138.27 679.26,-208.79"/>
<polyline fill="none" stroke="#f8fafc" stroke-width="2.2" points="442.74,-204.79 446.74,-204.79 446.74,-200.79 442.74,-200.79"/>
<polyline fill="none" stroke="#f8fafc" stroke-width="2.2" points="442.74,-146.27 446.74,-146.27 446.74,-142.27 442.74,-142.27"/>
<image href="../icons/generic-process.svg" x="439.88" y="-185.53" width="24" height="24" preserveAspectRatio="xMidYMid meet" aria-hidden="true"/>
<text xml:space="preserve" text-anchor="start" x="470.88" y="-170.03" font-family="Arial" font-size="10.00" fill="#f8fafc"> </text>
<text xml:space="preserve" text-anchor="start" x="535.62" y="-186.63" font-family="Arial" font-weight="bold" font-size="12.00" fill="#f8fafc">Worker process</text>
<text xml:space="preserve" text-anchor="start" x="497.38" y="-177.48" font-family="Arial" font-size="9.00" fill="#f8fafc">Consumes durable commands and owns</text>
<text xml:space="preserve" text-anchor="start" x="523.62" y="-168.48" font-family="Arial" font-size="9.00" fill="#f8fafc">backend execution for apps,</text>
<text xml:space="preserve" text-anchor="start" x="512.75" y="-159.48" font-family="Arial" font-size="9.00" fill="#f8fafc">security, recovery, releases, and...</text>
<text xml:space="preserve" text-anchor="start" x="560.38" y="-151.43" font-family="Arial" font-size="8.00" fill="#f8fafc">Server host</text>
</a>
</g>
</g>
<!-- state_dependency_0 -->
<g id="node6" class="node">
<title>state_dependency_0</title>
<g id="a_node6"><a xlink:title="Durable&#45;state dependency">
<polygon fill="#78350f" stroke="#94a3b8" points="795.64,-67.26 700.36,-67.26 700.36,-31.26 801.64,-31.26 801.64,-61.26 795.64,-67.26"/>
<polyline fill="none" stroke="#94a3b8" points="795.64,-67.26 795.64,-61.26"/>
<polyline fill="none" stroke="#94a3b8" points="801.64,-61.26 795.64,-61.26"/>
<text xml:space="preserve" text-anchor="middle" x="751" y="-45.76" font-family="Arial" font-size="10.00" fill="#f8fafc">command_lifecycle</text>
</a>
</g>
</g>
<!-- state_dependency_1 -->
<g id="node7" class="node">
<title>state_dependency_1</title>
<g id="a_node7"><a xlink:title="Durable&#45;state dependency">
<polygon fill="#78350f" stroke="#94a3b8" points="896.01,-67.26 823.99,-67.26 823.99,-31.26 902.01,-31.26 902.01,-61.26 896.01,-67.26"/>
<polyline fill="none" stroke="#94a3b8" points="896.01,-67.26 896.01,-61.26"/>
<polyline fill="none" stroke="#94a3b8" points="902.01,-61.26 896.01,-61.26"/>
<text xml:space="preserve" text-anchor="middle" x="863" y="-45.76" font-family="Arial" font-size="10.00" fill="#f8fafc">domain tables</text>
</a>
</g>
</g>
<!-- additional_dependencies -->
<g id="node8" class="node">
<title>additional_dependencies</title>
<g id="a_node8"><a xlink:title="Additional dependencies (3)">
<polygon fill="#111827" stroke="#94a3b8" stroke-dasharray="5,2" points="1055.64,-67.26 924.36,-67.26 924.36,-31.26 1061.64,-31.26 1061.64,-61.26 1055.64,-67.26"/>
<polyline fill="none" stroke="#94a3b8" stroke-dasharray="5,2" points="1055.64,-67.26 1055.64,-61.26"/>
<polyline fill="none" stroke="#94a3b8" stroke-dasharray="5,2" points="1061.64,-61.26 1055.64,-61.26"/>
<text xml:space="preserve" text-anchor="middle" x="993" y="-45.76" font-family="Arial" font-size="10.00" fill="#f8fafc">Additional dependencies (3)</text>
</a>
</g>
</g>
</g>
</svg>
