<?xml version="1.0" encoding="UTF-8" standalone="no"?>
<!-- Generated by graphviz version 14.1.2 (0)
 -->
<svg id="pocketlab-backup-restore-dark" role="img" aria-labelledby="pocketlab-backup-restore-dark-title pocketlab-backup-restore-dark-desc" width="5389pt" height="407pt"
 viewBox="0.00 0.00 5389.00 407.00" xmlns="http://www.w3.org/2000/svg" xmlns:xlink="http://www.w3.org/1999/xlink">
<title id="pocketlab-backup-restore-dark-title">Backup and restore</title>
<desc id="pocketlab-backup-restore-dark-desc">Backup, verification, restore preview, confirmation, checkpoint, health validation, retention, and database recovery.</desc>
<metadata id="pocketlab-source-fingerprint">717bb3a5a479578087f2723a4efe67421678b69211523ba70dcfb4fdd27df6fd</metadata>
<g id="graph0" class="graph" transform="scale(1 1) rotate(0) translate(18 389.25)">
<polygon fill="#0f172a" stroke="none" points="-18,18 -18,-389.25 5370.69,-389.25 5370.69,18 -18,18"/>
<text xml:space="preserve" text-anchor="middle" x="2676.34" y="-348.25" font-family="Arial" font-size="20.00" fill="#f8fafc">Backup and restore</text>
<g id="clust1" class="cluster">
<title>cluster_browser</title>
<path fill="#111827" stroke="#64748b" stroke-dasharray="5,2" d="M36.12,-32C36.12,-32 429.41,-32 429.41,-32 435.41,-32 441.41,-38 441.41,-44 441.41,-44 441.41,-105 441.41,-105 441.41,-111 435.41,-117 429.41,-117 429.41,-117 36.12,-117 36.12,-117 30.12,-117 24.12,-111 24.12,-105 24.12,-105 24.12,-44 24.12,-44 24.12,-38 30.12,-32 36.12,-32"/>
<text xml:space="preserve" text-anchor="middle" x="232.77" y="-94" font-family="Arial" font-size="20.00" fill="#f8fafc">Browser trust boundary</text>
</g>
<g id="clust2" class="cluster">
<title>cluster_control&#45;api</title>
<path fill="#111827" stroke="#64748b" stroke-dasharray="5,2" d="M20,-140C20,-140 445.53,-140 445.53,-140 451.53,-140 457.53,-146 457.53,-152 457.53,-152 457.53,-213 457.53,-213 457.53,-219 451.53,-225 445.53,-225 445.53,-225 20,-225 20,-225 14,-225 8,-219 8,-213 8,-213 8,-152 8,-152 8,-146 14,-140 20,-140"/>
<text xml:space="preserve" text-anchor="middle" x="232.77" y="-202" font-family="Arial" font-size="20.00" fill="#f8fafc">Control API boundary</text>
</g>
<g id="clust3" class="cluster">
<title>cluster_durable&#45;state</title>
<path fill="#111827" stroke="#64748b" stroke-dasharray="5,2" d="M3820.1,-8C3820.1,-8 5332.69,-8 5332.69,-8 5338.69,-8 5344.69,-14 5344.69,-20 5344.69,-20 5344.69,-101 5344.69,-101 5344.69,-107 5338.69,-113 5332.69,-113 5332.69,-113 3820.1,-113 3820.1,-113 3814.1,-113 3808.1,-107 3808.1,-101 3808.1,-101 3808.1,-20 3808.1,-20 3808.1,-14 3814.1,-8 3820.1,-8"/>
<text xml:space="preserve" text-anchor="middle" x="4576.39" y="-90" font-family="Arial" font-size="20.00" fill="#f8fafc">Durable&#45;state boundary</text>
</g>
<g id="clust4" class="cluster">
<title>cluster_messaging&#45;execution</title>
<path fill="#111827" stroke="#64748b" stroke-dasharray="5,2" d="M625.78,-113C625.78,-113 4785.41,-113 4785.41,-113 4791.41,-113 4797.41,-119 4797.41,-125 4797.41,-125 4797.41,-320 4797.41,-320 4797.41,-326 4791.41,-332 4785.41,-332 4785.41,-332 625.78,-332 625.78,-332 619.78,-332 613.78,-326 613.78,-320 613.78,-320 613.78,-125 613.78,-125 613.78,-119 619.78,-113 625.78,-113"/>
<text xml:space="preserve" text-anchor="middle" x="2705.59" y="-309" font-family="Arial" font-size="20.00" fill="#f8fafc">Messaging and execution boundary</text>
</g>
<!-- api&#45;domain&#45;surfaces&#45;&gt;nats&#45;jetstream -->
<g id="edge1" class="edge">
<title>api&#45;domain&#45;surfaces&#45;&gt;nats&#45;jetstream</title>
<g id="a_edge1"><a xlink:title="publishes validated command (NATS)">
<path fill="none" stroke="#cbd5e1" stroke-width="1.15" d="M458.07,-167C458.07,-167 694.71,-167 694.71,-167"/>
<polygon fill="#cbd5e1" stroke="#cbd5e1" stroke-width="1.15" points="694.71,-169.52 701.91,-167 694.71,-164.48 694.71,-169.52"/>
</a>
</g>
<text xml:space="preserve" text-anchor="middle" x="535.66" y="-169.15" font-family="Arial" font-size="8.00" fill="#cbd5e1">publishes validated command</text>
</g>
<!-- recovery&#45;state&#45;&gt;sqlite -->
<g id="edge8" class="edge">
<title>recovery&#45;state&#45;&gt;sqlite</title>
<g id="a_edge8"><a xlink:title="stored in (SQLite)">
<path fill="none" stroke="#60a5fa" stroke-width="1.15" d="M4234.82,-45C4234.82,-45 4920.95,-45 4920.95,-45"/>
<polygon fill="#60a5fa" stroke="#60a5fa" stroke-width="1.15" points="4920.95,-47.52 4928.15,-45 4920.95,-42.48 4920.95,-47.52"/>
</a>
</g>
<text xml:space="preserve" text-anchor="middle" x="4583.14" y="-47.15" font-family="Arial" font-size="8.00" fill="#60a5fa">stored in</text>
</g>
<!-- nats&#45;jetstream&#45;&gt;worker -->
<g id="edge5" class="edge">
<title>nats&#45;jetstream&#45;&gt;worker</title>
<g id="a_edge5"><a xlink:title="durable delivery (JetStream)">
<path fill="none" stroke="#cbd5e1" stroke-width="1.15" d="M1405.91,-164C1405.91,-164 1599.58,-164 1599.58,-164"/>
<polygon fill="#cbd5e1" stroke="#cbd5e1" stroke-width="1.15" points="1599.58,-166.52 1606.78,-164 1599.58,-161.48 1599.58,-166.52"/>
</a>
</g>
<text xml:space="preserve" text-anchor="middle" x="1554.91" y="-168.15" font-family="Arial" font-size="8.00" fill="#cbd5e1">durable delivery</text>
</g>
<!-- worker&#45;&gt;backup&#45;engine -->
<g id="edge11" class="edge">
<title>worker&#45;&gt;backup&#45;engine</title>
<g id="a_edge11"><a xlink:title="runs backup work (Python)">
<path fill="none" stroke="#cbd5e1" stroke-width="1.15" d="M2054.35,-156C2054.35,-156 2159.77,-156 2159.77,-156"/>
<polygon fill="#cbd5e1" stroke="#cbd5e1" stroke-width="1.15" points="2159.77,-158.52 2166.97,-156 2159.77,-153.48 2159.77,-158.52"/>
</a>
</g>
<text xml:space="preserve" text-anchor="middle" x="2111.56" y="-153.15" font-family="Arial" font-size="8.00" fill="#cbd5e1">runs backup work</text>
</g>
<!-- backup&#45;engine&#45;&gt;recovery&#45;state -->
<g id="edge9" class="edge">
<title>backup&#45;engine&#45;&gt;recovery&#45;state</title>
<g id="a_edge9"><a xlink:title="updates backup state (SQLite)">
<path fill="none" stroke="#60a5fa" stroke-width="1.15" d="M2385.69,-120.88C2385.69,-91.5 2385.69,-48.76 2385.69,-48.76 2385.69,-48.76 3798.89,-48.76 3798.89,-48.76"/>
<polygon fill="#60a5fa" stroke="#60a5fa" stroke-width="1.15" points="3798.89,-51.28 3806.09,-48.76 3798.89,-46.24 3798.89,-51.28"/>
</a>
</g>
<text xml:space="preserve" text-anchor="middle" x="3193.09" y="-50.15" font-family="Arial" font-size="8.00" fill="#60a5fa">updates backup state</text>
</g>
<!-- backup&#45;engine&#45;&gt;restore&#45;preview -->
<g id="edge2" class="edge">
<title>backup&#45;engine&#45;&gt;restore&#45;preview</title>
<g id="a_edge2"><a xlink:title="verified backup input (Manifest)">
<path fill="none" stroke="#cbd5e1" stroke-width="1.15" d="M2601.7,-144C2601.7,-144 2975.78,-144 2975.78,-144"/>
<polygon fill="#cbd5e1" stroke="#cbd5e1" stroke-width="1.15" points="2975.78,-146.52 2982.98,-144 2975.78,-141.48 2975.78,-146.52"/>
</a>
</g>
<text xml:space="preserve" text-anchor="middle" x="2671.97" y="-143.15" font-family="Arial" font-size="8.00" fill="#cbd5e1">verified backup input</text>
</g>
<!-- backup&#45;engine&#45;&gt;completion&#45;evidence -->
<g id="edge4" class="edge">
<title>backup&#45;engine&#45;&gt;completion&#45;evidence</title>
<g id="a_edge4"><a xlink:title="records sanitized lifecycle (SQLite/NATS)">
<path fill="none" stroke="#c4b5fd" stroke-width="1.15" stroke-dasharray="1,5" d="M2601.7,-170.76C2728.4,-170.76 2863.69,-170.76 2863.69,-170.76 2863.69,-170.76 2863.69,-184.28 2863.69,-184.28"/>
<polygon fill="#c4b5fd" stroke="#c4b5fd" stroke-width="1.15" points="2861.17,-184.28 2863.69,-191.48 2866.21,-184.28 2861.17,-184.28"/>
</a>
</g>
<text xml:space="preserve" text-anchor="middle" x="2671.97" y="-217.15" font-family="Arial" font-size="8.00" fill="#c4b5fd">records sanitized lifecycle</text>
</g>
<!-- restore&#45;preview&#45;&gt;recovery&#45;state -->
<g id="edge10" class="edge">
<title>restore&#45;preview&#45;&gt;recovery&#45;state</title>
<g id="a_edge10"><a xlink:title="updates restore state (SQLite)">
<path fill="none" stroke="#60a5fa" stroke-width="1.15" d="M3192.69,-113.02C3192.69,-91.62 3192.69,-65.28 3192.69,-65.28 3192.69,-65.28 3798.65,-65.28 3798.65,-65.28"/>
<polygon fill="#60a5fa" stroke="#60a5fa" stroke-width="1.15" points="3798.65,-67.8 3805.85,-65.28 3798.65,-62.76 3798.65,-67.8"/>
</a>
</g>
<text xml:space="preserve" text-anchor="middle" x="3725.85" y="-98.15" font-family="Arial" font-size="8.00" fill="#60a5fa">updates restore state</text>
</g>
<!-- restore&#45;preview&#45;&gt;checkpoints&#45;retention -->
<g id="edge6" class="edge">
<title>restore&#45;preview&#45;&gt;checkpoints&#45;retention</title>
<g id="a_edge6"><a xlink:title="creates checkpoint before apply (NATS)">
<path fill="none" stroke="#fbbf24" stroke-width="1.15" stroke-dasharray="5,2" d="M3401.53,-140C3401.53,-140 3799.86,-140 3799.86,-140"/>
<polygon fill="#fbbf24" stroke="#fbbf24" stroke-width="1.15" points="3807.06,-140 3799.86,-143.24 3804.86,-140.08 3799.86,-140.08 3799.86,-140 3799.86,-139.93 3804.86,-139.93 3799.86,-136.76 3807.06,-140"/>
</a>
</g>
<text xml:space="preserve" text-anchor="middle" x="3725.85" y="-142.15" font-family="Arial" font-size="8.00" fill="#fbbf24">creates checkpoint before apply</text>
</g>
<!-- checkpoints&#45;retention&#45;&gt;retirement&#45;database&#45;recovery -->
<g id="edge7" class="edge">
<title>checkpoints&#45;retention&#45;&gt;retirement&#45;database&#45;recovery</title>
<g id="a_edge7"><a xlink:title="provides recovery point (SQLite)">
<path fill="none" stroke="#fbbf24" stroke-width="1.15" stroke-dasharray="5,2" d="M4234.07,-140C4234.07,-140 4359.76,-140 4359.76,-140"/>
<polygon fill="#fbbf24" stroke="#fbbf24" stroke-width="1.15" points="4366.96,-140 4359.76,-143.24 4364.76,-140.08 4359.76,-140.08 4359.76,-140 4359.76,-139.93 4364.76,-139.93 4359.76,-136.76 4366.96,-140"/>
</a>
</g>
<text xml:space="preserve" text-anchor="middle" x="4301.63" y="-142.15" font-family="Arial" font-size="8.00" fill="#fbbf24">provides recovery point</text>
</g>
<!-- retirement&#45;database&#45;recovery&#45;&gt;sqlite -->
<g id="edge3" class="edge">
<title>retirement&#45;database&#45;recovery&#45;&gt;sqlite</title>
<g id="a_edge3"><a xlink:title="verified backup/restore (SQLite/filesystem)">
<path fill="none" stroke="#fbbf24" stroke-width="1.15" stroke-dasharray="5,2" d="M4797.94,-140C4953.9,-140 5137.69,-140 5137.69,-140 5137.69,-140 5137.69,-90.88 5137.69,-90.88"/>
<polygon fill="#fbbf24" stroke="#fbbf24" stroke-width="1.15" points="5137.69,-83.68 5140.93,-90.88 5137.76,-85.87 5137.76,-90.88 5137.69,-90.88 5137.61,-90.88 5137.61,-85.87 5134.45,-90.88 5137.69,-83.68"/>
</a>
</g>
<text xml:space="preserve" text-anchor="middle" x="4863.91" y="-111.15" font-family="Arial" font-size="8.00" fill="#fbbf24">verified backup/restore</text>
</g>
<!-- pwa -->
<g id="node1" class="node">
<title>pwa</title>
<g id="a_node1"><a xlink:href="../../../../generated/production/architecture/components/pwa/" xlink:title="React / Vite PWA. Renders Lite screens and sends same&#45;origin requests only to FastAPI through Caddy." target="_top">
<path fill="#0c4a6e" stroke="#94a3b8" stroke-width="1.15" d="M429.41,-85.76C429.41,-85.76 36.13,-85.76 36.13,-85.76 30.13,-85.76 24.13,-79.76 24.13,-73.76 24.13,-73.76 24.13,-44.24 24.13,-44.24 24.13,-38.24 30.13,-32.24 36.13,-32.24 36.13,-32.24 429.41,-32.24 429.41,-32.24 435.41,-32.24 441.41,-38.24 441.41,-44.24 441.41,-44.24 441.41,-73.76 441.41,-73.76 441.41,-79.76 435.41,-85.76 429.41,-85.76"/>
<image href="../icons/generic-ui.svg" x="21.27" y="-71.00" width="24" height="24" preserveAspectRatio="xMidYMid meet" aria-hidden="true"/>
<text xml:space="preserve" text-anchor="start" x="52.27" y="-55.5" font-family="Arial" font-size="10.00" fill="#f8fafc"> </text>
<text xml:space="preserve" text-anchor="start" x="205.89" y="-63.1" font-family="Arial" font-weight="bold" font-size="12.00" fill="#f8fafc">React / Vite PWA</text>
<text xml:space="preserve" text-anchor="start" x="78.77" y="-53.95" font-family="Arial" font-size="9.00" fill="#f8fafc">Renders Lite screens and sends same&#45;origin requests only to FastAPI through Caddy.</text>
<text xml:space="preserve" text-anchor="start" x="210.02" y="-45.9" font-family="Arial" font-size="8.00" fill="#f8fafc">Browser / installed PWA</text>
</a>
</g>
</g>
<!-- api&#45;domain&#45;surfaces -->
<g id="node2" class="node">
<title>api&#45;domain&#45;surfaces</title>
<g id="a_node2"><a xlink:href="../../../../generated/production/architecture/components/api-domain-surfaces/" xlink:title="Fleet, Apps, Security, Recovery, and Release APIs. Exposes domain&#45;specific read and command endpoints while preserving backend&#45;owned lifecycle execution." target="_top">
<path fill="#312e81" stroke="#94a3b8" stroke-width="1.15" d="M445.53,-193.76C445.53,-193.76 20,-193.76 20,-193.76 14,-193.76 8,-187.76 8,-181.76 8,-181.76 8,-152.24 8,-152.24 8,-146.24 14,-140.24 20,-140.24 20,-140.24 445.53,-140.24 445.53,-140.24 451.53,-140.24 457.53,-146.24 457.53,-152.24 457.53,-152.24 457.53,-181.76 457.53,-181.76 457.53,-187.76 451.53,-193.76 445.53,-193.76"/>
<image href="../icons/generic-service.svg" x="5.14" y="-179.00" width="24" height="24" preserveAspectRatio="xMidYMid meet" aria-hidden="true"/>
<text xml:space="preserve" text-anchor="start" x="36.14" y="-163.5" font-family="Arial" font-size="10.00" fill="#f8fafc"> </text>
<text xml:space="preserve" text-anchor="start" x="111.02" y="-171.1" font-family="Arial" font-weight="bold" font-size="12.00" fill="#f8fafc">Fleet, Apps, Security, Recovery, and Release APIs</text>
<text xml:space="preserve" text-anchor="start" x="62.64" y="-161.95" font-family="Arial" font-size="9.00" fill="#f8fafc">Exposes domain&#45;specific read and command endpoints while preserving backend&#45;owned lif...</text>
<text xml:space="preserve" text-anchor="start" x="223.52" y="-153.9" font-family="Arial" font-size="8.00" fill="#f8fafc">FastAPI process</text>
</a>
</g>
</g>
<!-- recovery&#45;state -->
<g id="node3" class="node">
<title>recovery&#45;state</title>
<g id="a_node3"><a xlink:href="../../../../generated/production/architecture/components/recovery-state/" xlink:title="Backup, restore, and checkpoint state. Stores backup manifests, recovery operations, current state, database backups/restores, and restore checkpoints." target="_top">
<path fill="#78350f" stroke="#94a3b8" stroke-width="1.15" d="M4234.38,-75.1C4234.38,-78.8 4138.84,-81.79 4021.24,-81.79 3903.63,-81.79 3808.1,-78.8 3808.1,-75.1 3808.1,-75.1 3808.1,-14.9 3808.1,-14.9 3808.1,-11.2 3903.63,-8.21 4021.24,-8.21 4138.84,-8.21 4234.38,-11.2 4234.38,-14.9 4234.38,-14.9 4234.38,-75.1 4234.38,-75.1"/>
<path fill="none" stroke="#94a3b8" stroke-width="1.15" d="M4234.38,-75.1C4234.38,-71.41 4138.84,-68.41 4021.24,-68.41 3903.63,-68.41 3808.1,-71.41 3808.1,-75.1"/>
<image href="../icons/generic-database.svg" x="3805.24" y="-57.00" width="24" height="24" preserveAspectRatio="xMidYMid meet" aria-hidden="true"/>
<text xml:space="preserve" text-anchor="start" x="3836.24" y="-41.5" font-family="Arial" font-size="10.00" fill="#f8fafc"> </text>
<text xml:space="preserve" text-anchor="start" x="3933.24" y="-49.1" font-family="Arial" font-weight="bold" font-size="12.00" fill="#f8fafc">Backup, restore, and checkpoint state</text>
<text xml:space="preserve" text-anchor="start" x="3862.74" y="-39.95" font-family="Arial" font-size="9.00" fill="#f8fafc">Stores backup manifests, recovery operations, current state, database backups/restore...</text>
<text xml:space="preserve" text-anchor="start" x="3971.11" y="-31.9" font-family="Arial" font-size="8.00" fill="#f8fafc">SQLite and repository&#45;owned manifests</text>
</a>
</g>
</g>
<!-- sqlite -->
<g id="node4" class="node">
<title>sqlite</title>
<g id="a_node4"><a xlink:href="../../../../generated/production/architecture/components/sqlite/" xlink:title="SQLite control&#45;plane store. Stores canonical Lite lifecycle state and prepared projections; the frontend never accesses it directly." target="_top">
<path fill="#78350f" stroke="#94a3b8" stroke-width="1.15" d="M5344.69,-75.1C5344.69,-78.8 5251.84,-81.79 5137.55,-81.79 5023.25,-81.79 4930.41,-78.8 4930.41,-75.1 4930.41,-75.1 4930.41,-14.9 4930.41,-14.9 4930.41,-11.2 5023.25,-8.21 5137.55,-8.21 5251.84,-8.21 5344.69,-11.2 5344.69,-14.9 5344.69,-14.9 5344.69,-75.1 5344.69,-75.1"/>
<path fill="none" stroke="#94a3b8" stroke-width="1.15" d="M5344.69,-75.1C5344.69,-71.41 5251.84,-68.41 5137.55,-68.41 5023.25,-68.41 4930.41,-71.41 4930.41,-75.1"/>
<image href="../icons/generic-database.svg" x="4927.55" y="-57.00" width="24" height="24" preserveAspectRatio="xMidYMid meet" aria-hidden="true"/>
<text xml:space="preserve" text-anchor="start" x="4958.55" y="-41.5" font-family="Arial" font-size="10.00" fill="#f8fafc"> </text>
<text xml:space="preserve" text-anchor="start" x="5082.92" y="-49.1" font-family="Arial" font-weight="bold" font-size="12.00" fill="#f8fafc">SQLite control&#45;plane store</text>
<text xml:space="preserve" text-anchor="start" x="4985.05" y="-39.95" font-family="Arial" font-size="9.00" fill="#f8fafc">Stores canonical Lite lifecycle state and prepared projections; the frontend never ac...</text>
<text xml:space="preserve" text-anchor="start" x="5136.92" y="-31.9" font-family="Arial" font-size="8.00" fill="#f8fafc">Server host</text>
</a>
</g>
</g>
<!-- nats&#45;jetstream -->
<g id="node5" class="node">
<title>nats&#45;jetstream</title>
<g id="a_node5"><a xlink:href="../../../../generated/production/architecture/components/nats-jetstream/" xlink:title="NATS / JetStream. Provides the command and event backbone with durable delivery; it is never contacted directly by the frontend." target="_top">
<path fill="#831843" stroke="#94a3b8" stroke-width="1.15" d="M1488.78,-220.52C1488.78,-220.52 807.27,-220.52 807.27,-220.52 801.27,-220.52 790.1,-217.47 784.94,-214.42 784.94,-214.42 624.12,-119.58 624.12,-119.58 618.95,-116.53 619.78,-113.48 625.78,-113.48 625.78,-113.48 1307.29,-113.48 1307.29,-113.48 1313.29,-113.48 1324.46,-116.53 1329.63,-119.58 1329.63,-119.58 1490.45,-214.42 1490.45,-214.42 1495.62,-217.47 1494.78,-220.52 1488.78,-220.52"/>
<image href="../icons/generic-event.svg" x="840.53" y="-179.00" width="24" height="24" preserveAspectRatio="xMidYMid meet" aria-hidden="true"/>
<text xml:space="preserve" text-anchor="start" x="871.53" y="-163.5" font-family="Arial" font-size="10.00" fill="#f8fafc"> </text>
<text xml:space="preserve" text-anchor="start" x="1027.78" y="-171.1" font-family="Arial" font-weight="bold" font-size="12.00" fill="#f8fafc">NATS / JetStream</text>
<text xml:space="preserve" text-anchor="start" x="898.03" y="-161.95" font-family="Arial" font-size="9.00" fill="#f8fafc">Provides the command and event backbone with durable delivery; it is never contacted...</text>
<text xml:space="preserve" text-anchor="start" x="1056.66" y="-153.9" font-family="Arial" font-size="8.00" fill="#f8fafc">Server host</text>
</a>
</g>
</g>
<!-- worker -->
<g id="node6" class="node">
<title>worker</title>
<g id="a_node6"><a xlink:href="../../../../generated/production/architecture/components/worker/" xlink:title="Worker process. Consumes durable commands and owns backend execution for apps, security, recovery, releases, and lifecycle work." target="_top">
<polygon fill="#14532d" stroke="#94a3b8" stroke-width="1.15" points="2054.06,-190.76 1609.03,-190.76 1609.03,-186.76 1605.03,-186.76 1605.03,-182.76 1609.03,-182.76 1609.03,-145.24 1605.03,-145.24 1605.03,-141.24 1609.03,-141.24 1609.03,-137.24 2054.06,-137.24 2054.06,-190.76"/>
<polyline fill="none" stroke="#94a3b8" stroke-width="1.15" points="1609.03,-186.76 1613.03,-186.76 1613.03,-182.76 1609.03,-182.76"/>
<polyline fill="none" stroke="#94a3b8" stroke-width="1.15" points="1609.03,-145.24 1613.03,-145.24 1613.03,-141.24 1609.03,-141.24"/>
<image href="../icons/generic-process.svg" x="1606.17" y="-176.00" width="24" height="24" preserveAspectRatio="xMidYMid meet" aria-hidden="true"/>
<text xml:space="preserve" text-anchor="start" x="1637.17" y="-160.5" font-family="Arial" font-size="10.00" fill="#f8fafc"> </text>
<text xml:space="preserve" text-anchor="start" x="1806.17" y="-168.1" font-family="Arial" font-weight="bold" font-size="12.00" fill="#f8fafc">Worker process</text>
<text xml:space="preserve" text-anchor="start" x="1663.67" y="-158.95" font-family="Arial" font-size="9.00" fill="#f8fafc">Consumes durable commands and owns backend execution for apps, security, recovery, re...</text>
<text xml:space="preserve" text-anchor="start" x="1830.92" y="-150.9" font-family="Arial" font-size="8.00" fill="#f8fafc">Server host</text>
</a>
</g>
</g>
<!-- backup&#45;engine -->
<g id="node7" class="node">
<title>backup&#45;engine</title>
<g id="a_node7"><a xlink:href="../../../../generated/production/architecture/components/backup-engine/" xlink:title="Backup and verification engine. Creates and verifies local encrypted backups through backend/worker&#45;owned operations." target="_top">
<polygon fill="#14532d" stroke="#94a3b8" stroke-width="1.15" points="2601.34,-174.76 2169.06,-174.76 2169.06,-170.76 2165.06,-170.76 2165.06,-166.76 2169.06,-166.76 2169.06,-129.24 2165.06,-129.24 2165.06,-125.24 2169.06,-125.24 2169.06,-121.24 2601.34,-121.24 2601.34,-174.76"/>
<polyline fill="none" stroke="#94a3b8" stroke-width="1.15" points="2169.06,-170.76 2173.06,-170.76 2173.06,-166.76 2169.06,-166.76"/>
<polyline fill="none" stroke="#94a3b8" stroke-width="1.15" points="2169.06,-129.24 2173.06,-129.24 2173.06,-125.24 2169.06,-125.24"/>
<image href="../icons/generic-process.svg" x="2166.20" y="-160.00" width="24" height="24" preserveAspectRatio="xMidYMid meet" aria-hidden="true"/>
<text xml:space="preserve" text-anchor="start" x="2197.2" y="-144.5" font-family="Arial" font-size="10.00" fill="#f8fafc"> </text>
<text xml:space="preserve" text-anchor="start" x="2316.7" y="-152.1" font-family="Arial" font-weight="bold" font-size="12.00" fill="#f8fafc">Backup and verification engine</text>
<text xml:space="preserve" text-anchor="start" x="2223.7" y="-142.95" font-family="Arial" font-size="9.00" fill="#f8fafc">Creates and verifies local encrypted backups through backend/worker&#45;owned operations.</text>
<text xml:space="preserve" text-anchor="start" x="2374.83" y="-134.9" font-family="Arial" font-size="8.00" fill="#f8fafc">Recovery worker</text>
</a>
</g>
</g>
<!-- restore&#45;preview -->
<g id="node8" class="node">
<title>restore&#45;preview</title>
<g id="a_node8"><a xlink:href="../../../../generated/production/architecture/components/restore-preview/" xlink:title="Restore preview and confirmed restore. Builds a non&#45;destructive preview, requires explicit confirmation, creates a checkpoint, applies restore, and validates health." target="_top">
<polygon fill="#14532d" stroke="#94a3b8" stroke-width="1.15" points="3400.98,-166.76 2985.2,-166.76 2985.2,-162.76 2981.2,-162.76 2981.2,-158.76 2985.2,-158.76 2985.2,-121.24 2981.2,-121.24 2981.2,-117.24 2985.2,-117.24 2985.2,-113.24 3400.98,-113.24 3400.98,-166.76"/>
<polyline fill="none" stroke="#94a3b8" stroke-width="1.15" points="2985.2,-162.76 2989.2,-162.76 2989.2,-158.76 2985.2,-158.76"/>
<polyline fill="none" stroke="#94a3b8" stroke-width="1.15" points="2985.2,-121.24 2989.2,-121.24 2989.2,-117.24 2985.2,-117.24"/>
<image href="../icons/generic-decision.svg" x="2982.34" y="-152.00" width="24" height="24" preserveAspectRatio="xMidYMid meet" aria-hidden="true"/>
<text xml:space="preserve" text-anchor="start" x="3013.34" y="-136.5" font-family="Arial" font-size="10.00" fill="#f8fafc"> </text>
<text xml:space="preserve" text-anchor="start" x="3102.47" y="-144.1" font-family="Arial" font-weight="bold" font-size="12.00" fill="#f8fafc">Restore preview and confirmed restore</text>
<text xml:space="preserve" text-anchor="start" x="3039.84" y="-134.95" font-family="Arial" font-size="9.00" fill="#f8fafc">Builds a non&#45;destructive preview, requires explicit confirmation, creates a checkpoin...</text>
<text xml:space="preserve" text-anchor="start" x="3182.72" y="-126.9" font-family="Arial" font-size="8.00" fill="#f8fafc">Recovery worker</text>
</a>
</g>
</g>
<!-- checkpoints&#45;retention -->
<g id="node9" class="node">
<title>checkpoints&#45;retention</title>
<g id="a_node9"><a xlink:href="../../../../generated/production/architecture/components/checkpoints-retention/" xlink:title="Checkpoints and retention policy. Creates pre&#45;change checkpoints and applies explicit bounded retention without silently deleting current state." target="_top">
<polygon fill="#14532d" stroke="#94a3b8" stroke-width="1.15" points="4233.63,-166.76 3808.85,-166.76 3808.85,-162.76 3804.85,-162.76 3804.85,-158.76 3808.85,-158.76 3808.85,-121.24 3804.85,-121.24 3804.85,-117.24 3808.85,-117.24 3808.85,-113.24 4233.63,-113.24 4233.63,-166.76"/>
<polyline fill="none" stroke="#94a3b8" stroke-width="1.15" points="3808.85,-162.76 3812.85,-162.76 3812.85,-158.76 3808.85,-158.76"/>
<polyline fill="none" stroke="#94a3b8" stroke-width="1.15" points="3808.85,-121.24 3812.85,-121.24 3812.85,-117.24 3808.85,-117.24"/>
<image href="../icons/generic-process.svg" x="3805.99" y="-152.00" width="24" height="24" preserveAspectRatio="xMidYMid meet" aria-hidden="true"/>
<text xml:space="preserve" text-anchor="start" x="3836.99" y="-136.5" font-family="Arial" font-size="10.00" fill="#f8fafc"> </text>
<text xml:space="preserve" text-anchor="start" x="3946.74" y="-144.1" font-family="Arial" font-weight="bold" font-size="12.00" fill="#f8fafc">Checkpoints and retention policy</text>
<text xml:space="preserve" text-anchor="start" x="3863.49" y="-134.95" font-family="Arial" font-size="9.00" fill="#f8fafc">Creates pre&#45;change checkpoints and applies explicit bounded retention without silentl...</text>
<text xml:space="preserve" text-anchor="start" x="4010.86" y="-126.9" font-family="Arial" font-size="8.00" fill="#f8fafc">Recovery worker</text>
</a>
</g>
</g>
<!-- retirement&#45;database&#45;recovery -->
<g id="node10" class="node">
<title>retirement&#45;database&#45;recovery</title>
<g id="a_node10"><a xlink:href="../../../../generated/production/architecture/components/retirement-database-recovery/" xlink:title="Explicit retirement and database recovery. Requires assessment and confirmation for device retirement and provides verified database backup/preview/restore without coupling command cleanup to device deletion." target="_top">
<polygon fill="#14532d" stroke="#94a3b8" stroke-width="1.15" points="4797.41,-166.76 4368.88,-166.76 4368.88,-162.76 4364.88,-162.76 4364.88,-158.76 4368.88,-158.76 4368.88,-121.24 4364.88,-121.24 4364.88,-117.24 4368.88,-117.24 4368.88,-113.24 4797.41,-113.24 4797.41,-166.76"/>
<polyline fill="none" stroke="#94a3b8" stroke-width="1.15" points="4368.88,-162.76 4372.88,-162.76 4372.88,-158.76 4368.88,-158.76"/>
<polyline fill="none" stroke="#94a3b8" stroke-width="1.15" points="4368.88,-121.24 4372.88,-121.24 4372.88,-117.24 4368.88,-117.24"/>
<image href="../icons/generic-decision.svg" x="4366.02" y="-152.00" width="24" height="24" preserveAspectRatio="xMidYMid meet" aria-hidden="true"/>
<text xml:space="preserve" text-anchor="start" x="4397.02" y="-136.5" font-family="Arial" font-size="10.00" fill="#f8fafc"> </text>
<text xml:space="preserve" text-anchor="start" x="4485.02" y="-144.1" font-family="Arial" font-weight="bold" font-size="12.00" fill="#f8fafc">Explicit retirement and database recovery</text>
<text xml:space="preserve" text-anchor="start" x="4423.52" y="-134.95" font-family="Arial" font-size="9.00" fill="#f8fafc">Requires assessment and confirmation for device retirement and provides verified data...</text>
<text xml:space="preserve" text-anchor="start" x="4573.14" y="-126.9" font-family="Arial" font-size="8.00" fill="#f8fafc">FastAPI / worker</text>
</a>
</g>
</g>
<!-- completion&#45;evidence -->
<g id="node11" class="node">
<title>completion&#45;evidence</title>
<g id="a_node11"><a xlink:href="../../../../generated/production/architecture/components/completion-evidence/" xlink:title="Completion and audit evidence. Records sanitized lifecycle and completion evidence for commands, devices, apps, security, recovery, and releases." target="_top">
<path fill="#831843" stroke="#94a3b8" stroke-width="1.15" d="M3631.6,-300.52C3631.6,-300.52 2938.95,-300.52 2938.95,-300.52 2932.95,-300.52 2921.76,-297.51 2916.57,-294.49 2916.57,-294.49 2752.97,-199.51 2752.97,-199.51 2747.78,-196.49 2748.59,-193.48 2754.59,-193.48 2754.59,-193.48 3447.24,-193.48 3447.24,-193.48 3453.24,-193.48 3464.43,-196.49 3469.62,-199.51 3469.62,-199.51 3633.22,-294.49 3633.22,-294.49 3638.41,-297.51 3637.6,-300.52 3631.6,-300.52"/>
<image href="../icons/generic-event.svg" x="2972.97" y="-259.00" width="24" height="24" preserveAspectRatio="xMidYMid meet" aria-hidden="true"/>
<text xml:space="preserve" text-anchor="start" x="3003.97" y="-243.5" font-family="Arial" font-size="10.00" fill="#f8fafc"> </text>
<text xml:space="preserve" text-anchor="start" x="3124.59" y="-251.1" font-family="Arial" font-weight="bold" font-size="12.00" fill="#f8fafc">Completion and audit evidence</text>
<text xml:space="preserve" text-anchor="start" x="3030.47" y="-241.95" font-family="Arial" font-size="9.00" fill="#f8fafc">Records sanitized lifecycle and completion evidence for commands, devices, apps, secu...</text>
<text xml:space="preserve" text-anchor="start" x="3176.72" y="-233.9" font-family="Arial" font-size="8.00" fill="#f8fafc">Worker and FastAPI</text>
</a>
</g>
</g>
</g>
</svg>
